<svg width="24" height="25" viewBox="0 0 24 25" fill="none" xmlns="http://www.w3.org/2000/svg">
<path d="M11.0684 16.818L14.2503 20L17.4323 16.818" stroke="white" stroke-width="2" stroke-linecap="round" stroke-linejoin="round"/>
<path d="M14.25 12.5V20" stroke="white" stroke-width="2" stroke-linecap="round" stroke-linejoin="round"/>
<path d="M8.99978 20H6.74978C6.00525 19.9993 5.26939 19.8402 4.59104 19.5333C3.91269 19.2265 3.30737 18.7788 2.81526 18.2201C2.32314 17.6614 1.95548 17.0045 1.73669 16.2928C1.5179 15.5812 1.45297 14.8311 1.54623 14.0924C1.63948 13.3538 1.88877 12.6434 2.27757 12.0084C2.66636 11.3735 3.18576 10.8285 3.80129 10.4096C4.41682 9.99077 5.11439 9.70762 5.84772 9.57897C6.58105 9.45032 7.33336 9.47912 8.0547 9.66345" stroke="white" stroke-width="2" stroke-linecap="round" stroke-linejoin="round"/>
<path d="M7.5 12.5C7.50012 11.3117 7.78261 10.1404 8.3242 9.0826C8.86578 8.02485 9.65097 7.11093 10.615 6.41615C11.5791 5.72137 12.6945 5.26563 13.8692 5.08646C15.044 4.9073 16.2445 5.00985 17.3719 5.38566C18.4992 5.76148 19.5211 6.3998 20.3534 7.24802C21.1857 8.09625 21.8045 9.1301 22.1588 10.2644C22.5132 11.3987 22.5929 12.6009 22.3915 13.7721C22.19 14.9432 21.7132 16.0497 21.0002 17.0004" stroke="white" stroke-width="2" stroke-linecap="round" stroke-linejoin="round"/>
</svg>
