<svg width="126" height="34" viewBox="0 0 126 34" fill="none" xmlns="http://www.w3.org/2000/svg">
<g clip-path="url(#clip0)">
<path d="M54.5475 22.7032L53.1923 26.8968C53.1746 26.9649 53.134 27.0247 53.0775 27.0662C53.021 27.1077 52.9519 27.1285 52.8819 27.1249H49.5923C49.3955 27.1249 49.3373 27.0109 49.3678 26.8468L55.0187 10.4809C55.2069 9.92396 55.3006 9.33924 55.2958 8.75116C55.2934 8.70278 55.3096 8.65534 55.3411 8.6186C55.3726 8.58186 55.4169 8.55864 55.4649 8.55371H59.985C60.1264 8.55371 60.1818 8.58152 60.2123 8.72335L66.6253 26.869C66.6807 27.0109 66.653 27.1249 66.484 27.1249H62.8174C62.7501 27.1364 62.681 27.1227 62.6232 27.0862C62.5654 27.0498 62.5231 26.9933 62.5042 26.9274L61.0631 22.7032H54.5475ZM60.0294 19.1575C59.4751 17.2859 58.3333 13.857 57.7984 11.8436H57.7707C57.3162 13.743 56.2991 16.8493 55.5536 19.1575H60.0294Z" fill="#DDDDDD"/>
<path d="M67.0771 20.2058C67.0771 16.1512 70.1007 12.7501 75.2722 12.7501C75.4967 12.7501 75.7794 12.7779 76.2034 12.8057V7.2216C76.2003 7.19492 76.2032 7.16788 76.212 7.1425C76.2208 7.11712 76.2352 7.09407 76.2541 7.07508C76.2731 7.05608 76.296 7.04163 76.3213 7.03281C76.3466 7.02399 76.3736 7.02103 76.4001 7.02415H79.9614C80.1027 7.02415 80.1304 7.07977 80.1304 7.19379V23.949C80.1231 24.6404 80.161 25.3316 80.2441 26.018C80.2441 26.1599 80.2164 26.2183 80.0473 26.2739C78.2866 27.0248 76.3927 27.4107 74.4796 27.4085C70.2975 27.4085 67.0771 25.028 67.0771 20.2058ZM76.2034 16.1818C75.8666 16.0713 75.5125 16.0232 75.1586 16.04C72.983 16.04 71.1179 17.3721 71.1179 20.0084C71.1179 22.8144 72.728 24.0352 74.8759 24.0352C75.3247 24.0542 75.7736 23.9968 76.2034 23.8656V16.1818Z" fill="#DDDDDD"/>
<path d="M96.3126 20.0084C96.3126 24.4579 93.4304 27.4085 89.3619 27.4085C84.5286 27.4085 82.3835 23.7516 82.3835 20.0946C82.3835 16.0678 85.0663 12.7501 89.4174 12.7501C93.968 12.7501 96.3126 16.1818 96.3126 20.0084ZM86.366 20.0362C86.366 22.5391 87.5245 24.1186 89.4146 24.1186C91.0553 24.1186 92.2968 22.7031 92.2968 20.0946C92.2968 17.8698 91.3934 16.04 89.2483 16.04C87.6104 16.04 86.366 17.5139 86.366 20.0362Z" fill="#DDDDDD"/>
<path d="M102.252 7.02429C102.476 7.02429 102.529 7.0521 102.529 7.24955V13.0617C103.303 12.8539 104.1 12.7492 104.901 12.7503C109.058 12.7503 111.683 15.6981 111.683 19.4968C111.683 24.8001 107.501 27.4086 103.208 27.4086C101.705 27.4192 100.21 27.1988 98.7736 26.7551C98.7237 26.7275 98.6819 26.6874 98.6523 26.6386C98.6226 26.5898 98.6062 26.5341 98.6046 26.477V7.22174C98.6046 7.07991 98.66 7.02429 98.8013 7.02429H102.252ZM104.192 16.0957C103.629 16.0887 103.069 16.1655 102.529 16.3238V24.0214C102.872 24.0997 103.222 24.137 103.574 24.1327C105.722 24.1327 107.67 22.8284 107.67 19.8806C107.675 17.286 106.179 16.0957 104.2 16.0957H104.192Z" fill="#DDDDDD"/>
<path d="M117.212 21.1152C117.353 22.7309 118.484 24.063 121.253 24.063C122.443 24.086 123.626 23.8636 124.728 23.4095C124.814 23.3539 124.897 23.3817 124.897 23.5513V26.246C124.897 26.4435 124.842 26.5241 124.7 26.5853C123.569 27.1248 122.328 27.4196 120.377 27.4196C115.064 27.4196 113.202 23.7627 113.202 20.2475C113.202 16.3347 115.602 12.7612 120.039 12.7612C124.304 12.7612 126 16.0789 126 18.8793C126.02 19.5157 125.973 20.1524 125.859 20.7787C125.855 20.8379 125.83 20.8937 125.788 20.9356C125.746 20.9775 125.69 21.0028 125.631 21.0067C124.664 21.0984 123.693 21.1365 122.721 21.1208L117.212 21.1152ZM120.887 18.3648C121.358 18.3821 121.829 18.3626 122.297 18.3064V18.109C122.289 17.8028 122.22 17.5013 122.095 17.2222C121.969 16.943 121.789 16.6917 121.566 16.483C121.343 16.2744 121.08 16.1125 120.793 16.0068C120.507 15.9011 120.202 15.8538 119.897 15.8675C118.118 15.8675 117.353 17.2024 117.184 18.3704L120.887 18.3648Z" fill="#DDDDDD"/>
<path d="M23.5634 0.803223H37.2347V33.649L23.5634 0.803223Z" fill="#DDDDDD"/>
<path d="M13.93 0.803223H0.247559V33.649L13.93 0.803223Z" fill="#DDDDDD"/>
<path d="M18.7465 12.9087L27.457 33.649H21.748L19.1428 27.0443H12.7686L18.7465 12.9087Z" fill="#DDDDDD"/>
</g>
<defs>
<clipPath id="clip0">
<rect width="125.752" height="32.8458" fill="white" transform="translate(0.247559 0.803223)"/>
</clipPath>
</defs>
</svg>
