<svg width="123" height="37" viewBox="0 0 123 37" fill="none" xmlns="http://www.w3.org/2000/svg">
<g clip-path="url(#clip0)">
<path fill-rule="evenodd" clip-rule="evenodd" d="M76.0379 28.8465C68.9154 34.0894 58.5917 36.8866 49.7031 36.8866C37.24 36.8866 26.02 32.2831 17.5316 24.6266C16.8647 24.0245 17.4623 23.204 18.2626 23.6729C27.4232 28.9957 38.7499 32.1979 50.4501 32.1979C58.3409 32.1979 67.0213 30.5675 75.0029 27.1841C76.2086 26.6726 77.217 27.9727 76.0379 28.8465Z" fill="#DDDDDD"/>
<path fill-rule="evenodd" clip-rule="evenodd" d="M78.9989 25.4632C78.0919 24.3017 72.9807 24.9144 70.6866 25.1861C69.9876 25.2714 69.8809 24.664 70.5105 24.2271C74.5813 21.3659 81.261 22.1917 82.04 23.1508C82.8189 24.1152 81.8372 30.802 78.0118 33.9935C77.425 34.4837 76.8648 34.2226 77.1262 33.5726C77.9852 31.4307 79.9112 26.63 78.9989 25.4632Z" fill="#DDDDDD"/>
<path fill-rule="evenodd" clip-rule="evenodd" d="M70.8468 4.02818V1.24689C70.8468 0.82597 71.1669 0.543579 71.551 0.543579H84.0195C84.4197 0.543579 84.7398 0.831299 84.7398 1.24689V3.62857C84.7344 4.02818 84.3983 4.55033 83.8008 5.37619L77.3398 14.5885C79.7406 14.5299 82.2749 14.8869 84.4517 16.1124C84.9425 16.3894 85.0759 16.7944 85.1132 17.194V20.1618C85.1132 20.5667 84.6651 21.0409 84.1956 20.7958C80.3595 18.7871 75.2644 18.5686 71.0229 20.8171C70.5907 21.0516 70.1372 20.5827 70.1372 20.1777V17.3592C70.1372 16.9063 70.1425 16.1337 70.596 15.4464L78.0814 4.72616H71.567C71.1669 4.72616 70.8468 4.44377 70.8468 4.02818Z" fill="#DDDDDD"/>
<path fill-rule="evenodd" clip-rule="evenodd" d="M25.3638 21.3818H21.5704C21.2076 21.3552 20.9195 21.0835 20.8928 20.7371V1.29478C20.8928 0.905825 21.2183 0.596791 21.6238 0.596791H25.161C25.5292 0.612764 25.8226 0.895165 25.8493 1.24682V3.78834H25.9186C26.8416 1.33207 28.5756 0.186523 30.9124 0.186523C33.2866 0.186523 34.7698 1.33207 35.8368 3.78834C36.7545 1.33207 38.8406 0.186523 41.076 0.186523C42.6659 0.186523 44.4052 0.841884 45.4669 2.31245C46.6674 3.94818 46.422 6.32453 46.422 8.40783L46.4166 20.6785C46.4166 21.0675 46.0912 21.3818 45.6857 21.3818H41.8977C41.5189 21.3552 41.2148 21.0515 41.2148 20.6785V10.3739C41.2148 9.55338 41.2895 7.50738 41.1081 6.72947C40.8253 5.42408 39.977 5.05644 38.8779 5.05644C37.9603 5.05644 36.9999 5.66917 36.6104 6.64955C36.221 7.62993 36.2583 9.27099 36.2583 10.3739V20.6785C36.2583 21.0675 35.9329 21.3818 35.5274 21.3818H31.7394C31.3552 21.3552 31.0565 21.0515 31.0565 20.6785L31.0511 10.3739C31.0511 8.20536 31.4086 5.01381 28.7143 5.01381C25.988 5.01381 26.0947 8.12544 26.0947 10.3739V20.6785C26.0947 21.0675 25.7692 21.3818 25.3638 21.3818" fill="#DDDDDD"/>
<path fill-rule="evenodd" clip-rule="evenodd" d="M95.4743 0.186523C101.103 0.186523 104.149 5.01381 104.149 11.1518C104.149 17.082 100.783 21.7868 95.4743 21.7868C89.9469 21.7868 86.9379 16.9595 86.9379 10.944C86.9379 4.89126 89.9843 0.186523 95.4743 0.186523ZM95.5063 4.15598C92.7106 4.15598 92.5345 7.96027 92.5345 10.3313C92.5345 12.7076 92.4972 17.78 95.4743 17.78C98.414 17.78 98.5527 13.688 98.5527 11.1944C98.5527 9.55338 98.4833 7.59263 97.9872 6.03681C97.5603 4.68347 96.712 4.15598 95.5063 4.15598Z" fill="#DDDDDD"/>
<path fill-rule="evenodd" clip-rule="evenodd" d="M111.448 21.3818H107.671C107.292 21.3552 106.988 21.0515 106.988 20.6785L106.982 1.23084C107.014 0.873852 107.329 0.596791 107.713 0.596791H111.229C111.56 0.612764 111.832 0.836557 111.907 1.14026V4.11336H111.976C113.038 1.45462 114.526 0.186523 117.146 0.186523C118.848 0.186523 120.507 0.79926 121.574 2.47762C122.567 4.03343 122.567 6.64955 122.567 8.53038V20.7691C122.524 21.1101 122.209 21.3818 121.836 21.3818H118.032C117.685 21.3552 117.397 21.0994 117.359 20.7691V10.2087C117.359 8.08282 117.605 4.97118 114.985 4.97118C114.062 4.97118 113.214 5.58925 112.792 6.527C112.259 7.71518 112.19 8.89802 112.19 10.2087V20.6785C112.184 21.0675 111.853 21.3818 111.448 21.3818" fill="#DDDDDD"/>
<path fill-rule="evenodd" clip-rule="evenodd" d="M60.9071 12.0949C60.9071 13.5708 60.9444 14.8015 60.1975 16.1123C59.5946 17.1779 58.6343 17.8333 57.5725 17.8333C56.116 17.8333 55.2624 16.725 55.2624 15.0893C55.2624 11.8604 58.1594 11.2743 60.9071 11.2743V12.0949ZM64.7324 21.3285C64.4817 21.5523 64.1189 21.5683 63.8361 21.4191C62.577 20.3748 62.3476 19.8899 61.6593 18.8936C59.5786 21.0142 58.1007 21.6482 55.4064 21.6482C52.2106 21.6482 49.7297 19.6821 49.7297 15.7446C49.7297 12.6703 51.3943 10.5763 53.7739 9.55334C55.8333 8.64756 58.7089 8.48772 60.9071 8.23729V7.74711C60.9071 6.84665 60.9764 5.78102 60.4429 5.00312C59.9841 4.30513 59.0984 4.01741 58.3141 4.01741C56.8683 4.01741 55.5825 4.75802 55.2677 6.29252C55.2037 6.63353 54.9529 6.9692 54.6061 6.98518L50.9302 6.5909C50.6207 6.52164 50.2739 6.27121 50.3646 5.79701C51.2076 1.34269 55.241 0 58.8477 0C60.6937 0 63.1052 0.490189 64.5617 1.88616C66.4077 3.60714 66.2316 5.90357 66.2316 8.40247V14.306C66.2316 16.0803 66.9679 16.8582 67.6615 17.8173C67.9016 18.1583 67.9549 18.5685 67.6455 18.8243C66.8719 19.469 65.4954 20.6678 64.7378 21.3392L64.7324 21.3285" fill="#DDDDDD"/>
<path fill-rule="evenodd" clip-rule="evenodd" d="M11.1773 12.0951C11.1773 13.571 11.2147 14.8018 10.4677 16.1125C9.86486 17.1781 8.90985 17.8335 7.8428 17.8335C6.38628 17.8335 5.53798 16.7252 5.53798 15.0895C5.53798 11.8607 8.43501 11.2746 11.1773 11.2746V12.0951ZM15.0027 21.3288C14.7519 21.5525 14.3891 21.5685 14.1064 21.4193C12.8473 20.375 12.6232 19.8902 11.9296 18.8938C9.84885 21.0144 8.37633 21.6484 5.67669 21.6484C2.48622 21.6484 0 19.6824 0 15.7449C0 12.6705 1.66993 10.5766 4.04411 9.55359C6.10351 8.6478 8.97921 8.48796 11.1773 8.23754V7.74735C11.1773 6.84689 11.2467 5.78127 10.7185 5.00336C10.2543 4.30537 9.36868 4.01766 8.58974 4.01766C7.14389 4.01766 5.85276 4.75827 5.53798 6.29277C5.47396 6.63377 5.2232 6.96944 4.88175 6.98543L1.20043 6.59114C0.890985 6.52188 0.549529 6.27145 0.634893 5.79725C1.4832 1.34294 5.5113 0.000244141 9.11793 0.000244141C10.9639 0.000244141 13.3754 0.490433 14.832 1.8864C16.678 3.60739 16.5019 5.90381 16.5019 8.40271V14.3063C16.5019 16.0805 17.2382 16.8584 17.9317 17.8175C18.1772 18.1585 18.2305 18.5688 17.9211 18.8245C17.1475 19.4692 15.771 20.6681 15.0134 21.3394L15.0027 21.3287" fill="#DDDDDD"/>
</g>
<defs>
<clipPath id="clip0">
<rect width="122.567" height="36.8867" fill="white"/>
</clipPath>
</defs>
</svg>
