<svg width="166" height="22" viewBox="0 0 166 22" fill="none" xmlns="http://www.w3.org/2000/svg">
<path d="M6.01863 10.2917C5.95833 10.2124 5.87871 10.15 5.78745 10.1107C5.69618 10.0713 5.59637 10.0563 5.49766 10.0671C5.39894 10.0779 5.30466 10.1141 5.22393 10.1722C5.1432 10.2304 5.07875 10.3084 5.03681 10.3989L0.0617886 20.4001C0.0164669 20.4913 -0.00493165 20.5926 -0.00037528 20.6944C0.00418109 20.7962 0.0345411 20.8951 0.0878223 20.9818C0.141103 21.0685 0.215537 21.14 0.304057 21.1897C0.392576 21.2393 0.492243 21.2654 0.593594 21.2654H7.52105C7.63201 21.268 7.74132 21.2381 7.83572 21.1794C7.93013 21.1208 8.00556 21.0358 8.05286 20.9348C9.5472 17.8301 8.64158 13.1094 6.01863 10.2917Z" fill="#DDDDDD"/>
<path d="M9.66707 1.19511C8.42743 3.11291 7.70502 5.32183 7.57074 7.60508C7.43645 9.88834 7.89489 12.1675 8.90108 14.2188L12.2409 20.9348C12.2903 21.0341 12.3662 21.1177 12.4601 21.176C12.554 21.2344 12.6623 21.2653 12.7727 21.2654H19.6989C19.8003 21.2653 19.8999 21.2393 19.9884 21.1897C20.077 21.14 20.1514 21.0685 20.2047 20.9818C20.258 20.8951 20.2883 20.7962 20.2929 20.6944C20.2974 20.5926 20.276 20.4913 20.2307 20.4001C20.2307 20.4001 10.9126 1.66008 10.6784 1.19136C10.6321 1.09594 10.56 1.01559 10.4704 0.959504C10.3807 0.90342 10.2772 0.87388 10.1716 0.874271C10.066 0.874663 9.96265 0.904971 9.87342 0.961719C9.78418 1.01847 9.71267 1.09936 9.66707 1.19511Z" fill="#DDDDDD"/>
<path d="M90.9082 9.21424C90.9082 11.6908 92.0508 13.657 96.5202 14.525C99.1867 15.0879 99.7452 15.5206 99.7452 16.4143C99.7452 17.2824 99.1854 17.8443 97.3073 17.8443C95.0374 17.8032 92.8128 17.198 90.832 16.0826V20.1163C92.178 20.7802 93.9554 21.5206 97.2566 21.5206C101.929 21.5206 103.783 19.4256 103.783 16.3121L90.9082 9.21424ZM103.783 16.3121C103.783 13.3759 102.234 11.9969 97.8662 11.0526C95.4538 10.5163 94.8697 9.98034 94.8697 9.21424C94.8697 8.24489 95.733 7.83557 97.3328 7.83557C99.2628 7.83557 101.167 8.42281 102.97 9.23988V5.38436C101.242 4.59324 99.3587 4.20072 97.4597 4.23553C93.1427 4.23553 90.9082 6.12482 90.9082 9.21424" fill="#DDDDDD"/>
<path d="M150.937 4.49048V21.2652H154.492V8.47357L155.99 11.8691L161.018 21.2652H165.487V4.49048H161.932V15.3162L160.586 12.1756L156.548 4.49048H150.937Z" fill="#DDDDDD"/>
<path d="M128.325 4.49048H124.439V21.2652H128.325V4.49048Z" fill="#DDDDDD"/>
<path d="M119.957 16.3121C119.957 13.3759 118.408 11.9969 114.04 11.0526C111.628 10.5163 111.044 9.98034 111.044 9.21424C111.044 8.24489 111.907 7.83557 113.507 7.83557C115.437 7.83557 117.341 8.42281 119.144 9.23988V5.38436C117.415 4.59324 115.533 4.20072 113.634 4.23553C109.317 4.23553 107.082 6.12482 107.082 9.21424C107.082 11.6908 108.225 13.657 112.694 14.525C115.36 15.0879 115.919 15.5206 115.919 16.4143C115.919 17.2824 115.359 17.8443 113.481 17.8443C111.211 17.8032 108.987 17.198 107.006 16.0826V20.1163C108.352 20.7802 110.129 21.5206 113.43 21.5206C118.103 21.5206 119.957 19.4256 119.957 16.3121Z" fill="#DDDDDD"/>
<path d="M60.7266 4.49048V21.2652H68.7123L69.9697 17.6396H64.637V4.49048H60.7266Z" fill="#DDDDDD"/>
<path d="M44.9492 4.49048V8.11585H49.2662V21.2652H53.1766V8.11585H57.7984V4.49048H44.9492Z" fill="#DDDDDD"/>
<path d="M39.2787 4.49048H34.1538L28.3359 21.2652H32.7788L33.6036 18.4401C35.6349 19.0398 37.7948 19.0398 39.826 18.4401L40.6508 21.2652H45.0946L39.2787 4.49048ZM36.7161 15.4151C35.9923 15.415 35.2723 15.3109 34.578 15.1058L36.7161 7.78533L38.8542 15.1083C38.1597 15.3125 37.4397 15.4158 36.7161 15.4151Z" fill="#DDDDDD"/>
<path d="M82.4795 4.49048H77.3549L71.5371 21.2652H75.9809L76.8057 18.4401C78.837 19.0398 80.9969 19.0398 83.0281 18.4401L83.8529 21.2652H88.2967L82.4795 4.49048ZM79.9172 15.4151C79.1935 15.415 78.4735 15.3109 77.7791 15.1058L79.9172 7.78533L82.0553 15.1083C81.3608 15.3125 80.6408 15.4158 79.9172 15.4151Z" fill="#DDDDDD"/>
<path d="M142.325 4.49048H137.201L131.383 21.2652H135.827L136.651 18.4401C138.683 19.0398 140.843 19.0398 142.874 18.4401L143.699 21.2652H148.143L142.325 4.49048ZM139.761 15.4151C139.038 15.415 138.318 15.3109 137.623 15.1058L139.761 7.78533L141.899 15.1083C141.205 15.3125 140.485 15.4158 139.761 15.4151Z" fill="#DDDDDD"/>
</svg>
