<svg width="156" height="31" viewBox="0 0 156 31" fill="none" xmlns="http://www.w3.org/2000/svg">
<path d="M50.4695 7.79151C52.6949 7.79151 54.4751 8.53277 55.9587 10.0647L56.0576 10.1635L58.0357 8.23627L57.9862 8.13743C56.2059 6.16074 53.4861 5.07356 50.3706 5.07356C44.2386 5.07356 39.7385 9.32345 39.7385 15.2041C39.7385 21.0848 44.1891 25.3347 50.3212 25.3347C53.4366 25.3347 56.1565 24.2475 57.9862 22.2214L58.0357 22.1225L56.0576 20.1953L55.9587 20.2941C54.4751 21.826 52.6454 22.6167 50.4695 22.6167C46.0188 22.6167 42.8045 19.5034 42.8045 15.2041C42.8045 10.9048 46.0683 7.79151 50.4695 7.79151ZM66.492 22.765C63.5743 22.765 61.5468 20.64 61.5468 17.675C61.5468 14.6605 63.5743 12.585 66.492 12.585C69.4096 12.585 71.4371 14.6605 71.4371 17.675C71.4371 20.6894 69.4096 22.765 66.492 22.765ZM66.492 10.0153C61.8929 10.0153 58.5796 13.2274 58.5796 17.675C58.5796 22.1225 61.8929 25.3347 66.492 25.3347C71.091 25.3347 74.4043 22.1225 74.4043 17.675C74.4043 13.2274 71.0415 10.0153 66.492 10.0153ZM83.3056 22.765C80.3879 22.765 78.311 20.64 78.311 17.6256C78.311 14.6111 80.3385 12.4862 83.3056 12.4862C86.2233 12.4862 88.2508 14.6111 88.2508 17.6256C88.2508 20.64 86.2233 22.765 83.3056 22.765ZM88.2508 12.0908C87.0145 10.6577 85.2342 9.91646 83.1078 9.91646C78.5582 9.91646 75.3933 13.0792 75.3933 17.6256C75.3933 22.172 78.5582 25.3347 83.1078 25.3347C85.2837 25.3347 87.1628 24.4946 88.3497 23.012V25.137H91.1685V4.08522H88.2013L88.2508 12.0908ZM100.663 12.4862C103.086 12.4862 104.916 14.1169 105.262 16.489H96.1136C96.4104 14.1169 98.1906 12.4862 100.663 12.4862ZM100.663 10.0153C96.3115 10.0153 93.196 13.2274 93.196 17.675C93.196 22.172 96.4598 25.3347 101.207 25.3347C103.68 25.3347 105.707 24.4946 107.092 22.9132L107.141 22.8638L105.51 20.9859L105.411 21.0848C104.372 22.2214 102.987 22.8144 101.257 22.8144C98.4874 22.8144 96.4598 21.233 96.0642 18.7127H107.933V18.6139C107.982 18.3668 107.982 18.0209 107.982 17.7738C108.032 13.178 104.966 10.0153 100.663 10.0153ZM121.532 20.6894C120.642 22.0237 119.257 22.765 117.526 22.765C114.51 22.765 112.482 20.6894 112.482 17.675C112.482 14.6605 114.559 12.585 117.526 12.585C119.257 12.585 120.642 13.2768 121.532 14.6605L121.581 14.7594L123.856 13.3263L123.807 13.2274C122.62 11.2013 120.345 10.0153 117.576 10.0153C112.927 10.0153 109.515 13.2274 109.515 17.675C109.515 22.1225 112.927 25.3347 117.576 25.3347C120.345 25.3347 122.62 24.1486 123.807 22.0731L123.856 21.9743L121.581 20.5906L121.532 20.6894ZM132.758 22.765C129.84 22.765 127.812 20.64 127.812 17.675C127.812 14.6605 129.84 12.585 132.758 12.585C135.675 12.585 137.703 14.6605 137.703 17.675C137.703 20.6894 135.675 22.765 132.758 22.765ZM132.758 10.0153C128.159 10.0153 124.845 13.2274 124.845 17.675C124.845 22.1225 128.159 25.3347 132.758 25.3347C137.357 25.3347 140.67 22.1225 140.67 17.675C140.67 13.2274 137.307 10.0153 132.758 10.0153ZM153.132 10.0153L148.088 21.5789L143.142 10.0153H140.126L146.604 24.7911L146.654 24.8405H149.522L156 10.0153H153.132ZM16.7062 0.22168C8.03686 0.22168 0.975586 7.20815 0.975586 15.7316V15.8015L3.6323 17.3385H3.70222C5.38015 16.2207 7.40764 15.8015 9.43514 16.1508C10.8334 16.4303 12.1618 17.0591 13.2105 18.0372L13.6999 18.4564L13.9795 17.8974C14.2592 17.3385 14.5388 16.8495 14.8185 16.3604C14.9583 16.1508 15.0981 16.0111 15.238 15.8015L15.5176 15.4522L15.1681 15.1727C13.6999 13.985 11.952 13.1466 10.0644 12.7973C8.2466 12.448 6.42885 12.5179 4.75092 13.0768C6.00937 7.55747 10.9033 3.64505 16.7062 3.64505C19.9921 3.64505 23.0683 4.90262 25.3754 7.20815C27.0534 8.81504 28.172 10.8411 28.6614 13.0768C27.6127 12.7275 26.4941 12.5877 25.3754 12.5877H25.1657C24.7462 12.5877 24.3267 12.6576 23.8373 12.6576H23.7674C23.6276 12.6576 23.4179 12.7275 23.278 12.7275C22.9984 12.7973 22.7886 12.7973 22.509 12.8672L22.2992 12.9371C22.0895 13.0069 21.8798 13.0768 21.67 13.1466H21.6001C21.1107 13.2864 20.6912 13.496 20.2018 13.7056C19.9921 13.7754 19.7824 13.9152 19.5726 14.0549H19.5027C18.454 14.6837 17.4752 15.4522 16.7062 16.4303L16.6362 16.57C16.4265 16.8495 16.2867 17.0591 16.1468 17.1988C16.007 17.3385 15.9371 17.5481 15.7973 17.7577L15.7274 17.8974C15.5875 18.107 15.5176 18.3166 15.4477 18.4564V18.5262C15.238 18.9454 15.0282 19.4345 14.8884 19.9235V19.9934C14.5388 21.1112 14.3291 22.2989 14.3291 23.5565V23.6962C14.3291 23.8359 14.3291 24.0455 14.3291 24.1853C14.3291 24.2551 14.3291 24.325 14.3291 24.3949C14.3291 24.4647 14.3291 24.6045 14.3291 24.6743V24.7442V24.8839C14.3291 25.0236 14.399 25.2332 14.399 25.373C14.7486 27.0497 15.5176 28.6566 16.7062 30.1238L16.7761 30.1936L16.846 30.1238C17.3354 29.5649 18.454 27.8182 18.5938 26.7703C18.0345 25.7223 17.7549 24.5346 17.7549 23.4168C17.7549 19.5043 20.8311 16.2207 24.8161 16.0111H25.0958C26.7038 15.9412 28.3118 16.4303 29.6402 17.3385H29.7101L32.3668 15.8015V15.7316C32.3668 11.6096 30.7588 7.6972 27.7525 4.76289C24.8161 1.82857 20.901 0.22168 16.7062 0.22168Z" fill="#DDDDDD"/>
</svg>
