<svg width="142" height="35" viewBox="0 0 142 35" fill="none" xmlns="http://www.w3.org/2000/svg">
<path fill-rule="evenodd" clip-rule="evenodd" d="M0.797852 31.0428C0.797852 32.8646 1.97634 34.0461 3.79302 34.0461L12.5442 34.0463C17.7647 34.0463 22.0353 32.275 24.9387 29.1741H0.797852V31.0428ZM12.5442 0.716475L3.79302 0.716309C1.97634 0.716309 0.797852 1.89802 0.797852 3.71982V5.58846H24.9387C22.0353 2.48762 17.7647 0.716475 12.5442 0.716475ZM20.1814 22.1304C20.1814 23.6042 21.1388 24.5605 22.615 24.5605H27.8588C28.4532 23.0813 28.8526 21.4551 29.0382 19.7003H22.615C21.1388 19.7003 20.1814 20.6564 20.1814 22.1304ZM12.913 12.6442C12.913 14.1182 13.8704 15.0743 15.3466 15.0743H29.0382C28.8526 13.3195 28.4532 11.6933 27.8588 10.2141H15.3466C13.8704 10.2141 12.913 11.1702 12.913 12.6442ZM15.3449 22.1304C15.3449 20.6564 14.3875 19.7003 12.9113 19.7003H0.797852V24.5605H12.9113C14.3875 24.5605 15.3449 23.6044 15.3449 22.1304ZM8.07654 12.6442C8.07654 11.1702 7.11909 10.2141 5.64294 10.2141H0.797852V15.0743H5.64294C7.11909 15.0743 8.07654 14.1182 8.07654 12.6442Z" fill="#DDDDDD"/>
<path fill-rule="evenodd" clip-rule="evenodd" d="M62.382 16.8795C62.7719 14.9775 64.0315 14.0104 65.6872 14.0104C67.3286 14.0104 68.5288 15.0208 68.9117 16.8795H62.382ZM65.7772 10.7153C61.5616 10.7153 58.9396 14.1013 58.9396 18.243C58.9396 22.5324 61.7415 25.7138 65.9058 25.7138C68.7778 25.7138 70.5199 24.3786 71.5981 22.6973L68.9171 20.9755C68.2431 21.9012 67.1646 22.3903 66.0086 22.3903C64.1175 22.3903 62.8512 21.5002 62.4196 19.7201H69.4958C69.4952 19.7224 69.4947 19.7247 69.4941 19.7272L72.0737 19.7424C72.1715 19.274 72.2292 18.79 72.2292 18.243C72.2292 14.6354 70.0185 10.7153 65.7772 10.7153Z" fill="#DDDDDD"/>
<path fill-rule="evenodd" clip-rule="evenodd" d="M48.142 22.3808C45.5483 22.3808 43.989 20.5154 43.989 18.2145C43.989 15.9135 45.5782 14.0483 48.142 14.0483C50.7059 14.0483 52.295 15.9135 52.295 18.2145C52.295 20.5154 50.7358 22.3808 48.142 22.3808ZM52.0124 12.9174C50.9767 11.6695 49.5062 10.9045 47.6809 10.9045C43.6009 10.9045 40.6666 14.2198 40.6666 18.3092C40.6666 22.3987 43.573 25.7138 47.6809 25.7138C49.5062 25.7138 50.9767 24.9488 52.0124 23.7009V25.3491H55.6174V5.71582H52.0124V12.9174Z" fill="#DDDDDD"/>
<path fill-rule="evenodd" clip-rule="evenodd" d="M83.2535 17.9685C84.2322 18.6544 84.8525 19.6829 84.8525 21.04C84.8525 23.7829 83.0095 25.6859 79.5639 25.6859C76.3213 25.6859 74.5826 24.0191 73.8902 22.3358L76.8664 20.5923C76.8664 20.5923 77.2671 22.4114 79.5105 22.4114C80.8994 22.4114 81.3268 21.7956 81.3268 21.2518C81.3268 20.9999 81.2466 20.5363 80.2584 20.1444C78.2736 19.3575 74.4358 19.0045 74.4358 15.4146C74.4358 12.4761 76.7318 10.9089 79.5639 10.9089C82.2122 10.9089 83.9134 12.5619 84.5591 13.8481L81.6473 15.5546C81.6473 15.5546 81.0864 14.1272 79.5907 14.1272C78.0951 14.1272 77.9614 14.9949 77.9614 15.2467C77.9614 15.9814 78.708 16.283 80.3119 16.7581C81.2614 17.0394 82.2368 17.2948 83.2564 17.9659C83.2555 17.9667 83.2545 17.9676 83.2535 17.9685ZM141.999 14.7709H138.981V20.5921C138.981 22.4115 140.744 22.0196 141.999 22.0196V25.294C141.999 25.294 141.338 25.406 140.183 25.406C137.619 25.406 135.536 24.6224 135.536 20.5921V14.7709H133.212V11.3005H135.536V7.38232H138.981V11.3005H141.999V14.7709ZM93.4181 22.1595C94.8478 22.1595 95.9472 21.4448 96.5028 20.2725L99.4894 22.0669C98.3192 24.2175 96.1387 25.7138 93.4181 25.7138C89.2916 25.7138 86.4069 22.4059 86.4069 18.3254C86.4069 14.2447 89.3182 10.9368 93.4181 10.9368C96.0988 10.9368 98.2711 12.4086 99.454 14.5306L96.474 16.366C95.9076 15.209 94.8169 14.4911 93.4181 14.4911C91.333 14.4911 89.8525 16.2077 89.8525 18.3254C89.8525 20.4429 91.3194 22.1595 93.4181 22.1595Z" fill="#DDDDDD"/>
<path fill-rule="evenodd" clip-rule="evenodd" d="M125.092 22.1213C122.847 22.1213 121.498 20.3659 121.498 18.2006C121.498 16.0354 122.873 14.2801 125.092 14.2801C127.31 14.2801 128.685 16.0354 128.685 18.2006C128.685 20.3659 127.336 22.1213 125.092 22.1213ZM125.52 10.8598C129.308 10.8598 132.032 14.1466 132.032 18.2006C132.032 22.2549 129.334 25.5414 125.52 25.5414C123.825 25.5414 122.459 24.7831 121.498 23.5459V30.7133H118.151V11.2492H121.498V12.8554C122.459 11.6182 123.825 10.8598 125.52 10.8598ZM111.716 25.1799V11.2769H115.063V25.1799H111.716ZM105.478 13.6518C106.124 11.967 107.44 11.0034 109.422 10.9991V15.0031C107.098 14.7675 105.419 16.0057 105.481 18.9306C105.48 18.9285 105.479 18.9262 105.478 18.924V25.1799H102.131V11.2771H105.478V13.6518ZM111.716 9.42155V5.71582H115.173V9.42155H111.716Z" fill="#DDDDDD"/>
</svg>
