<svg width="165" height="42" viewBox="0 0 165 42" fill="none" xmlns="http://www.w3.org/2000/svg">
<path fill-rule="evenodd" clip-rule="evenodd" d="M11.9032 17.2777L2.67474 11.4195L11.9683 5.52014L21.2547 11.4152L30.5413 5.52031L39.8345 11.4197L30.6061 17.2778L39.8346 23.1361L30.5411 29.0356L21.2546 23.1405L11.9682 29.0356L2.67468 23.1361L11.9032 17.2777ZM21.2544 11.4241L30.476 17.2779L21.2546 23.1316L12.033 17.2777L21.2544 11.4241ZM21.3214 36.8901L12.0279 30.9906L21.3214 25.0918L30.615 30.9906L21.3214 36.8901Z" fill="#DDDDDD"/>
<path fill-rule="evenodd" clip-rule="evenodd" d="M147.087 31.1618L153.213 22.9256L147.562 15.1436H152.401L155.674 19.9991L158.975 15.1436H163.786L158.052 22.8978L164.094 31.1618H159.338L155.618 25.9358L152.01 31.1618H147.087Z" fill="#DDDDDD"/>
<path fill-rule="evenodd" clip-rule="evenodd" d="M131.422 23.4692C131.422 28.7648 134.359 31.5799 139.562 31.5799C144.429 31.5799 147.73 28.7648 147.73 23.4692V23.0232C147.73 17.6718 144.373 14.7174 139.562 14.7174C134.863 14.7174 131.422 17.6161 131.422 23.0232V23.4692ZM143.479 23.4132C143.479 26.3397 141.996 27.9284 139.563 27.9284C137.157 27.9284 135.675 26.3118 135.675 23.4132V23.023C135.675 19.9013 137.241 18.2569 139.591 18.2569C141.968 18.2569 143.479 20.0128 143.479 23.023V23.4132Z" fill="#DDDDDD"/>
<path fill-rule="evenodd" clip-rule="evenodd" d="M117.524 28.2353C118.391 30.2978 120.125 31.5799 122.782 31.5799C126.894 31.5799 129.58 28.5698 129.58 23.2184V22.7446C129.58 17.3932 126.727 14.7454 122.894 14.7175C120.349 14.7175 118.559 15.8602 117.664 17.9506V9.70056H113.552V31.1619H117.188L117.524 28.2353ZM125.356 23.2183C125.356 26.3957 123.873 27.9565 121.44 27.9565C119.118 27.9565 117.579 26.2285 117.579 23.2183V22.8839C117.579 20.1245 119.174 18.2571 121.496 18.2571C123.733 18.2571 125.356 19.8737 125.356 22.8281V23.2183Z" fill="#DDDDDD"/>
<path fill-rule="evenodd" clip-rule="evenodd" d="M95.2341 15.1435V36.608H99.346V28.5697C100.213 30.4371 101.919 31.5799 104.493 31.5799C108.297 31.5799 111.29 28.8205 111.29 23.5249V23.079C111.29 17.6718 108.605 14.7174 104.493 14.7174C101.836 14.7174 100.045 16.0831 99.1782 18.1456L98.7586 15.1435H95.2341ZM107.038 23.441C107.038 26.3954 105.499 27.9841 103.094 27.9841C100.772 27.9841 99.2616 26.2003 99.2616 23.3574V23.0508C99.2616 20.0685 100.828 18.2847 103.178 18.2847C105.387 18.2847 107.038 19.8734 107.038 23.0787V23.441Z" fill="#DDDDDD"/>
<path fill-rule="evenodd" clip-rule="evenodd" d="M76.7374 23.4692C76.7374 28.7648 79.7025 31.5799 84.9052 31.5799C89.7723 31.5799 93.0451 28.7648 93.0451 23.4692V23.0232C93.0451 17.6718 89.7164 14.7174 84.9052 14.7174C80.2059 14.7174 76.7374 17.6161 76.7374 23.0232V23.4692ZM88.7934 23.4132C88.7934 26.3397 87.2829 27.9284 84.8773 27.9284C82.4717 27.9284 80.9892 26.3118 80.9892 23.4132V23.023C80.9892 19.9013 82.5557 18.2569 84.9053 18.2569C87.2829 18.2569 88.7934 20.0128 88.7934 23.023V23.4132Z" fill="#DDDDDD"/>
<path fill-rule="evenodd" clip-rule="evenodd" d="M65.6046 31.1619H69.8004V23.8038C69.8004 20.4034 70.6396 19.2049 74.1081 19.2049H75.8423V14.9406H74.8074C71.8144 14.9406 70.164 16.2505 69.5207 18.8147L68.9892 15.1437H65.6046V31.1619Z" fill="#DDDDDD"/>
<path fill-rule="evenodd" clip-rule="evenodd" d="M46.9681 11.3047V31.1618H54.6117C59.5907 31.1618 63.3389 28.2631 63.3389 21.8526V20.4869C63.3389 14.1043 59.3669 11.3047 54.4998 11.3047H46.9681ZM51.148 14.8848H54.2762C57.1013 14.8848 59.0314 16.6964 59.0314 20.6821V21.7134C59.0314 25.699 57.1573 27.5107 54.416 27.5107H51.148V14.8848Z" fill="#DDDDDD"/>
</svg>
