<svg width="115" height="39" viewBox="0 0 115 39" fill="none" xmlns="http://www.w3.org/2000/svg">
<path d="M48.9384 19.9833C48.9384 25.3921 44.7147 29.3777 39.5312 29.3777C34.3477 29.3777 30.124 25.3921 30.124 19.9833C30.124 14.5364 34.3477 10.5889 39.5312 10.5889C44.7147 10.5889 48.9384 14.5364 48.9384 19.9833ZM44.8203 19.9833C44.8203 16.6033 42.3724 14.2907 39.5312 14.2907C36.69 14.2907 34.242 16.6033 34.242 19.9833C34.242 23.3294 36.69 25.6759 39.5312 25.6759C42.3724 25.6759 44.8203 23.3251 44.8203 19.9833Z" fill="#DDDDDD"/>
<path d="M69.2326 19.9833C69.2326 25.3921 65.0088 29.3777 59.8254 29.3777C54.6419 29.3777 50.4182 25.3921 50.4182 19.9833C50.4182 14.5406 54.6419 10.5889 59.8254 10.5889C65.0088 10.5889 69.2326 14.5364 69.2326 19.9833ZM65.1145 19.9833C65.1145 16.6033 62.6666 14.2907 59.8254 14.2907C56.9842 14.2907 54.5362 16.6033 54.5362 19.9833C54.5362 23.3294 56.9842 25.6759 59.8254 25.6759C62.6666 25.6759 65.1145 23.3251 65.1145 19.9833Z" fill="#DDDDDD"/>
<path d="M88.6812 11.1564V28.0223C88.6812 34.9601 84.597 37.7937 79.7687 37.7937C75.2236 37.7937 72.4882 34.7484 71.4566 32.2579L75.0419 30.7627C75.6803 32.2918 77.2446 34.0961 79.7645 34.0961C82.8551 34.0961 84.7703 32.1859 84.7703 28.5899V27.2388H84.6266C83.7049 28.3781 81.9292 29.3735 79.6884 29.3735C74.9996 29.3735 70.704 25.2819 70.704 20.0172C70.704 14.7143 74.9996 10.5889 79.6884 10.5889C81.9249 10.5889 83.7007 11.5842 84.6266 12.6897H84.7703V11.1607H88.6812V11.1564ZM85.0621 20.0172C85.0621 16.7092 82.8593 14.2907 80.0562 14.2907C77.215 14.2907 74.8347 16.7092 74.8347 20.0172C74.8347 23.2912 77.215 25.6759 80.0562 25.6759C82.8593 25.6759 85.0621 23.2912 85.0621 20.0172Z" fill="#DDDDDD"/>
<path d="M95.1287 1.27063V28.8016H91.1122V1.27063H95.1287Z" fill="#DDDDDD"/>
<path d="M110.78 23.0752L113.977 25.2099C112.945 26.7389 110.459 29.3734 106.163 29.3734C100.836 29.3734 96.8578 25.248 96.8578 19.979C96.8578 14.3923 100.87 10.5846 105.703 10.5846C110.569 10.5846 112.949 14.4643 113.727 16.5609L114.154 17.6283L101.618 22.8295C102.578 24.7143 104.071 25.6758 106.163 25.6758C108.261 25.6758 109.715 24.6423 110.78 23.0752ZM100.942 19.6952L109.322 16.2094C108.861 15.0361 107.474 14.2187 105.842 14.2187C103.749 14.2187 100.836 16.0696 100.942 19.6952Z" fill="#DDDDDD"/>
<path d="M14.9205 17.5393V13.5536H28.3273C28.4584 14.2483 28.5261 15.0699 28.5261 15.9594C28.5261 18.9497 27.7101 22.6473 25.0803 25.2818C22.5224 27.9502 19.2542 29.3734 14.9248 29.3734C6.90014 29.3734 0.152344 22.8252 0.152344 14.7862C0.152344 6.74711 6.90014 0.198975 14.9248 0.198975C19.3641 0.198975 22.5266 1.94402 24.9027 4.2185L22.0954 7.0309C20.3915 5.42986 18.083 4.18461 14.9205 4.18461C9.06062 4.18461 4.47753 8.91571 4.47753 14.7862C4.47753 20.6566 9.06062 25.3877 14.9205 25.3877C18.7215 25.3877 20.8862 23.8587 22.2729 22.4694C23.3976 21.3428 24.1375 19.7333 24.4292 17.535L14.9205 17.5393Z" fill="#DDDDDD"/>
</svg>
