<svg width="161" height="40" viewBox="0 0 161 40" fill="none" xmlns="http://www.w3.org/2000/svg">
<g clip-path="url(#clip0)">
<path fill-rule="evenodd" clip-rule="evenodd" d="M35.0941 0.429693H5.5366C4.23229 0.427659 2.98058 0.945658 2.05676 1.86977C1.13294 2.79388 0.612665 4.04842 0.610352 5.35749L0.610352 34.9242C0.610352 37.6455 2.81653 39.852 5.5366 39.852H35.0941C36.3984 39.8541 37.6501 39.3361 38.5739 38.412C39.4978 37.4879 40.018 36.2333 40.0204 34.9242V5.35749C40.0204 2.63625 37.8153 0.429693 35.0941 0.429693ZM25.5689 7.65712C25.5689 6.93219 26.1581 6.34304 26.8837 6.34304C27.6093 6.34304 28.1974 6.93219 28.1974 7.65712V25.2143C28.1974 25.9392 27.6082 26.5284 26.8837 26.5284C26.5359 26.5287 26.2023 26.3905 25.956 26.1441C25.7097 25.8977 25.5709 25.5633 25.57 25.2143V7.65712H25.5689ZM19.0006 6.99242C19.0006 6.26639 19.5898 5.67834 20.3154 5.67834C21.0409 5.67834 21.6301 6.26639 21.6301 6.99242V26.0466C21.6301 26.7726 21.0409 27.3606 20.3154 27.3606C19.9676 27.3609 19.634 27.2227 19.3877 26.9763C19.1414 26.73 19.0026 26.3956 19.0017 26.0466V6.99242H19.0006ZM12.4334 7.65712C12.4334 6.93219 13.0225 6.34304 13.747 6.34304C14.4726 6.34304 15.0607 6.93219 15.0607 7.65712V25.2143C15.0607 25.9392 14.4726 26.5284 13.747 26.5284C13.3993 26.5287 13.0656 26.3905 12.8193 26.1441C12.573 25.8977 12.4342 25.5633 12.4334 25.2143V7.65712ZM5.86502 10.2853C5.86502 9.55925 6.45311 8.9712 7.17869 8.9712C7.90426 8.9712 8.49235 9.55925 8.49235 10.2853V22.1043C8.49235 22.8303 7.90317 23.4184 7.17869 23.4184C7.00646 23.4187 6.83586 23.3849 6.67664 23.319C6.51741 23.2532 6.37267 23.1564 6.25069 23.0344C6.1287 22.9124 6.03186 22.7675 5.96568 22.6079C5.89951 22.4483 5.8653 22.2772 5.86502 22.1043V10.2853ZM34.3074 30.3294C34.1056 30.5046 29.2382 34.5881 20.3154 34.5881C11.3925 34.5881 6.5284 30.5035 6.32327 30.3283C6.19254 30.2162 6.08513 30.0793 6.00721 29.9255C5.92929 29.7717 5.8824 29.604 5.86922 29.4319C5.85604 29.2599 5.87684 29.0869 5.93042 28.923C5.98399 28.759 6.0693 28.6073 6.18143 28.4765C6.40816 28.2125 6.72969 28.0491 7.07591 28.0221C7.42214 27.995 7.76499 28.1064 8.02973 28.332C8.10611 28.3966 12.4519 31.9599 20.3143 31.9599C28.2748 31.9599 32.5541 28.3703 32.5955 28.3352C32.8599 28.108 33.2033 27.9952 33.5504 28.0217C33.8975 28.0482 34.22 28.2117 34.4471 28.4765C34.5599 28.607 34.6459 28.7586 34.7 28.9227C34.7541 29.0867 34.7752 29.2599 34.7623 29.4322C34.7493 29.6045 34.7024 29.7724 34.6243 29.9264C34.5463 30.0804 34.4385 30.2174 34.3074 30.3294ZM34.7657 22.1054C34.7657 22.8303 34.1765 23.4195 33.452 23.4195C33.2798 23.4198 33.1092 23.386 32.95 23.3201C32.7907 23.2543 32.646 23.1575 32.524 23.0355C32.402 22.9135 32.3052 22.7685 32.239 22.609C32.1728 22.4494 32.1386 22.2783 32.1384 22.1054V10.2853C32.1384 9.55925 32.7264 8.9712 33.4509 8.9712C34.1765 8.9712 34.7657 9.55925 34.7657 10.2853V22.1043V22.1054ZM56.4685 25.9305C56.4717 26.0913 56.4426 26.2511 56.3828 26.4003C56.3229 26.5495 56.2337 26.6851 56.1204 26.7988C56.0071 26.9126 55.872 27.0021 55.7233 27.0622C55.5746 27.1222 55.4154 27.1515 55.2552 27.1482C54.5612 27.1482 54.0615 26.5974 54.0615 25.9305V14.3206C54.0615 13.6526 54.5623 13.1029 55.2748 13.1029C55.9677 13.1029 56.4685 13.6526 56.4685 14.3206V25.9305ZM72.0306 14.3206V24.9296C72.0306 26.3641 71.2799 27.169 70.0863 27.169H69.9903C68.8545 27.169 68.3144 26.501 67.8332 25.5187L65.4066 20.7048L63.2496 15.7354L63.3074 20.5493L63.3259 25.9119C63.3292 26.0727 63.3001 26.2325 63.2402 26.3817C63.1804 26.5309 63.0912 26.6665 62.9778 26.7802C62.8645 26.894 62.7295 26.9835 62.5808 27.0436C62.4321 27.1036 62.2729 27.1329 62.1126 27.1296C61.4198 27.1296 60.919 26.5788 60.919 25.9119V15.3029C60.919 13.9855 61.6697 13.0624 62.9812 13.0624H63.0761C64.2894 13.0624 64.7902 13.7304 65.2724 14.7126L67.6608 19.4871L69.7011 24.1247L69.6444 19.6842L69.6248 14.3217C69.6248 13.6537 70.1256 13.104 70.8381 13.104C71.5309 13.1029 72.0306 13.6515 72.0306 14.3195V14.3206ZM81.6813 25.9119C81.6845 26.0727 81.6554 26.2325 81.5956 26.3817C81.5358 26.5309 81.4465 26.6665 81.3332 26.7802C81.2199 26.894 81.0848 26.9835 80.9361 27.0436C80.7874 27.1036 80.6282 27.1329 80.468 27.1296C79.7751 27.1296 79.2743 26.5788 79.2743 25.9119V15.4014H76.288C75.6716 15.4014 75.1708 14.9305 75.1708 14.2428C75.1708 13.5749 75.6727 13.104 76.288 13.104H84.6654C85.2818 13.104 85.7826 13.5749 85.7826 14.2626C85.7826 14.9305 85.2818 15.4014 84.6654 15.4014H81.6802V25.9119H81.6813ZM88.9228 25.5176V14.6152C88.9228 13.5946 89.4814 13.0251 90.5027 13.0635H97.4365C98.053 13.0635 98.5527 13.554 98.5527 14.222C98.5527 14.89 98.053 15.3609 97.4365 15.3609H91.3123V18.7403H96.7241C97.322 18.7403 97.8042 19.1925 97.8042 19.8408C97.8042 20.4891 97.322 20.9403 96.7241 20.9403H91.3123V24.8299H97.4376C98.0541 24.8299 98.5538 25.3205 98.5538 25.9896C98.5538 26.6576 98.0541 27.1285 97.4376 27.1285H90.446C89.4454 27.1285 88.8857 26.559 88.925 25.5187L88.9228 25.5176ZM111.671 27.1876C112.345 26.8339 112.557 26.1068 112.229 25.5373L109.823 21.1768C111.806 20.7837 112.963 19.2911 112.963 17.2674C112.963 15.1463 111.653 13.0635 108.513 13.0635H103.947C102.927 13.0251 102.368 13.5946 102.368 14.6152V25.9316C102.368 26.5996 102.869 27.1493 103.562 27.1493C103.722 27.1526 103.881 27.1233 104.03 27.0633C104.179 27.0032 104.314 26.9137 104.427 26.7999C104.54 26.6862 104.63 26.5506 104.689 26.4014C104.749 26.2522 104.778 26.0924 104.775 25.9316L104.756 21.6499H107.298L109.975 26.6981C110.303 27.2676 111.015 27.5227 111.67 27.1876H111.671ZM108.569 19.428H104.756V15.3598H108.55C109.821 15.3598 110.534 16.1844 110.534 17.3835C110.534 18.5826 109.861 19.428 108.57 19.428H108.569ZM117.93 26.0871C116.486 24.7719 115.831 22.7088 115.831 20.1157C115.831 17.5029 116.466 15.4606 117.892 14.164C118.778 13.3777 119.972 12.8466 121.706 12.8466C123.228 12.8466 124.403 13.2014 125.289 13.9669C126.059 14.5955 126.618 15.4803 126.945 16.7177C127.118 17.366 126.675 18.0142 125.944 18.1522C125.25 18.2694 124.693 17.8182 124.48 17.17C124.25 16.5414 123.94 16.0902 123.575 15.7748C123.074 15.3226 122.458 15.1266 121.649 15.1266C120.782 15.1266 120.03 15.3817 119.472 15.9511C118.663 16.7757 118.316 18.2508 118.316 20.1157C118.316 21.9631 118.643 23.4359 119.492 24.2605C120.049 24.8299 120.782 25.0851 121.629 25.0851C122.515 25.0851 123.188 24.8507 123.748 24.3196C124.036 24.0448 124.288 23.6911 124.461 23.2793C124.711 22.6694 125.231 22.2171 125.905 22.3748C126.578 22.5325 127.003 23.1994 126.791 23.8477C126.443 24.9274 125.847 25.7925 125.039 26.3816C124.153 27.0299 123.054 27.365 121.668 27.365C119.897 27.365 118.778 26.8339 117.93 26.0882V26.0871ZM135.614 12.8477C131.433 12.8477 129.661 15.7157 129.661 20.1157C129.661 24.6536 131.414 27.3847 135.614 27.3847C139.735 27.3847 141.546 24.6536 141.546 20.1157C141.546 15.6369 139.754 12.8466 135.614 12.8466V12.8477ZM135.594 15.1463C137.885 15.1463 139.08 16.7757 139.08 20.1157C139.08 23.4556 137.866 25.0851 135.594 25.0851C133.302 25.0851 132.145 23.4556 132.145 20.1157C132.145 16.7768 133.34 15.1463 135.594 15.1463ZM160.229 25.9119C160.232 26.0727 160.203 26.2325 160.143 26.3817C160.083 26.5309 159.994 26.6665 159.88 26.7802C159.767 26.894 159.632 26.9835 159.483 27.0436C159.335 27.1036 159.175 27.1329 159.015 27.1296C158.321 27.1296 157.822 26.5788 157.822 25.9119V20.6468L157.878 15.5186L156.202 20.7256L154.508 25.8527C154.22 26.7562 153.622 27.111 152.871 27.111C152.081 27.111 151.503 26.7375 151.195 25.8341L149.462 20.7267L147.862 15.5996L147.92 20.6479V25.913C147.923 26.0738 147.894 26.2336 147.834 26.3828C147.774 26.532 147.685 26.6676 147.572 26.7813C147.459 26.895 147.323 26.9846 147.175 27.0447C147.026 27.1047 146.867 27.1339 146.707 27.1307C146.014 27.1307 145.513 26.5798 145.513 25.913V15.4025C145.513 13.9483 146.283 13.1029 147.632 13.1029C148.903 13.1029 149.616 13.7906 150.019 15.0488L151.791 20.4113L152.87 24.0656L153.968 20.4113L155.74 15.0488C156.145 13.7906 156.838 13.104 158.11 13.104C159.458 13.104 160.209 13.9286 160.209 15.4036L160.229 25.9119Z" fill="#DDDDDD"/>
</g>
<defs>
<clipPath id="clip0">
<rect width="160.39" height="39.4223" fill="white" transform="translate(0.610352 0.429688)"/>
</clipPath>
</defs>
</svg>
