<svg width="129" height="33" viewBox="0 0 129 33" fill="none" xmlns="http://www.w3.org/2000/svg">
<g clip-path="url(#clip0)">
<path d="M127.189 30.2266C127.268 30.2274 127.346 30.2119 127.419 30.1811C127.492 30.1503 127.558 30.1048 127.613 30.0475C127.668 29.9902 127.71 29.9222 127.737 29.8479C127.764 29.7735 127.776 29.6944 127.772 29.6153C127.772 29.1818 127.51 28.9746 126.973 28.9746H126.106V31.2445H126.432V30.2551H126.833L126.842 30.2671L127.464 31.2445H127.813L127.144 30.2329L127.189 30.2266ZM126.812 29.9993H126.433V29.2319H126.913C127.16 29.2319 127.443 29.2723 127.443 29.5965C127.443 29.9694 127.157 29.9993 126.81 29.9993" fill="#DDDDDD"/>
<path d="M0.135498 5.40723H4.94942V22.9422H13.8614V27.3847H0.135498V5.40723Z" fill="#DDDDDD"/>
<path d="M15.9898 12.4833H20.6144V27.3764H15.9898V12.4833ZM18.3021 5.0791C18.8326 5.0792 19.3513 5.23662 19.7924 5.53146C20.2335 5.8263 20.5773 6.24532 20.7803 6.73554C20.9832 7.22576 21.0363 7.76516 20.9327 8.28553C20.8292 8.8059 20.5736 9.28387 20.1984 9.65901C19.8232 10.0342 19.3452 10.2896 18.8248 10.3931C18.3044 10.4966 17.765 10.4434 17.2748 10.2403C16.7846 10.0373 16.3657 9.69342 16.0709 9.25226C15.7762 8.81109 15.6188 8.29243 15.6188 7.76185C15.6188 7.40951 15.6882 7.06061 15.8231 6.7351C15.9579 6.40958 16.1556 6.11381 16.4048 5.86469C16.6539 5.61557 16.9497 5.41797 17.2753 5.28318C17.6008 5.14838 17.9497 5.07904 18.3021 5.0791Z" fill="#DDDDDD"/>
<path d="M39.9595 5.40381H44.5841V18.5382L49.8253 12.4766H55.4953L49.4255 19.3715L55.3676 27.3827H49.5551L44.6458 20.0209H44.5851V27.3817H39.9605L39.9595 5.40381Z" fill="#DDDDDD"/>
<path d="M23.1784 12.4847H27.6195V14.52H27.6826C28.1262 13.7601 28.7678 13.1348 29.5391 12.7111C30.3103 12.2874 31.1822 12.0811 32.0615 12.1143C36.7511 12.1143 37.6144 15.1998 37.6144 19.2082V27.3755H32.9898V20.1346C32.9898 18.4062 32.958 16.1844 30.5811 16.1844C28.1773 16.1844 27.8064 18.0665 27.8064 20.0089V27.3736H23.1818L23.1784 12.4847Z" fill="#DDDDDD"/>
<path d="M65.2345 18.1976C65.2433 17.8224 65.1759 17.4493 65.0363 17.1009C64.8968 16.7526 64.6879 16.4361 64.4225 16.1709C64.157 15.9056 63.8404 15.6969 63.492 15.5576C63.1435 15.4182 62.7704 15.3511 62.3952 15.3602C61.5872 15.3099 60.7917 15.5792 60.1804 16.11C59.5691 16.6407 59.1908 17.3905 59.1271 18.1976H65.2345ZM69.1519 24.7973C68.3834 25.7292 67.4173 26.4785 66.3235 26.991C65.2297 27.5035 64.0357 27.7663 62.8278 27.7604C58.2032 27.7604 54.5006 24.6735 54.5006 19.8933C54.5006 15.1131 58.2027 12.0276 62.8278 12.0276C67.1503 12.0276 69.861 15.1107 69.861 19.8933V21.3433H59.1271C59.2608 22.1656 59.6871 22.912 60.3276 23.4448C60.9681 23.9776 61.7795 24.261 62.6124 24.2428C63.2707 24.2387 63.9175 24.0701 64.4939 23.7522C65.0703 23.4343 65.5581 22.9773 65.9128 22.4228L69.1519 24.7973Z" fill="#DDDDDD"/>
<path d="M79.5004 16.0832C77.1881 16.0832 75.8007 17.6272 75.8007 19.8769C75.8007 22.1265 77.1876 23.6719 79.5004 23.6719C81.8131 23.6719 83.2034 22.1304 83.2034 19.8769C83.2034 17.6233 81.8155 16.0832 79.5004 16.0832ZM87.4609 27.3735H83.2034V25.3984H83.1403C82.6062 26.1168 81.9134 26.7022 81.1159 27.109C80.3185 27.5158 79.4378 27.7329 78.5427 27.7435C74.0992 27.7435 71.1722 24.5366 71.1722 20.0016C71.1722 15.8366 73.7625 12.0121 78.0205 12.0121C79.9344 12.0121 81.7221 12.5358 82.7708 13.9872H82.8315V5.40234H87.4604L87.4609 27.3735Z" fill="#DDDDDD"/>
<path d="M118.681 27.3824H114.057V20.1401C114.057 18.4131 114.026 16.1899 111.651 16.1899C109.243 16.1899 108.874 18.0715 108.874 20.0143V27.3819H104.25V12.4888H108.689V14.5241H108.751C109.196 13.7644 109.838 13.1395 110.609 12.7158C111.38 12.2922 112.252 12.0857 113.132 12.1183C117.819 12.1183 118.683 15.2014 118.683 19.2123L118.681 27.3824ZM99.0315 10.453C98.5007 10.4531 97.9818 10.2958 97.5404 10.001C97.099 9.70616 96.755 9.28708 96.5518 8.79673C96.3486 8.30638 96.2953 7.76679 96.3988 7.24618C96.5023 6.72557 96.7578 6.24733 97.133 5.87194C97.5083 5.49655 97.9864 5.24087 98.507 5.13722C99.0276 5.03358 99.5672 5.08663 100.058 5.28966C100.548 5.4927 100.967 5.8366 101.262 6.27788C101.557 6.71916 101.715 7.238 101.715 7.76879C101.715 8.12122 101.645 8.47021 101.511 8.79584C101.376 9.12147 101.178 9.41735 100.929 9.6666C100.68 9.91585 100.384 10.1136 100.058 10.2485C99.7329 10.3834 99.3839 10.4529 99.0315 10.453ZM101.344 27.3824H96.7144V12.4888H101.344V27.3824ZM120.987 0.790945H94.3906C93.7869 0.784132 93.2052 1.01726 92.7733 1.4391C92.3415 1.86093 92.0948 2.43697 92.0874 3.04062V29.7472C92.0945 30.3512 92.3411 30.9276 92.7729 31.3499C93.2048 31.7721 93.7866 32.0057 94.3906 31.9993H120.987C121.592 32.0069 122.175 31.774 122.609 31.3517C123.043 30.9294 123.291 30.3524 123.299 29.7472V3.03869C123.29 2.43384 123.042 1.85715 122.609 1.43533C122.175 1.0135 121.592 0.78104 120.987 0.789017" fill="#DDDDDD"/>
<path d="M126.851 27.9636C126.288 27.969 125.751 28.197 125.356 28.5978C124.961 28.9985 124.741 29.5394 124.743 30.102C124.746 30.6647 124.971 31.2034 125.37 31.6003C125.769 31.9973 126.309 32.2201 126.872 32.2201C127.434 32.2201 127.974 31.9973 128.373 31.6003C128.772 31.2034 128.997 30.6647 129 30.102C129.002 29.5394 128.782 28.9985 128.387 28.5978C127.992 28.197 127.455 27.969 126.892 27.9636H126.851ZM126.851 31.9764C126.482 31.9826 126.119 31.8791 125.809 31.6792C125.499 31.4793 125.255 31.1918 125.108 30.8532C124.961 30.5146 124.918 30.1401 124.984 29.7769C125.05 29.4137 125.222 29.0783 125.479 28.813C125.735 28.5477 126.065 28.3644 126.425 28.2864C126.786 28.2084 127.162 28.2391 127.505 28.3747C127.849 28.5102 128.144 28.7445 128.354 29.048C128.564 29.3514 128.68 29.7103 128.686 30.0794C128.686 30.09 128.686 30.1001 128.686 30.1107C128.696 30.5948 128.514 31.0632 128.179 31.4129C127.844 31.7626 127.384 31.965 126.9 31.9755H126.852" fill="#DDDDDD"/>
</g>
<defs>
<clipPath id="clip0">
<rect width="128.864" height="31.4694" fill="white" transform="translate(0.135498 0.788818)"/>
</clipPath>
</defs>
</svg>
