<svg width="110" height="34" viewBox="0 0 110 34" fill="none" xmlns="http://www.w3.org/2000/svg">
<path d="M0.966309 24.1877V1.26025H4.99379V24.1877H0.966309Z" fill="#DDDDDD"/>
<path d="M15.3032 7.55493C10.1394 7.55493 6.56604 11.5252 6.56604 16.0696C6.56604 21.1413 10.4535 24.6353 15.3433 24.6353C19.9841 24.6353 24.0112 21.2056 24.0112 16.0586C24.0112 11.7304 20.6741 7.55493 15.3032 7.55493ZM15.2558 11.4401C17.9581 11.4401 19.9472 13.5437 19.9472 16.0842C19.9472 18.7778 17.7542 20.7427 15.3287 20.7427C12.4628 20.7427 10.6592 18.4712 10.6592 16.0914C10.6592 13.4829 12.6955 11.4401 15.2558 11.4401Z" fill="#DDDDDD"/>
<path d="M34.1303 7.55493C28.9665 7.55493 25.3931 11.5252 25.3931 16.0696C25.3931 21.1413 29.2806 24.6353 34.1704 24.6353C38.8111 24.6353 42.8383 21.2056 42.8383 16.0586C42.8383 13.0276 41.5257 11.6828 41.5257 11.6828L42.642 11.3V8.03133H36.9218C36.9218 8.03133 35.6817 7.55493 34.1303 7.55493ZM34.0829 11.4401C36.7852 11.4401 38.7743 13.5437 38.7743 16.0842C38.7743 18.7778 36.5813 20.7427 34.1558 20.7427C31.2899 20.7427 29.4863 18.4712 29.4863 16.0914C29.4863 13.4829 31.5226 11.4401 34.0829 11.4401Z" fill="#DDDDDD"/>
<path d="M38.7458 25.3083C38.7458 28.002 36.5528 29.9815 34.1273 29.9815C31.2614 29.9815 29.4505 27.6881 29.4505 25.3083H25.3646C25.3646 30.3801 29.2521 33.874 34.1419 33.874C38.7826 33.874 42.8097 30.4554 42.8097 25.3083H38.7458Z" fill="#DDDDDD"/>
<path d="M44.4514 24.1879V8.03125H48.4788V24.1879H44.4514Z" fill="#DDDDDD"/>
<path d="M52.3896 24.1878V11.6501H50.23V8.03121H52.3896V3.06982H56.4171V8.03121H58.6352V11.6501H56.4171V24.1878H52.3896Z" fill="#DDDDDD"/>
<path d="M49.1238 3.44238C49.1238 4.91531 47.9298 6.10936 46.4568 6.10936C44.9839 6.10936 43.7899 4.91531 43.7899 3.44238C43.7899 1.96944 44.9839 0.775391 46.4568 0.775391C47.9298 0.775391 49.1238 1.96944 49.1238 3.44238Z" fill="#DDDDDD"/>
<path d="M67.6896 7.5437C62.5014 7.5437 59.1567 11.516 59.1567 16.2152C59.1567 21.0713 62.5125 24.6459 67.7735 24.6459C72.6811 24.6459 75.0952 21.5815 75.0952 21.5815L72.4029 18.8856C72.4029 18.8856 70.3701 21.0781 67.8246 21.0781C65.7026 21.0781 64.006 19.8937 63.414 17.7218H75.9634V16.6128C75.9634 12.1877 73.4022 7.5437 67.6896 7.5437ZM67.5619 11.0896C69.4172 11.0896 71.3146 12.0822 71.739 14.4532H63.3046C63.6387 12.7865 65.0967 11.0896 67.5619 11.0896Z" fill="#DDDDDD"/>
<path d="M86.0376 24.6481C80.8347 24.6481 77.2896 20.6854 77.2896 16.0131C77.2896 11.1913 81.2962 7.54077 86.0209 7.54077C90.5883 7.54077 92.9262 10.7651 92.9262 10.7651L90.1167 13.5619C90.1167 13.5619 88.4892 11.4591 86.0018 11.4591C83.2449 11.4591 81.3598 13.5681 81.3598 16.0749C81.3598 18.7219 83.3651 20.7527 85.9708 20.7527C88.4983 20.7527 90.1128 18.6534 90.1128 18.6534L92.9504 21.4487C92.9504 21.4487 90.6353 24.6481 86.0376 24.6481Z" fill="#DDDDDD"/>
<path d="M94.4156 24.1994V1.2019H98.4431V9.65129C98.4431 9.65129 99.9852 7.54072 103.34 7.54072C107.557 7.54072 110 10.6757 110 14.6852V24.1994H105.973V15.2939C105.973 12.6002 104.296 11.4827 102.438 11.4827C100.321 11.4827 98.4431 12.6873 98.4431 15.5024V24.1994H94.4156Z" fill="#DDDDDD"/>
</svg>
