<svg width="157" height="33" viewBox="0 0 157 33" fill="none" xmlns="http://www.w3.org/2000/svg">
<g clip-path="url(#clip0)">
<path d="M55.418 19.007L54.4823 21.6163H54.4043C54.2483 21.0279 53.9624 20.1325 53.4945 19.0581L48.4778 6.65115H43.5651V26.4256H46.8142V14.2232C46.8142 13.4558 46.8142 12.586 46.7882 11.5116C46.7622 10.9744 46.7103 10.5651 46.6843 10.2581H46.7622C46.9182 11.0256 47.1002 11.5884 47.2301 11.9465L53.2606 26.3744H55.548L61.5265 11.8186C61.6565 11.486 61.7864 10.8209 61.9164 10.2581H61.9944C61.9164 11.7163 61.8644 13.0209 61.8384 13.8139V26.3488H65.2955V6.59998H60.5647L55.418 19.007ZM68.5707 12.1767H71.9498V26.3488H68.5707V12.1767ZM70.2863 6.19068C69.7144 6.19068 69.2465 6.39533 68.8566 6.75347C68.4667 7.11161 68.2588 7.57208 68.2588 8.13487C68.2588 8.67208 68.4667 9.13254 68.8566 9.49068C69.2465 9.84882 69.7144 10.0279 70.2863 10.0279C70.8581 10.0279 71.352 9.82324 71.7159 9.49068C72.1058 9.13254 72.3137 8.67208 72.3137 8.13487C72.3137 7.59766 72.1058 7.13719 71.7159 6.75347C71.378 6.39533 70.8841 6.19068 70.2863 6.19068ZM83.9328 12.0488C83.3089 11.9209 82.6591 11.8442 82.0353 11.8442C80.5017 11.8442 79.098 12.1767 77.9283 12.8418C76.7586 13.507 75.8228 14.4279 75.225 15.5791C74.6012 16.7558 74.2892 18.1116 74.2892 19.6721C74.2892 21.0279 74.6012 22.2302 75.199 23.3302C75.7968 24.4046 76.6286 25.2744 77.7464 25.8628C78.8121 26.4511 80.0598 26.7581 81.4634 26.7581C83.075 26.7581 84.4527 26.4256 85.5444 25.8116L85.5704 25.786V22.7163L85.4404 22.8186C84.9465 23.1767 84.3747 23.4837 83.8028 23.6628C83.205 23.8674 82.6591 23.9697 82.1912 23.9697C80.8396 23.9697 79.7738 23.586 79.02 22.7418C78.2402 21.9232 77.8503 20.7977 77.8503 19.3907C77.8503 17.9325 78.2402 16.7814 79.046 15.9372C79.8518 15.093 80.9175 14.6581 82.2172 14.6581C83.3089 14.6581 84.4267 15.0163 85.4404 15.7325L85.5704 15.8349V12.586L85.5444 12.5604C85.1025 12.3814 84.6086 12.1767 83.9328 12.0488ZM95.0839 11.9465C94.2522 11.9465 93.4724 12.2023 92.7965 12.7395C92.2247 13.2 91.8348 13.8651 91.4969 14.6581H91.4709V12.1767H88.0917V26.3488H91.4709V19.1093C91.4709 17.8814 91.7308 16.8581 92.3027 16.1163C92.8745 15.3488 93.6023 14.9651 94.4861 14.9651C94.798 14.9651 95.1099 15.0418 95.4998 15.093C95.8637 15.1953 96.1237 15.2977 96.3056 15.4256L96.4356 15.5279V12.2023L96.3576 12.1767C96.1237 12.0232 95.6558 11.9465 95.0839 11.9465ZM104.286 11.8698C101.92 11.8698 100.023 12.5605 98.697 13.9163C97.3454 15.2721 96.6955 17.1395 96.6955 19.493C96.6955 21.693 97.3714 23.4837 98.671 24.7884C99.9707 26.0674 101.738 26.7325 103.948 26.7325C106.261 26.7325 108.107 26.0418 109.432 24.6604C110.784 23.2791 111.434 21.4372 111.434 19.1604C111.434 16.9093 110.81 15.1186 109.536 13.8139C108.315 12.5093 106.521 11.8698 104.286 11.8698ZM106.989 22.7674C106.365 23.5604 105.377 23.9442 104.156 23.9442C102.934 23.9442 101.946 23.5604 101.244 22.7163C100.543 21.9232 100.205 20.7721 100.205 19.3139C100.205 17.8046 100.569 16.6535 101.244 15.8349C101.946 15.0163 102.908 14.607 104.13 14.607C105.325 14.607 106.261 14.9907 106.937 15.7837C107.613 16.5767 107.977 17.7279 107.977 19.2372C107.925 20.7721 107.639 21.9744 106.989 22.7674ZM118.972 18.0604C117.906 17.6256 117.23 17.293 116.918 17.0116C116.658 16.7558 116.528 16.3977 116.528 15.9372C116.528 15.5535 116.684 15.1698 117.074 14.9139C117.464 14.6581 117.906 14.5302 118.556 14.5302C119.128 14.5302 119.726 14.6325 120.298 14.786C120.869 14.9395 121.389 15.1698 121.805 15.4767L121.935 15.5791V12.4581L121.857 12.4325C121.467 12.2791 120.947 12.1256 120.324 11.9977C119.7 11.8953 119.128 11.8442 118.66 11.8442C117.048 11.8442 115.723 12.2279 114.683 13.0721C113.643 13.8651 113.149 14.9395 113.149 16.193C113.149 16.8581 113.253 17.4465 113.487 17.9325C113.721 18.4186 114.059 18.8791 114.527 19.2628C114.995 19.6209 115.671 20.0302 116.606 20.4139C117.386 20.7465 117.984 21.0023 118.348 21.207C118.712 21.4116 118.946 21.6418 119.128 21.8209C119.258 22.0256 119.336 22.2814 119.336 22.6139C119.336 23.5604 118.608 24.0209 117.126 24.0209C116.554 24.0209 115.957 23.9186 115.255 23.6884C114.553 23.4581 113.903 23.1256 113.357 22.7418L113.227 22.6395V25.8884L113.305 25.9139C113.799 26.1442 114.397 26.2977 115.125 26.4767C115.853 26.6046 116.502 26.707 117.074 26.707C118.816 26.707 120.246 26.3232 121.259 25.4791C122.299 24.6604 122.845 23.6116 122.845 22.2558C122.845 21.3093 122.585 20.4651 122.013 19.8256C121.259 19.2116 120.324 18.5721 118.972 18.0604ZM131.761 11.8698C129.395 11.8698 127.498 12.5605 126.172 13.9163C124.846 15.2721 124.171 17.1395 124.171 19.493C124.171 21.693 124.846 23.4837 126.146 24.7884C127.446 26.0674 129.213 26.7325 131.423 26.7325C133.736 26.7325 135.582 26.0418 136.907 24.6604C138.259 23.2791 138.909 21.4372 138.909 19.1604C138.909 16.9093 138.285 15.1186 137.011 13.8139C135.79 12.5093 133.996 11.8698 131.761 11.8698ZM134.438 22.7674C133.814 23.5604 132.826 23.9442 131.605 23.9442C130.357 23.9442 129.395 23.5604 128.693 22.7163C127.992 21.9232 127.654 20.7721 127.654 19.3139C127.654 17.8046 128.018 16.6535 128.693 15.8349C129.395 15.0163 130.357 14.607 131.579 14.607C132.748 14.607 133.71 14.9907 134.386 15.7837C135.062 16.5767 135.426 17.7279 135.426 19.2372C135.426 20.7721 135.088 21.9744 134.438 22.7674ZM156.974 14.9139V12.1767H153.569V7.98138L153.465 8.00696L150.242 8.95347L150.164 8.97905V12.1767H145.069V10.386C145.069 9.56743 145.277 8.92789 145.641 8.51859C146.005 8.10929 146.551 7.90464 147.227 7.90464C147.695 7.90464 148.188 8.00696 148.734 8.23719L148.864 8.31394V5.42324L148.786 5.39766C148.318 5.24417 147.695 5.14185 146.889 5.14185C145.875 5.14185 144.991 5.37208 144.185 5.7558C143.38 6.19068 142.782 6.77905 142.34 7.57208C141.898 8.33952 141.664 9.20929 141.664 10.207V12.1767H139.299V14.8884H141.664V26.3488H145.069V14.9139H150.164V22.2046C150.164 25.1977 151.594 26.707 154.453 26.707C154.921 26.707 155.415 26.6302 155.882 26.5535C156.376 26.4511 156.74 26.3232 156.948 26.2209L156.974 26.1953V23.4581L156.844 23.5604C156.636 23.6884 156.454 23.7907 156.142 23.8674C155.882 23.9442 155.649 23.9697 155.467 23.9697C154.791 23.9697 154.323 23.8163 153.985 23.4325C153.673 23.0744 153.517 22.486 153.517 21.6163V14.9139H156.974Z" fill="#DDDDDD"/>
<path d="M0 0H15.9339V15.6814H0V0Z" fill="#DDDDDD"/>
<path d="M17.5974 0H33.5314V15.6814H17.5974V0Z" fill="#DDDDDD"/>
<path d="M0 17.3186H15.9339V33H0V17.3186Z" fill="#DDDDDD"/>
<path d="M17.5974 17.3186H33.5314V33H17.5974V17.3186Z" fill="#DDDDDD"/>
</g>
<defs>
<clipPath id="clip0">
<rect width="157" height="33" fill="white"/>
</clipPath>
</defs>
</svg>
