<svg width="121" height="34" viewBox="0 0 121 34" fill="none" xmlns="http://www.w3.org/2000/svg">
<g clip-path="url(#clip0)">
<path d="M17.4928 31.3689C15.6875 31.6864 13.8505 31.7816 11.9501 32.0352L6.15383 15.0302V32.765C4.34854 32.9553 2.70157 33.2091 0.991211 33.4629V0.975586H5.80564L12.3935 19.4086V0.975586H17.4928V31.3689ZM27.4699 12.8728C29.4337 12.8728 32.4426 12.7776 34.2479 12.7776V17.8536C31.999 17.8536 29.3703 17.8536 27.4699 17.9488V25.4997C30.4472 25.3094 33.4245 25.0554 36.4333 24.9602V29.8457L22.4021 30.9563V0.975586H36.4333V6.05174H27.4699V12.8728ZM55.2787 6.05185H50.021V29.4021C48.3106 29.4021 46.6003 29.4021 44.9536 29.4653V6.05185H39.6959V0.975586H55.2789L55.2787 6.05185ZM63.5136 12.5239H70.4501V17.5999H63.5136V29.1166H58.5406V0.975586H72.6989V6.05174H63.5136V12.5239ZM80.9338 24.6748C83.8161 24.7381 86.7299 24.9605 89.5489 25.1189V30.1317C85.0197 29.8459 80.4904 29.5608 75.8662 29.4653V0.975586H80.9338V24.6748ZM93.8247 30.4807C95.44 30.576 97.1504 30.6712 98.7973 30.8613V0.975586H93.8247V30.4807ZM121 0.975586L114.571 16.4261L121 33.4629C119.1 33.2091 117.199 32.8601 115.299 32.5428L111.657 23.1521L107.951 31.7816C106.114 31.4641 104.34 31.3689 102.504 31.1151L109.028 16.2356L103.137 0.975586H108.584L111.91 9.50987L115.457 0.975586H121V0.975586Z" fill="#DDDDDD"/>
</g>
<defs>
<clipPath id="clip0">
<rect width="120.009" height="32.4873" fill="white" transform="translate(0.991211 0.975586)"/>
</clipPath>
</defs>
</svg>
