<svg width="116" height="32" viewBox="0 0 116 32" fill="none" xmlns="http://www.w3.org/2000/svg">
<path d="M14.1821 0.814245H5.18278C4.56685 0.814245 4.04317 1.26177 3.94707 1.86991L0.307302 24.9467C0.23491 25.4018 0.587648 25.8125 1.04946 25.8125H5.3459C5.96172 25.8125 6.48541 25.3652 6.5815 24.7559L7.56314 18.5318C7.65794 17.9224 8.18292 17.475 8.79745 17.475H11.6464C17.5745 17.475 20.9958 14.6063 21.8894 8.92163C22.292 6.43456 21.9064 4.4805 20.7418 3.11199C19.4628 1.60908 17.1942 0.814245 14.1821 0.814245ZM15.2204 9.24275C14.7283 12.472 12.2609 12.472 9.87519 12.472H8.51722L9.46989 6.44123C9.52653 6.07668 9.84227 5.80825 10.2108 5.80825H10.8331C12.4582 5.80825 13.9914 5.80825 14.7835 6.73454C15.2559 7.2873 15.4007 8.10838 15.2204 9.24275Z" fill="#DDDDDD"/>
<path d="M41.0829 9.13877H36.7735C36.4064 9.13877 36.0893 9.40722 36.0325 9.77175L35.8419 10.9771L35.5405 10.5402C34.6075 9.18607 32.527 8.7335 30.4505 8.7335C25.6883 8.7335 21.6209 12.3403 20.8287 17.4C20.4169 19.9238 21.0025 22.3372 22.4341 24.0201C23.7474 25.5676 25.6264 26.2124 27.8623 26.2124C31.6994 26.2124 33.8272 23.7453 33.8272 23.7453L33.6351 24.9427C33.5626 25.4006 33.9154 25.8112 34.3747 25.8112H38.2563C38.8735 25.8112 39.3946 25.3637 39.4921 24.7546L41.8212 10.0046C41.895 9.5506 41.5436 9.13877 41.0829 9.13877ZM35.0759 17.5263C34.6602 19.9883 32.706 21.6412 30.2138 21.6412C28.9624 21.6412 27.9622 21.2397 27.32 20.4791C26.6832 19.7238 26.441 18.6487 26.6437 17.4512C27.0318 15.0103 29.019 13.3036 31.4729 13.3036C32.6969 13.3036 33.6916 13.7102 34.347 14.4773C35.0037 15.2523 35.264 16.334 35.0759 17.5263Z" fill="#DDDDDD"/>
<path d="M64.0347 9.13884H59.7041C59.2909 9.13884 58.9027 9.34412 58.6685 9.68764L52.6956 18.4857L50.1639 10.0311C50.0047 9.50199 49.5165 9.13884 48.9639 9.13884H44.7083C44.191 9.13884 43.8319 9.6441 43.9963 10.131L48.7664 24.1295L44.2819 30.4603C43.9291 30.9589 44.2844 31.6448 44.8939 31.6448H49.2192C49.6296 31.6448 50.014 31.4447 50.2468 31.1078L64.6505 10.3166C64.9953 9.81913 64.6414 9.13884 64.0347 9.13884Z" fill="#DDDDDD"/>
<path d="M78.3728 0.814245H69.3721C68.7576 0.814245 68.2338 1.26177 68.1377 1.86991L64.4979 24.9467C64.4257 25.4018 64.7783 25.8125 65.2376 25.8125H69.8564C70.2853 25.8125 70.6526 25.4995 70.7196 25.073L71.7525 18.5318C71.8472 17.9224 72.3724 17.475 72.9869 17.475H75.8345C81.7638 17.475 85.1839 14.6063 86.0787 8.92163C86.4829 6.43456 86.0946 4.4805 84.93 3.11199C83.6522 1.60908 81.3849 0.814245 78.3728 0.814245ZM79.4112 9.24275C78.9203 12.472 76.4531 12.472 74.0659 12.472H72.7093L73.6634 6.44123C73.7199 6.07668 74.0329 5.80825 74.4027 5.80825H75.0252C76.6491 5.80825 78.1834 5.80825 78.9754 6.73454C79.4479 7.2873 79.5913 8.10838 79.4112 9.24275Z" fill="#DDDDDD"/>
<path d="M105.272 9.13877H100.966C100.596 9.13877 100.281 9.40722 100.226 9.77175L100.035 10.9771L99.7325 10.5402C98.7996 9.18607 96.7204 8.7335 94.6439 8.7335C89.8815 8.7335 85.8156 12.3403 85.0233 17.4C84.6128 19.9238 85.1957 22.3372 86.6275 24.0201C87.9434 25.5676 89.8197 26.2124 92.0554 26.2124C95.8926 26.2124 98.0204 23.7453 98.0204 23.7453L97.8282 24.9427C97.756 25.4006 98.1085 25.8112 98.5706 25.8112H102.451C103.066 25.8112 103.589 25.3637 103.686 24.7546L106.016 10.0046C106.087 9.5506 105.734 9.13877 105.272 9.13877ZM99.2652 17.5263C98.852 19.9883 96.8953 21.6412 94.4032 21.6412C93.1542 21.6412 92.1515 21.2397 91.5093 20.4791C90.8727 19.7238 90.633 18.6487 90.8331 17.4512C91.2238 15.0103 93.2083 13.3036 95.6625 13.3036C96.8862 13.3036 97.8809 13.7102 98.5363 14.4773C99.1955 15.2523 99.456 16.334 99.2652 17.5263Z" fill="#DDDDDD"/>
<path d="M110.353 1.44737L106.659 24.9467C106.587 25.4018 106.94 25.8125 107.399 25.8125H111.112C111.73 25.8125 112.253 25.3652 112.348 24.7559L115.99 1.68046C116.063 1.22498 115.71 0.813148 115.251 0.813148H111.093C110.725 0.814245 110.41 1.08303 110.353 1.44737Z" fill="#DDDDDD"/>
</svg>
