<svg width="134" height="35" viewBox="0 0 134 35" fill="none" xmlns="http://www.w3.org/2000/svg">
<path fill-rule="evenodd" clip-rule="evenodd" d="M58.5015 22.9468V5.46467C58.5015 2.54525 56.1254 0.158203 53.1812 0.158203H5.43737C2.51041 0.158203 0.117188 2.52808 0.117188 5.46467V22.9468C0.117188 25.8662 2.49319 28.2533 5.43737 28.2533H40.0099L49.3762 34.4871L47.4995 28.2533H53.2157C56.1254 28.2361 58.5186 25.8662 58.5015 22.9468ZM10.2066 17.7262C10.4821 18.207 10.8436 18.5849 11.3085 18.8253C11.7734 19.0829 12.2727 19.2031 12.8409 19.2031C13.409 19.2031 13.9255 19.0657 14.3904 18.8081C14.8553 18.5333 15.2341 18.1555 15.4923 17.6747C15.7678 17.1767 15.9056 16.6271 15.9056 15.9917V8.14366C15.9056 8.02345 15.94 7.93758 16.0089 7.86889C16.0777 7.8002 16.1638 7.76585 16.2843 7.76585H18.1955C18.316 7.76585 18.4193 7.8002 18.4882 7.86889C18.5226 7.90323 18.557 7.95475 18.5742 7.9891C18.5915 8.04062 18.6087 8.09214 18.5915 8.14366V15.9746C18.5915 17.2282 18.3332 18.2757 17.8167 19.1344C17.3002 19.9759 16.6115 20.6113 15.7506 21.0062C14.8897 21.4184 13.9083 21.6073 12.8409 21.6073C11.7734 21.6073 10.8092 21.4012 9.93111 20.9891C9.05302 20.5769 8.36433 19.9415 7.8478 19.1C7.33128 18.2586 7.07302 17.211 7.07302 15.9574V8.14366C7.07302 8.04062 7.10746 7.95475 7.17633 7.88606C7.21076 7.85172 7.2452 7.81737 7.27963 7.8002C7.31406 7.78302 7.36572 7.76585 7.41737 7.76585H9.43181C9.55233 7.76585 9.65563 7.8002 9.70728 7.86889C9.75894 7.93758 9.79337 8.02345 9.79337 8.14366V15.9917C9.79337 16.6615 9.93111 17.2454 10.2066 17.7262ZM20.3993 19.0829C20.3993 19.1344 20.4165 19.2031 20.4337 19.2546C20.4682 19.3233 20.5026 19.392 20.537 19.4607C20.9675 20.1304 21.5529 20.6628 22.276 21.0406C22.9991 21.4184 23.8256 21.6073 24.7381 21.6073C25.4612 21.6073 26.1671 21.4699 26.8386 21.2123C27.5101 20.9376 28.0438 20.5426 28.4743 19.993C28.8875 19.4607 29.0941 18.8081 29.0941 18.0353C29.0941 17.2282 28.8358 16.4897 28.3193 15.8543C27.8028 15.2018 27.028 14.7381 25.9777 14.4118C25.84 14.3603 25.7195 14.3259 25.599 14.2916C25.4784 14.2573 25.3751 14.2229 25.289 14.2057C24.7725 14.0683 24.3937 13.9481 24.1527 13.8451C23.9116 13.7421 23.705 13.6219 23.5673 13.4845C23.4123 13.3299 23.3435 13.141 23.3435 12.8834C23.3435 12.5571 23.4812 12.2995 23.7567 12.0935C24.0322 11.8874 24.411 11.7843 24.893 11.7843C25.3579 11.7843 25.7367 11.8702 26.0466 12.0248C26.3565 12.1793 26.6492 12.4369 26.9419 12.7632C27.0452 12.8834 27.1313 12.9521 27.2346 12.9521C27.3035 12.9521 27.3896 12.9178 27.4757 12.8319L28.5603 11.9389C28.6809 11.8359 28.7497 11.75 28.7497 11.6641C28.7497 11.5954 28.6981 11.4924 28.612 11.355C28.1988 10.8398 27.6823 10.3933 27.0624 10.0499C26.4426 9.68923 25.7023 9.5175 24.8242 9.5175C24.015 9.5175 23.309 9.67205 22.6892 9.99834C22.0694 10.3246 21.6045 10.7368 21.2602 11.252C20.933 11.7672 20.7609 12.2824 20.7609 12.8147C20.7609 13.4673 20.8814 14.034 21.1396 14.4977C21.3979 14.9613 21.7767 15.3563 22.2932 15.6826C22.8097 16.0089 23.4812 16.3008 24.3249 16.5584C24.6864 16.6615 24.9103 16.7302 24.9619 16.7473C25.3751 16.8675 25.685 16.9706 25.8744 17.0565C26.081 17.1423 26.236 17.2454 26.3393 17.3999C26.4598 17.5545 26.5115 17.7605 26.5115 18.0353C26.5115 18.2929 26.4082 18.5333 26.2188 18.7394C26.0122 18.9455 25.7711 19.1 25.4612 19.2203C25.1685 19.3233 24.8414 19.392 24.5315 19.392C24.015 19.392 23.5845 19.2718 23.2402 19.0313C22.8958 18.7909 22.5687 18.4646 22.276 18.0525C22.1727 17.9151 22.0694 17.8464 21.9489 17.8464C21.88 17.8464 21.8111 17.8808 21.7423 17.9151L20.5543 18.7566C20.4509 18.8596 20.3993 18.9627 20.3993 19.0829ZM39.8377 18.104C39.9411 18.104 40.0099 18.1384 40.0616 18.2242L41.0085 19.3748C41.0774 19.4778 41.1291 19.5637 41.1291 19.6496C41.1291 19.7526 41.0774 19.8385 40.9913 19.9243C40.3026 20.5254 39.6311 20.9547 38.9424 21.2295C38.271 21.4871 37.5306 21.6245 36.7558 21.6245C35.7056 21.6245 34.707 21.3497 33.7772 20.8173C32.8475 20.2678 32.1071 19.5465 31.5562 18.6192C31.0052 17.6919 30.7297 16.6958 30.7297 15.6139C30.7297 14.5148 30.988 13.5016 31.5045 12.5915C32.021 11.6641 32.727 10.9429 33.6395 10.3933C34.552 9.84378 35.5678 9.58619 36.687 9.58619C37.5995 9.58619 38.4948 9.80944 39.3901 10.2559C40.2854 10.7024 41.0258 11.3722 41.6111 12.2824C42.1965 13.1925 42.4892 14.3088 42.4892 15.6311C42.4892 15.923 42.4548 16.1463 42.3859 16.2837C42.3171 16.4211 42.2138 16.5069 42.1104 16.5241C41.9899 16.5584 41.8005 16.5756 41.5595 16.5584H33.2951C33.4157 17.108 33.6567 17.5888 33.9838 18.001C34.311 18.4131 34.7242 18.7394 35.2063 18.9627C35.6884 19.1859 36.2049 19.3061 36.7558 19.3061C37.1863 19.3061 37.5478 19.2546 37.875 19.1687C38.1849 19.0829 38.4431 18.9798 38.6497 18.8596C38.8908 18.7222 39.1146 18.5677 39.3212 18.3959L39.5967 18.1899C39.6828 18.1212 39.7689 18.104 39.8377 18.104ZM35.2751 12.145C34.8275 12.3682 34.4487 12.6773 34.1216 13.0551C33.7944 13.4329 33.5534 13.8623 33.3812 14.3431H39.9411C39.6656 13.5875 39.2351 12.9693 38.667 12.5056C38.0988 12.0419 37.4273 11.8187 36.687 11.8187C36.2049 11.8015 35.7228 11.9217 35.2751 12.145ZM46.3115 9.67205H44.9858C44.7447 9.67205 44.6242 9.80944 44.6242 10.067V21.0234C44.6242 21.281 44.7447 21.4012 44.9858 21.4012H46.8797C47.1379 21.4012 47.2585 21.281 47.2585 21.0234V14.6007C47.2585 14.0168 47.3618 13.536 47.5856 13.141C47.8094 12.746 48.0849 12.4541 48.4465 12.2652C48.7908 12.0763 49.1696 11.9732 49.5656 11.9732C49.9616 11.9732 50.3232 12.0419 50.6675 12.1793C51.0119 12.3339 51.339 12.5056 51.6489 12.7117C51.7522 12.7804 51.8555 12.8319 51.9416 12.8319C52.0449 12.8319 52.1138 12.7804 52.1999 12.6773L53.0607 11.458C53.1296 11.3722 53.164 11.2863 53.164 11.2005C53.164 11.0802 53.0952 10.96 52.9574 10.8226C52.6131 10.5307 52.1654 10.2388 51.6145 9.964C51.0807 9.68923 50.4953 9.55184 49.8583 9.55184C49.2729 9.55184 48.7392 9.68923 48.2571 9.964C47.775 10.2388 47.379 10.6166 47.0691 11.1146L46.8797 10.1014C46.8452 9.91248 46.7936 9.79227 46.6903 9.74075C46.6042 9.68923 46.4837 9.67205 46.3115 9.67205Z" fill="#DDDDDD"/>
<path d="M61.8933 7.76599H71.7416C71.9826 7.76599 72.1032 7.8862 72.1032 8.12662V9.8611C72.1032 10.1015 71.9826 10.2389 71.7416 10.2389H68.1087V21.0407C68.1087 21.2812 67.9882 21.4014 67.7472 21.4014H65.7672C65.5261 21.4014 65.4056 21.2812 65.4056 21.0407V10.2217H61.876C61.635 10.2217 61.5145 10.1015 61.5145 9.84393V8.12662C61.5317 7.8862 61.6522 7.76599 61.8933 7.76599Z" fill="#DDDDDD"/>
<path d="M80.9012 18.104C81.0045 18.104 81.0734 18.1383 81.125 18.2242L82.072 19.3748C82.1409 19.4778 82.1925 19.5637 82.1925 19.6496C82.1925 19.7526 82.1409 19.8385 82.0548 19.9243C81.3661 20.5254 80.6946 20.9547 80.0059 21.2295C79.3172 21.5043 78.5941 21.6245 77.8193 21.6245C76.769 21.6245 75.7704 21.3497 74.8407 20.8173C73.9109 20.2678 73.1706 19.5465 72.6196 18.6192C72.0687 17.6918 71.7932 16.6958 71.7932 15.6139C71.7932 14.5148 72.0515 13.5016 72.568 12.5915C73.0845 11.6641 73.7904 10.9428 74.703 10.3933C75.6155 9.84378 76.6313 9.58618 77.7504 9.58618C78.663 9.58618 79.5755 9.80943 80.4536 10.2559C81.3489 10.7024 82.0892 11.3722 82.6746 12.2823C83.26 13.1925 83.5527 14.3088 83.5527 15.6311C83.5527 15.923 83.5183 16.1463 83.4494 16.2837C83.3805 16.421 83.2772 16.5069 83.1739 16.5241C83.0534 16.5584 82.864 16.5756 82.6229 16.5756H74.3758C74.4963 17.1251 74.7374 17.606 75.0645 18.0181C75.3916 18.4303 75.8049 18.7566 76.287 18.9798C76.769 19.2031 77.2856 19.3233 77.8537 19.3233C78.2842 19.3233 78.6457 19.2718 78.9729 19.1859C79.2828 19.1 79.541 18.997 79.7476 18.8768C79.9887 18.7394 80.2125 18.5848 80.4191 18.4131L80.6946 18.207C80.729 18.1212 80.8151 18.104 80.9012 18.104ZM76.3214 12.145C75.8737 12.3682 75.495 12.6773 75.1678 13.0551C74.8407 13.4329 74.5996 13.8623 74.4275 14.3431H81.0045C80.729 13.5875 80.2986 12.9693 79.7304 12.5056C79.1623 12.0419 78.4908 11.8187 77.7332 11.8187C77.2511 11.8015 76.7518 11.9217 76.3214 12.145Z" fill="#DDDDDD"/>
<path d="M84.3447 19.2546C84.3275 19.203 84.3103 19.1344 84.3103 19.0828C84.3103 18.9626 84.362 18.8596 84.4653 18.7565L85.636 17.8636C85.6877 17.812 85.7566 17.7777 85.8427 17.7949C85.9632 17.7949 86.0837 17.8635 86.1698 18.0009C86.4625 18.4131 86.7896 18.7394 87.134 18.9798C87.4783 19.2202 87.9087 19.3404 88.4253 19.3404C88.7524 19.3404 89.0623 19.2889 89.355 19.1687C89.6649 19.0485 89.9232 18.8939 90.1126 18.6879C90.302 18.4818 90.4053 18.2414 90.4053 17.9838C90.4053 17.709 90.3536 17.5029 90.2331 17.3484C90.1126 17.1938 89.9576 17.0908 89.7682 17.0049C89.5788 16.919 89.2689 16.816 88.8557 16.6958C88.7868 16.6786 88.5802 16.6271 88.2187 16.5069C87.375 16.2493 86.7035 15.9573 86.187 15.6311C85.6705 15.3048 85.2917 14.9098 85.0334 14.4461C84.7752 13.9824 84.6547 13.4157 84.6547 12.7632C84.6547 12.2308 84.8268 11.7156 85.154 11.2004C85.4811 10.6852 85.9632 10.2731 86.583 9.94679C87.2028 9.6205 87.9087 9.46594 88.718 9.46594C89.5788 9.46594 90.3364 9.63767 90.9562 9.99831C91.5761 10.3589 92.0926 10.7883 92.5058 11.3035C92.6091 11.4237 92.6435 11.5267 92.6435 11.6126C92.6435 11.6984 92.5747 11.8015 92.4541 11.8873L91.3694 12.7803C91.2661 12.849 91.1973 12.9005 91.1284 12.9005C91.0423 12.9005 90.939 12.8319 90.8357 12.7116C90.5602 12.3854 90.2503 12.1449 89.9404 11.9732C89.6305 11.8186 89.2345 11.7328 88.7868 11.7328C88.3047 11.7328 87.926 11.8358 87.6505 12.0419C87.375 12.248 87.2373 12.5056 87.2373 12.8319C87.2373 13.0894 87.3061 13.2784 87.4611 13.4329C87.616 13.5875 87.8054 13.7077 88.0465 13.7935C88.2875 13.8966 88.6835 13.9996 89.1828 14.1542C89.2861 14.1713 89.3894 14.2057 89.4927 14.24C89.6133 14.2744 89.7338 14.3087 89.8715 14.3603C90.9218 14.6694 91.6966 15.1502 92.2131 15.8028C92.7296 16.4554 92.9879 17.1766 92.9879 17.9838C92.9879 18.7394 92.7813 19.3919 92.368 19.9415C91.9548 20.4738 91.4039 20.886 90.7324 21.1608C90.0609 21.4355 89.355 21.5729 88.6319 21.5557C87.7194 21.5557 86.8929 21.3668 86.1698 20.989C85.4467 20.6112 84.8785 20.0789 84.4308 19.4091C84.4136 19.3919 84.3792 19.3233 84.3447 19.2546Z" fill="#DDDDDD"/>
<path d="M99.3068 9.75812C99.5651 9.75812 99.7028 9.8955 99.7028 10.1531V11.6643C99.7028 11.7845 99.6684 11.8876 99.5823 11.9563C99.4962 12.025 99.3929 12.0593 99.2724 12.0593H97.9466V17.7779C97.9466 18.1901 98.0155 18.5164 98.1704 18.774C98.3254 19.0144 98.5837 19.1518 98.9452 19.1689L99.2379 19.1861C99.4445 19.2033 99.5823 19.2548 99.6339 19.3578C99.6856 19.4609 99.72 19.5811 99.7028 19.7013V21.0064C99.7028 21.3156 99.4618 21.4701 98.9969 21.4701C98.2737 21.4701 97.6367 21.3327 97.0858 21.058C96.5176 20.7832 96.0871 20.3882 95.7772 19.873C95.4673 19.3578 95.3124 18.7568 95.3124 18.0699V12.0765H94.2449C94.1416 12.0765 94.0383 12.0421 93.9694 11.9734C93.8833 11.9047 93.8489 11.8017 93.8489 11.6815V10.1874C93.8489 10.0501 93.8833 9.94702 93.9694 9.86116C94.0383 9.79247 94.1416 9.75812 94.2449 9.75812H95.3124V7.83474C95.3124 7.69736 95.3296 7.61149 95.3812 7.5428C95.4329 7.47411 95.5362 7.43976 95.6739 7.38824L97.5506 6.83871C97.5851 6.82153 97.6195 6.82153 97.6539 6.82153C97.6884 6.82153 97.74 6.83871 97.7744 6.85588C97.8089 6.87305 97.8433 6.9074 97.8605 6.94174C97.9122 7.01044 97.9294 7.11347 97.9294 7.23369V9.74095L99.3068 9.75812Z" fill="#DDDDDD"/>
<path d="M102.217 5.48181H103.818C104.162 5.48181 104.334 5.67071 104.334 6.06569V7.67996C104.334 7.86886 104.3 8.00625 104.214 8.07494C104.128 8.14363 103.99 8.19515 103.818 8.19515H102.217C101.838 8.19515 101.648 8.02342 101.648 7.67996V6.06569C101.648 5.67071 101.838 5.48181 102.217 5.48181ZM101.838 9.77507C101.907 9.70637 101.993 9.67203 102.096 9.67203H104.042C104.145 9.67203 104.231 9.70637 104.3 9.77507C104.369 9.84376 104.403 9.92962 104.403 10.0498V21.0234C104.403 21.2638 104.283 21.4012 104.042 21.4012H102.096C101.855 21.4012 101.734 21.281 101.734 21.0234V10.0498C101.734 9.92962 101.769 9.84376 101.838 9.77507Z" fill="#DDDDDD"/>
<path d="M108.948 21.2983C108.845 21.367 108.707 21.4013 108.587 21.4013H106.9C106.641 21.4013 106.504 21.2639 106.504 21.0063V10.0499C106.504 9.79234 106.641 9.65496 106.9 9.65496H108.139C108.26 9.65496 108.398 9.70648 108.484 9.79234C108.587 9.87821 108.656 9.99842 108.69 10.1186L108.845 11.441C109.293 10.8055 109.827 10.3419 110.464 10.0328C111.101 9.72365 111.789 9.56909 112.495 9.56909C113.201 9.56909 113.89 9.74082 114.561 10.1015C115.233 10.4621 115.784 11.0116 116.231 11.7501C116.662 12.4885 116.886 13.4158 116.886 14.5149V20.9891C116.886 21.2467 116.765 21.367 116.524 21.367H114.682C114.424 21.367 114.286 21.2467 114.286 20.9891V14.6008C114.286 14.1543 114.183 13.7421 113.959 13.3472C113.735 12.9522 113.425 12.6259 113.046 12.3855C112.65 12.145 112.22 12.0248 111.738 12.0248C111.324 12.0248 110.911 12.1279 110.515 12.3511C110.102 12.5744 109.775 12.8835 109.517 13.2956C109.258 13.7078 109.121 14.1886 109.121 14.721V20.972C109.103 21.1265 109.052 21.2124 108.948 21.2983Z" fill="#DDDDDD"/>
<path d="M129.661 22.5003C129.144 23.4277 128.456 24.1318 127.56 24.6126C126.665 25.0935 125.632 25.3167 124.478 25.3167C123.704 25.3167 122.946 25.1793 122.206 24.9217C121.448 24.6641 120.811 24.3035 120.277 23.857C120.174 23.7711 120.122 23.6853 120.122 23.5822C120.122 23.5136 120.157 23.4277 120.243 23.3075L121.018 22.1912C121.104 22.071 121.207 22.0023 121.345 22.0023C121.448 22.0023 121.552 22.0367 121.672 22.1225C122.481 22.6892 123.48 22.964 124.702 22.964C125.322 22.964 125.873 22.8266 126.355 22.5519C126.837 22.2943 127.233 21.8993 127.492 21.4184C127.767 20.9376 127.905 20.3881 127.905 19.7698V19.7355C127.388 20.285 126.837 20.6972 126.269 20.9719C125.701 21.2467 125.029 21.3841 124.272 21.3841C123.256 21.3841 122.292 21.1437 121.414 20.6285C120.518 20.1305 119.813 19.4264 119.279 18.5334C118.745 17.6404 118.47 16.6272 118.487 15.4938C118.487 14.429 118.745 13.433 119.279 12.5228C119.813 11.6126 120.518 10.8742 121.414 10.3247C122.309 9.77514 123.256 9.50037 124.272 9.50037C125.735 9.50037 126.992 10.0671 128.042 11.1833L128.197 10.1014C128.215 9.92969 128.266 9.80948 128.335 9.74079C128.404 9.6721 128.507 9.63775 128.645 9.63775H130.126C130.35 9.63775 130.47 9.77513 130.47 10.0327V19.0486C130.418 20.4396 130.16 21.573 129.661 22.5003ZM127.492 13.7249C127.182 13.1754 126.768 12.7289 126.235 12.4026C125.701 12.0763 125.116 11.9046 124.444 11.9046C123.755 11.9046 123.153 12.0763 122.619 12.4026C122.085 12.7289 121.689 13.1754 121.379 13.7421C121.087 14.3088 120.932 14.9099 120.932 15.5796C120.932 16.2837 121.087 16.9019 121.397 17.4515C121.706 18.001 122.137 18.4303 122.671 18.7395C123.204 19.0486 123.807 19.2031 124.461 19.2031C125.116 19.2031 125.701 19.0486 126.217 18.7223C126.734 18.396 127.147 17.9495 127.457 17.4C127.75 16.8332 127.905 16.2322 127.905 15.5796C127.939 14.8927 127.784 14.2745 127.492 13.7249Z" fill="#DDDDDD"/>
<path d="M132.657 9.67212C131.916 9.67212 131.314 10.2732 131.314 11.0116C131.314 11.7501 131.916 12.3511 132.657 12.3511C133.397 12.3511 134 11.7501 134 11.0116C134 10.2903 133.397 9.67212 132.657 9.67212ZM132.657 12.0763C132.089 12.0763 131.606 11.5955 131.606 11.0116C131.606 10.4277 132.089 9.94689 132.657 9.94689C133.225 9.94689 133.707 10.4106 133.707 11.0116C133.707 11.5955 133.225 12.0763 132.657 12.0763Z" fill="#DDDDDD"/>
<path d="M132.14 10.2904C132.14 10.2904 132.157 10.2732 132.175 10.2732H132.794C132.881 10.2732 132.967 10.2904 133.036 10.3419C133.104 10.3934 133.156 10.4449 133.208 10.5136C133.242 10.5823 133.277 10.6682 133.277 10.754C133.277 10.8399 133.259 10.9086 133.208 10.9945C133.156 11.0632 133.104 11.1318 133.018 11.1662L133.294 11.6986V11.7157V11.7329H133.277H133.018C133.001 11.7329 133.001 11.7329 132.984 11.7329C132.984 11.7329 132.967 11.7157 132.967 11.6986L132.726 11.2177H132.433V11.6814C132.433 11.7157 132.416 11.7157 132.398 11.7157H132.192C132.157 11.7157 132.157 11.6986 132.157 11.6814V10.2904C132.123 10.3075 132.123 10.2904 132.14 10.2904ZM132.416 10.9945H132.726C132.777 10.9945 132.812 10.9773 132.846 10.9601C132.881 10.9429 132.915 10.9086 132.932 10.8742C132.949 10.8399 132.967 10.8056 132.967 10.754C132.967 10.7197 132.949 10.6682 132.932 10.6338C132.915 10.5995 132.881 10.5651 132.846 10.548C132.812 10.5308 132.777 10.5136 132.726 10.5136H132.416V10.9945Z" fill="#DDDDDD"/>
</svg>
