<svg width="148" height="38" viewBox="0 0 148 38" fill="none" xmlns="http://www.w3.org/2000/svg">
<g clip-path="url(#clip0)">
<path d="M47.8219 15.0849C47.8219 12.4308 45.241 9.61201 40.7749 9.61201C35.7595 9.61201 30.25 13.2911 29.408 20.6311C28.5477 28.0442 33.1604 31.3389 37.8096 31.3389C42.4588 31.3389 44.8933 29.5268 47.3826 27.1107C45.241 24.42 42.4771 25.6647 41.9463 25.9392C41.3606 26.2321 40.6101 26.6348 39.0726 26.6348C37.2788 26.6348 35.4484 25.8294 35.4484 22.4798C46.9433 21.3449 47.8219 17.739 47.8219 15.0849ZM42.1294 15.5242C42.0561 16.3479 41.7267 17.7573 35.906 18.5444C37.1323 14.188 39.4753 13.8586 40.5552 13.8586C41.5619 13.8586 42.2026 14.6456 42.1294 15.5242ZM22.6538 16.2381C22.6538 16.2381 20.1828 23.999 19.9815 24.6396C19.9082 23.9807 18.0961 10.0513 18.0961 10.0513C13.8862 10.0513 11.6348 13.0532 10.445 16.2198C10.445 16.2198 7.44318 23.999 7.18692 24.6579C7.16862 24.0539 6.72932 16.3113 6.72932 16.3113C6.47306 12.4308 2.92208 10.0696 0.0483398 10.0696L3.52611 31.1742C7.93739 31.1559 10.3169 28.1723 11.5616 25.0057C11.5616 25.0057 14.2157 18.1417 14.3255 17.8305C14.3438 18.1234 16.2291 31.1742 16.2291 31.1742C20.6587 31.1742 23.0382 28.3737 24.3195 25.3169L30.5246 10.0696C26.1499 10.0696 23.8436 13.0532 22.6538 16.2381ZM64.0759 9.57541C61.3486 9.57541 59.2619 11.058 57.5048 13.2362V13.2179L59.0789 0.533203C55.4547 0.533203 52.5078 3.6815 51.9403 8.36734L49.1947 31.0095C51.2814 31.0095 53.4962 30.4054 54.6859 28.8679C55.7476 30.2407 57.34 31.3389 59.7012 31.3389C65.8148 31.3389 70.0064 24.237 70.0064 17.5743C69.9698 11.4973 67.0229 9.57541 64.0759 9.57541ZM63.5085 20.4663C62.8678 24.182 60.7995 26.708 58.8043 26.708C56.7909 26.708 55.9306 25.8111 55.9306 25.8111C56.315 22.553 56.5529 20.5578 57.2851 18.8373C58.0173 17.1167 59.7562 14.3711 61.5683 14.3711C63.3438 14.3711 64.1491 16.7323 63.5085 20.4663ZM85.272 10.0696H81.0072L81.0255 9.84997C81.3183 7.06775 81.9773 5.60343 84.1555 5.36547C85.6381 5.21904 86.297 4.45027 86.4618 3.60828C86.5899 2.94934 86.9926 0.661331 86.9926 0.661331C78.4263 0.606419 75.7356 4.30384 75.04 9.94149L75.0217 10.0696H74.9302C73.5391 10.0696 72.0016 11.6438 71.7453 13.6389L71.6538 14.3711H74.5092L72.1114 34.1761L71.3792 37.727C71.4707 37.727 71.5806 37.7453 71.6721 37.7453C75.6807 37.5989 78.2432 34.4323 78.8107 29.838L80.6777 14.3711H82.0139C83.3318 14.3711 84.8693 13.0532 85.1439 10.8567L85.272 10.0696ZM107.457 9.70353C102.533 9.70353 97.8835 13.3277 96.4558 19.0203C95.0281 24.7129 97.1879 31.4487 104.436 31.4487C111.666 31.4487 115.84 24.4383 115.84 18.5993C115.84 12.7969 111.904 9.70353 107.457 9.70353ZM109.452 20.2833C109.195 22.8641 108.061 26.7812 104.949 26.7812C101.819 26.7812 102.258 22.2052 102.569 20.027C102.899 17.7024 104.198 14.3894 106.999 14.3894C109.507 14.3894 109.745 17.3729 109.452 20.2833ZM140.166 16.2381C140.166 16.2381 137.695 23.999 137.493 24.6396C137.42 23.9807 135.608 10.0513 135.608 10.0513C131.398 10.0513 129.147 13.0532 127.957 16.2198C127.957 16.2198 124.955 23.999 124.699 24.6579C124.681 24.0539 124.241 16.3113 124.241 16.3113C123.985 12.4308 120.434 10.0696 117.56 10.0696L121.02 31.1742C125.431 31.1559 127.811 28.1723 129.055 25.0057C129.055 25.0057 131.709 18.1417 131.801 17.8305C131.838 18.1234 133.705 31.1742 133.705 31.1742C138.134 31.1742 140.514 28.3737 141.795 25.3169L148 10.0696C143.644 10.0696 141.337 13.0532 140.166 16.2381ZM89.2989 0.661331L85.7113 29.6L84.9791 33.1693C85.0707 33.1693 85.1805 33.1876 85.272 33.1876C89.1342 33.1327 91.8798 29.7465 92.3923 25.4816L94.4606 8.87985C95.083 3.80963 92.0628 0.661331 89.2989 0.661331Z" fill="#DDDDDD"/>
</g>
<defs>
<clipPath id="clip0">
<rect width="147.952" height="37.2121" fill="white" transform="translate(0.0483398 0.533203)"/>
</clipPath>
</defs>
</svg>
