<svg width="120" height="29" viewBox="0 0 120 29" fill="none" xmlns="http://www.w3.org/2000/svg">
<path fill-rule="evenodd" clip-rule="evenodd" d="M48.8003 4.85383C46.181 2.22628 42.7391 0.875 39.2964 0.875H39.2593C35.8173 0.875 32.3747 2.18878 29.7561 4.85383C24.5182 10.1465 24.5182 18.6673 29.7561 23.9599C34.994 29.215 43.5245 29.215 48.7625 23.9599C54.0383 18.7048 54.0383 10.1465 48.8003 4.85383ZM44.9839 20.1312C41.8407 23.2843 36.715 23.2843 33.5725 20.1312C30.4293 16.9781 30.4293 11.8357 33.5725 8.6826C36.715 5.52954 41.8407 5.52954 44.9839 8.6826C48.1643 11.8357 48.1643 16.9781 44.9839 20.1312Z" fill="#DDDDDD"/>
<path fill-rule="evenodd" clip-rule="evenodd" d="M77.0483 4.85383C74.4297 2.22628 70.9871 0.9125 67.5452 0.875C64.1032 0.875 60.6606 2.18878 58.042 4.85383C52.804 10.1465 52.804 18.6673 58.042 23.9599C63.2799 29.215 71.8104 29.215 77.0483 23.9599C82.287 18.7048 82.287 10.1465 77.0483 4.85383ZM73.2326 20.1312C70.0895 23.2843 64.9637 23.2843 61.8205 20.1312C58.6781 16.9781 58.6781 11.8357 61.8205 8.6826C64.9637 5.52954 70.0895 5.52954 73.2326 8.6826C76.4123 11.8357 76.4123 16.9781 73.2326 20.1312Z" fill="#DDDDDD"/>
<path fill-rule="evenodd" clip-rule="evenodd" d="M5.66019 27.8642L7.00716 27.9393H27.174L27.0989 26.5879C26.9117 24.3733 25.3401 22.7592 23.1331 22.6091L21.7859 22.534H9.66358L25.8268 6.35581L25.7517 5.00447C25.6395 2.75227 23.9936 1.1382 21.7859 1.02563L20.4388 0.950562H0.272461L0.347287 2.30184C0.534392 4.51647 2.10577 6.1681 4.3133 6.28074L5.66019 6.35581H17.7823L1.61943 22.5715L1.69426 23.9229C1.80647 26.1 3.41536 27.714 5.66019 27.8642Z" fill="#DDDDDD"/>
<path fill-rule="evenodd" clip-rule="evenodd" d="M97.7386 9.01987C98.1881 9.80815 98.3375 10.7091 98.3746 11.7225L98.4497 13.0738V22.533L98.5247 23.8844C98.6741 26.099 100.283 27.713 102.491 27.8632L103.838 27.9383V13.0738L103.912 11.7225C103.95 10.7091 104.099 9.80815 104.586 9.01987C105.521 7.40581 107.242 6.35481 109.225 6.35481C111.208 6.35481 112.966 7.44338 113.902 9.05744C114.351 9.84572 114.501 10.7841 114.538 11.7601L114.613 13.1113V22.5706L114.688 23.9219C114.837 26.1366 116.446 27.7881 118.654 27.9008L120 27.9758V13.1489V11.7976C120 5.82932 115.174 0.987061 109.225 0.987061C106.007 0.987061 103.127 2.41348 101.143 4.62811C99.198 2.37591 96.2799 0.987061 93.0617 0.987061C90.8168 0.987061 88.7592 1.66277 87.0383 2.82641C85.9906 1.66277 83.6707 0.987061 82.3242 0.987061V28.0133L83.6707 27.9383C85.9155 27.7881 87.5622 26.2116 87.6372 23.9594L87.7115 22.6081V13.1489L87.7866 11.7976C87.8237 10.7841 87.9738 9.88322 88.4598 9.09494C89.3953 7.48088 91.1163 6.39231 93.0995 6.39231C95.0821 6.31724 96.8038 7.40581 97.7386 9.01987Z" fill="#DDDDDD"/>
</svg>
