<svg width="20" height="23" viewBox="0 0 20 23" fill="none" xmlns="http://www.w3.org/2000/svg">
<path d="M13.2494 6.62378L4.78845 15.2252C4.48371 15.53 4.3125 15.9433 4.3125 16.3743C4.3125 16.8053 4.48371 17.2186 4.78845 17.5233C5.0932 17.8281 5.50652 17.9993 5.9375 17.9993C6.36848 17.9993 6.7818 17.8281 7.08655 17.5233L17.1725 7.29688C17.4743 6.99509 17.7137 6.63681 17.877 6.2425C18.0403 5.84819 18.1244 5.42558 18.1244 4.99878C18.1244 4.57198 18.0403 4.14937 17.877 3.75506C17.7137 3.36075 17.4743 3.00247 17.1725 2.70068C16.8707 2.39889 16.5124 2.1595 16.1181 1.99617C15.7238 1.83284 15.3012 1.74878 14.8744 1.74878C14.4476 1.74878 14.025 1.83284 13.6307 1.99617C13.2364 2.1595 12.8781 2.39889 12.5763 2.70068L2.49035 12.9271C1.57611 13.8414 1.0625 15.0813 1.0625 16.3743C1.0625 17.6672 1.57611 18.9072 2.49035 19.8214C3.40459 20.7357 4.64457 21.2493 5.9375 21.2493C7.23043 21.2493 8.47041 20.7357 9.38465 19.8214L17.7182 11.4988" stroke="white" stroke-width="2" stroke-linecap="round" stroke-linejoin="round"/>
</svg>
