<svg width="56" height="58" viewBox="0 0 56 58" fill="none" xmlns="http://www.w3.org/2000/svg">
<g clip-path="url(#clip0)">
<path d="M56.0002 29.3242C56.0002 27.3823 55.8428 25.4299 55.5069 23.5195H28.5618V34.5201H43.992C43.3517 38.068 41.2943 41.2065 38.2818 43.2009V50.3387H47.4874C52.8932 45.3632 56.0002 38.0155 56.0002 29.3242Z" fill="#4285F4"/>
<path d="M28.5615 57.2349C36.2661 57.2349 42.7636 54.7052 47.4976 50.3385L38.292 43.2008C35.7308 44.9432 32.4243 45.9299 28.572 45.9299C21.1194 45.9299 14.8003 40.902 12.533 34.1421H3.03351V41.5003C7.88299 51.1468 17.7604 57.2349 28.5615 57.2349Z" fill="#34A853"/>
<path d="M12.5229 34.142C11.3262 30.5941 11.3262 26.7523 12.5229 23.2044V15.8462H3.03383C-1.01791 23.9182 -1.01791 33.4282 3.03383 41.5002L12.5229 34.142Z" fill="#FBBC04"/>
<path d="M28.5615 11.406C32.6343 11.343 36.5705 12.8756 39.5201 15.6887L47.6761 7.53272C42.5117 2.68324 35.6573 0.0170724 28.5615 0.101046C17.7604 0.101046 7.88299 6.18914 3.03351 15.8461L12.5225 23.2043C14.7793 16.4339 21.1089 11.406 28.5615 11.406Z" fill="#EA4335"/>
</g>
<defs>
<clipPath id="clip0">
<rect width="56" height="57.1336" fill="white" transform="translate(0 0.101074)"/>
</clipPath>
</defs>
</svg>
