<svg width="64" height="64" viewBox="0 0 64 64" fill="none" xmlns="http://www.w3.org/2000/svg">
<g clip-path="url(#clip0)">
<path fill-rule="evenodd" clip-rule="evenodd" d="M23.3624 0.157715C22.5248 0.158493 21.6955 0.324261 20.922 0.645552C20.1485 0.966843 19.4458 1.43736 18.8541 2.03024C18.2625 2.62312 17.7934 3.32675 17.4737 4.10094C17.154 4.87512 16.9899 5.7047 16.9908 6.54231C16.99 7.37981 17.1542 8.20926 17.474 8.98331C17.7938 9.75736 18.2629 10.4608 18.8545 11.0536C19.4462 11.6464 20.1488 12.1168 20.9223 12.438C21.6957 12.7592 22.5249 12.9249 23.3624 12.9257H29.7339V6.54231C29.7349 5.7047 29.5708 4.87512 29.2511 4.10094C28.9314 3.32675 28.4623 2.62312 27.8706 2.03024C27.2789 1.43736 26.5763 0.966843 25.8028 0.645552C25.0292 0.324261 24.2 0.158493 23.3624 0.157715ZM23.3624 17.1829H6.37156C5.53406 17.1837 4.70491 17.3494 3.93145 17.6706C3.158 17.9918 2.45539 18.4623 1.86373 19.055C1.27208 19.6478 0.802972 20.3512 0.483192 21.1253C0.163413 21.8993 -0.000774597 22.7288 3.96799e-06 23.5663C-0.000930349 24.4039 0.163142 25.2335 0.482852 26.0077C0.802561 26.7819 1.27165 27.4855 1.86331 28.0784C2.45498 28.6712 3.15765 29.1418 3.93118 29.4631C4.70471 29.7844 5.53396 29.9501 6.37156 29.9509H23.3624C24.2 29.9501 25.0292 29.7844 25.8028 29.4631C26.5763 29.1418 27.2789 28.6712 27.8706 28.0784C28.4623 27.4855 28.9314 26.7819 29.2511 26.0077C29.5708 25.2335 29.7349 24.4039 29.7339 23.5663C29.7347 22.7288 29.5705 21.8993 29.2507 21.1253C28.931 20.3512 28.4619 19.6478 27.8702 19.055C27.2785 18.4623 26.5759 17.9918 25.8025 17.6706C25.029 17.3494 24.1999 17.1837 23.3624 17.1829Z" fill="#36C5F0"/>
<path fill-rule="evenodd" clip-rule="evenodd" d="M63.7154 23.5663C63.7162 22.7288 63.552 21.8993 63.2322 21.1253C62.9124 20.3512 62.4433 19.6478 61.8516 19.055C61.26 18.4623 60.5574 17.9918 59.7839 17.6706C59.0105 17.3494 58.1813 17.1837 57.3438 17.1829C56.5063 17.1837 55.6772 17.3494 54.9037 17.6706C54.1303 17.9918 53.4276 18.4623 52.836 19.055C52.2443 19.6478 51.7752 20.3512 51.4555 21.1253C51.1357 21.8993 50.9715 22.7288 50.9723 23.5663V29.9509H57.3438C58.1814 29.9501 59.0107 29.7844 59.7842 29.4631C60.5577 29.1418 61.2604 28.6712 61.8521 28.0784C62.4437 27.4855 62.9128 26.7819 63.2325 26.0077C63.5522 25.2335 63.7163 24.4039 63.7154 23.5663ZM46.7246 23.5663V6.54231C46.7255 5.7047 46.5614 4.87512 46.2417 4.10094C45.922 3.32675 45.4529 2.62312 44.8613 2.03024C44.2696 1.43736 43.5669 0.966843 42.7934 0.645552C42.0199 0.324261 41.1906 0.158493 40.353 0.157715C39.5154 0.158493 38.6862 0.324261 37.9126 0.645552C37.1391 0.966843 36.4364 1.43736 35.8448 2.03024C35.2531 2.62312 34.784 3.32675 34.4643 4.10094C34.1446 4.87512 33.9805 5.7047 33.9814 6.54231V23.5663C33.9805 24.4039 34.1446 25.2335 34.4643 26.0077C34.784 26.7819 35.2531 27.4855 35.8448 28.0784C36.4364 28.6712 37.1391 29.1418 37.9126 29.4631C38.6862 29.7844 39.5154 29.9501 40.353 29.9509C41.1906 29.9501 42.0199 29.7844 42.7934 29.4631C43.5669 29.1418 44.2696 28.6712 44.8613 28.0784C45.4529 27.4855 45.922 26.7819 46.2417 26.0077C46.5614 25.2335 46.7255 24.4039 46.7246 23.5663Z" fill="#2EB67D"/>
<path fill-rule="evenodd" clip-rule="evenodd" d="M40.353 64.0002C41.1906 63.9994 42.0199 63.8337 42.7934 63.5124C43.5669 63.1911 44.2696 62.7206 44.8613 62.1277C45.4529 61.5348 45.922 60.8312 46.2417 60.057C46.5614 59.2828 46.7255 58.4532 46.7246 57.6156C46.7253 56.7781 46.5612 55.9487 46.2414 55.1746C45.9216 54.4006 45.4525 53.6971 44.8608 53.1043C44.2692 52.5116 43.5666 52.0412 42.7931 51.7199C42.0197 51.3987 41.1905 51.233 40.353 51.2322H33.9814V57.6156C33.9805 58.4532 34.1446 59.2828 34.4643 60.057C34.784 60.8312 35.2531 61.5348 35.8448 62.1277C36.4364 62.7206 37.1391 63.1911 37.9126 63.5124C38.6862 63.8337 39.5154 63.9994 40.353 64.0002ZM40.353 46.975H57.3438C58.1813 46.9743 59.0105 46.8085 59.7839 46.4873C60.5574 46.1661 61.26 45.6957 61.8516 45.1029C62.4433 44.5102 62.9124 43.8067 63.2322 43.0326C63.552 42.2586 63.7162 41.4291 63.7154 40.5916C63.7163 39.754 63.5522 38.9244 63.2325 38.1503C62.9128 37.3761 62.4437 36.6724 61.8521 36.0796C61.2604 35.4867 60.5577 35.0162 59.7842 34.6949C59.0107 34.3736 58.1814 34.2078 57.3438 34.207H40.353C39.5154 34.2078 38.6862 34.3736 37.9126 34.6949C37.1391 35.0162 36.4364 35.4867 35.8448 36.0796C35.2531 36.6724 34.784 37.3761 34.4643 38.1503C34.1446 38.9244 33.9805 39.754 33.9814 40.5916C33.9807 41.4291 34.1449 42.2586 34.4646 43.0326C34.7844 43.8067 35.2535 44.5102 35.8452 45.1029C36.4368 45.6957 37.1394 46.1661 37.9129 46.4873C38.6864 46.8085 39.5155 46.9743 40.353 46.975Z" fill="#ECB22E"/>
<path fill-rule="evenodd" clip-rule="evenodd" d="M5.40028e-06 40.5916C-0.000773165 41.4291 0.163414 42.2586 0.483194 43.0326C0.802973 43.8067 1.27208 44.5102 1.86374 45.1029C2.45539 45.6957 3.158 46.1661 3.93145 46.4873C4.70491 46.8085 5.53406 46.9743 6.37156 46.975C7.20906 46.9743 8.03821 46.8085 8.81167 46.4873C9.58512 46.1661 10.2877 45.6957 10.8794 45.1029C11.471 44.5102 11.9401 43.8067 12.2599 43.0326C12.5797 42.2586 12.7439 41.4291 12.7431 40.5916V34.207H6.37156C5.53386 34.2078 4.70452 34.3736 3.93091 34.695C3.1573 35.0163 2.45458 35.487 1.8629 36.08C1.27121 36.673 0.802153 37.3767 0.482513 38.1511C0.162873 38.9254 -0.00108471 39.7551 5.40028e-06 40.5928V40.5916ZM16.9908 40.5916V57.6156C16.9899 58.4532 17.154 59.2828 17.4737 60.057C17.7934 60.8312 18.2625 61.5348 18.8541 62.1277C19.4458 62.7206 20.1485 63.1911 20.922 63.5124C21.6955 63.8337 22.5248 63.9994 23.3624 64.0002C24.2 63.9994 25.0292 63.8337 25.8028 63.5124C26.5763 63.1911 27.2789 62.7206 27.8706 62.1277C28.4623 61.5348 28.9314 60.8312 29.2511 60.057C29.5708 59.2828 29.7349 58.4532 29.7339 57.6156V40.5928C29.7349 39.7552 29.5708 38.9256 29.2511 38.1514C28.9314 37.3773 28.4623 36.6736 27.8706 36.0807C27.2789 35.4879 26.5763 35.0173 25.8028 34.6961C25.0292 34.3748 24.2 34.209 23.3624 34.2082C22.5248 34.209 21.6955 34.3748 20.922 34.6961C20.1485 35.0173 19.4458 35.4879 18.8541 36.0807C18.2625 36.6736 17.7934 37.3773 17.4737 38.1514C17.154 38.9256 16.9899 39.7552 16.9908 40.5928" fill="#E01E5A"/>
</g>
<defs>
<clipPath id="clip0">
<rect width="64" height="64" fill="white"/>
</clipPath>
</defs>
</svg>
