<svg width="192" height="44" viewBox="0 0 192 44" fill="none" xmlns="http://www.w3.org/2000/svg">
<path d="M22 44C34.1503 44 44 34.1503 44 22C44 9.84974 34.1503 0 22 0C9.84974 0 0 9.84974 0 22C0 34.1503 9.84974 44 22 44Z" fill="#1A1E2A"/>
<path d="M33.8075 14.9152L33.186 14.6666L27.9657 11.5593L22.1239 8.20337C21.9996 8.20337 21.8753 8.20337 21.751 8.20337L10.1917 14.9152C10.0674 14.9152 10.0674 15.0395 10.0674 15.1638V20.1356C10.0674 20.2599 10.1917 20.3842 10.1917 20.3842L12.5533 21.7514C12.6776 21.7514 12.8018 21.7514 12.9261 21.7514L15.412 20.2599C15.5363 20.1356 15.5363 20.1356 15.5363 20.0113C15.5363 19.887 15.412 19.7627 15.412 19.7627L13.299 18.5198V16.7796L22.1239 11.6836L30.5759 16.5311L26.4742 18.8926L22.6211 16.6553L22.3725 16.7796V14.2938C22.3725 14.1695 22.2482 14.0452 22.2482 14.0452C22.1239 14.0452 21.9996 14.0452 21.8753 14.0452L19.3894 15.5367C19.2651 15.5367 19.2651 15.661 19.2651 15.7853V18.3955C19.2651 18.5198 19.3894 18.644 19.3894 18.644L26.2256 22.6214H26.3499H26.4742L28.96 21.1299L30.8244 20.1356L33.8075 18.3955C33.9318 18.2712 33.9318 18.2712 33.9318 18.1469V15.2881C33.9318 15.1638 33.8075 15.0395 33.8075 14.9152Z" fill="white"/>
<path d="M33.808 23.3674L31.4464 22.0001C31.3221 22.0001 31.1978 22.0001 31.0735 22.0001L28.5877 23.4917C28.4634 23.6159 28.4634 23.6159 28.4634 23.7402C28.4634 23.8645 28.5877 23.9888 28.5877 23.9888L30.7007 25.2318V26.9719L23.4916 31.1979L22.0001 32.0679L16.2826 28.712H16.1583L13.6724 27.2205L17.7741 24.8589L21.7515 27.0962V29.582C21.7515 29.7063 21.8758 29.8306 21.8758 29.8306C22.0001 29.8306 22.1244 29.9549 22.2487 29.8306L24.7346 28.4634C24.8589 28.4634 24.8589 28.3391 24.8589 28.2148V25.4804C24.8589 25.3561 24.7346 25.2318 24.7346 25.2318L21.3786 23.3674L19.017 22.0001L17.8984 21.3787C17.7741 21.3787 17.6498 21.3787 17.5255 21.3787L15.0396 22.7459L10.1922 25.6047C10.0679 25.6047 9.9436 25.7289 9.9436 25.8532V28.712C9.9436 28.8363 10.0679 28.9606 10.1922 28.9606L10.8137 29.2092L15.9097 32.1922H16.034L19.3899 34.1809L21.8758 35.5482H22.0001H22.1244L22.7459 35.1753L27.8419 32.0679L33.0622 29.0849L33.6837 28.712C33.808 28.712 33.9323 28.5877 33.9323 28.4634V23.4917C33.9323 23.6159 33.9323 23.4917 33.808 23.3674Z" fill="white"/>
<path d="M56.9265 32.068C55.6836 31.4465 54.8135 30.5765 54.192 29.5821C53.5706 28.5878 53.1977 27.5934 52.9491 26.5991L57.0508 25.6047C57.548 27.842 59.0395 28.9607 61.5254 28.9607C62.3954 28.9607 63.0169 28.7121 63.6384 28.3392C64.1355 27.9663 64.3841 27.4691 64.3841 26.8477C64.3841 26.3505 64.1355 25.8533 63.7627 25.4804C63.3898 25.1076 62.8926 24.859 62.1468 24.7347L59.2881 24.2375C57.548 23.8646 56.1807 23.2432 55.1864 22.1245C54.192 21.0059 53.6949 19.6386 53.6949 17.8985C53.6949 16.7799 54.0677 15.6612 54.6892 14.7912C55.3107 13.7968 56.305 13.0511 57.2994 12.5539C58.418 12.0567 59.5367 11.6838 60.7796 11.6838C62.3954 11.6838 63.7627 11.9324 64.8813 12.5539C65.9999 13.0511 66.87 13.7968 67.3672 14.5426C67.8644 15.2884 68.3615 16.1584 68.4858 17.0285L64.5084 18.2714C64.1355 17.2771 63.6384 16.6556 63.1412 16.2827C62.644 15.9098 61.8983 15.7855 60.9039 15.7855C60.4067 15.7855 59.9096 15.9098 59.5367 16.1584C59.1638 16.407 58.7909 16.6556 58.6666 16.9042C58.418 17.2771 58.2937 17.5256 58.2937 17.8985C58.2937 18.3957 58.418 18.8929 58.7909 19.2658C59.1638 19.6386 59.661 19.8872 60.2824 20.0115L63.1412 20.633C65.0056 21.0059 66.4971 21.7516 67.4915 22.8703C68.4858 23.9889 68.983 25.3562 68.983 26.8477C68.983 27.9663 68.7344 28.9607 68.1129 29.955C67.4915 30.9494 66.6214 31.6951 65.5028 32.3166C64.3841 32.9381 63.0169 33.1867 61.5254 33.1867C59.5367 33.0624 58.1694 32.6895 56.9265 32.068Z" fill="#1A1E2A"/>
<path d="M74.4514 31.3222C73.4571 30.3279 72.9599 28.9607 72.9599 27.2206V21.1302H70.474V17.5256H70.5983C71.3441 17.5256 71.9655 17.277 72.3384 16.9042C72.7113 16.5313 72.9599 15.9098 72.9599 15.1641V14.0454H77.0616V17.5256H80.5418V21.1302H77.0616V26.972C77.0616 27.7177 77.3102 28.3392 77.683 28.7121C78.0559 29.085 78.8017 29.3335 79.6717 29.3335C79.9203 29.3335 80.2932 29.3335 80.6661 29.2093V32.8138C80.0446 32.9381 79.4231 32.9381 78.6774 32.9381C76.813 32.8138 75.4458 32.3166 74.4514 31.3222Z" fill="#1A1E2A"/>
<path d="M83.898 31.8193C82.9036 31.0735 82.5308 29.9549 82.5308 28.5876C82.5308 27.3447 83.0279 26.2261 83.898 25.356C84.768 24.4859 86.1353 23.9888 87.8754 23.6159L92.1014 22.9944V22.6215C92.1014 22.0001 91.8528 21.5029 91.3556 21.13C90.8584 20.7571 90.237 20.5085 89.4912 20.5085C88.7454 20.5085 88.124 20.7571 87.5025 21.13C86.881 21.5029 86.5082 22.1244 86.2596 22.7458L82.9036 21.13C83.4008 19.8871 84.1466 18.8927 85.3895 18.147C86.6325 17.4012 87.9997 17.0283 89.6155 17.0283C90.8584 17.0283 91.9771 17.2769 92.9714 17.7741C93.9658 18.2713 94.7115 18.8927 95.2087 19.7628C95.7059 20.6328 96.0788 21.5029 96.0788 22.6215V32.6893H92.2257V31.3221C91.6042 31.9436 90.9827 32.3165 90.237 32.6893C89.4912 32.9379 88.6212 33.0622 87.7511 33.0622C86.1353 33.0622 84.768 32.6893 83.898 31.8193ZM87.2539 29.582C87.6268 29.8306 87.9997 29.9549 88.6212 29.9549C89.6155 29.9549 90.4856 29.582 91.107 28.9605C91.7285 28.3391 92.1014 27.469 92.1014 26.5989V26.1018L88.6212 26.7232C87.9997 26.8475 87.5025 26.9718 87.2539 27.3447C87.0053 27.7176 86.7568 27.9662 86.7568 28.4633C86.7568 28.9605 86.881 29.3334 87.2539 29.582Z" fill="#1A1E2A"/>
<path d="M101.921 31.3222C100.927 30.3279 100.429 28.9607 100.429 27.2206V21.1302H97.9436V17.5256H98.0679C98.8137 17.5256 99.4351 17.277 99.808 16.9042C100.181 16.5313 100.429 15.9098 100.429 15.1641V14.0454H104.531V17.5256H108.136V21.1302H104.655V26.972C104.655 27.7177 104.904 28.3392 105.277 28.7121C105.65 29.085 106.396 29.3335 107.266 29.3335C107.514 29.3335 107.887 29.3335 108.26 29.2093V32.8138C107.639 32.9381 107.017 32.9381 106.271 32.9381C104.407 32.8138 102.915 32.3166 101.921 31.3222Z" fill="#1A1E2A"/>
<path d="M110.87 11.4351C111.242 11.0622 111.864 10.8136 112.61 10.8136C113.355 10.8136 113.977 11.0622 114.35 11.4351C114.723 11.8079 114.971 12.4294 114.971 13.1752C114.971 13.9209 114.723 14.5424 114.35 14.9153C113.977 15.2882 113.355 15.5368 112.61 15.5368C111.864 15.5368 111.242 15.2882 110.87 14.9153C110.497 14.5424 110.248 13.9209 110.248 13.1752C110.248 12.4294 110.497 11.9322 110.87 11.4351ZM110.497 17.5255H114.598V32.6893H110.497V17.5255Z" fill="#1A1E2A"/>
<path d="M121.062 31.9437C119.819 31.1979 118.825 30.3279 118.204 29.0849C117.458 27.842 117.209 26.4747 117.209 24.9832C117.209 23.4917 117.582 22.1245 118.204 21.0058C118.949 19.7629 119.819 18.8928 121.062 18.1471C122.305 17.4013 123.672 17.1527 125.164 17.1527C126.904 17.1527 128.396 17.5256 129.639 18.3956C130.882 19.2657 131.752 20.3843 132.249 21.7516L128.644 23.3674C128.396 22.6216 127.898 22.0002 127.277 21.503C126.656 21.0058 125.91 20.8815 125.164 20.8815C124.045 20.8815 123.175 21.2544 122.43 22.0002C121.684 22.7459 121.435 23.7403 121.435 24.9832C121.435 26.2262 121.808 27.2205 122.43 27.9663C123.175 28.712 124.045 29.0849 125.164 29.0849C126.034 29.0849 126.78 28.8363 127.277 28.4634C127.898 27.9663 128.271 27.4691 128.644 26.599L132.249 28.2149C131.752 29.5821 130.882 30.7007 129.639 31.5708C128.396 32.4408 126.904 32.8137 125.164 32.8137C123.672 33.0623 122.305 32.6894 121.062 31.9437Z" fill="#1A1E2A"/>
<path d="M137.966 32.068C136.723 31.4465 135.853 30.5765 135.232 29.5821C134.61 28.5878 134.237 27.5934 133.989 26.5991L138.091 25.6047C138.588 27.842 140.079 28.9607 142.565 28.9607C143.435 28.9607 144.057 28.7121 144.678 28.3392C145.175 27.9663 145.424 27.4691 145.424 26.8477C145.424 26.3505 145.175 25.8533 144.802 25.4804C144.43 25.1076 143.932 24.859 143.187 24.7347L140.328 24.2375C138.588 23.8646 137.221 23.2432 136.226 22.1245C135.232 21.0059 134.735 19.6386 134.735 17.8985C134.735 16.7799 135.108 15.6612 135.729 14.7912C136.35 13.7968 137.345 13.0511 138.339 12.5539C139.458 12.0567 140.576 11.6838 141.819 11.6838C143.435 11.6838 144.802 11.9324 145.921 12.5539C147.04 13.0511 147.91 13.7968 148.407 14.5426C148.904 15.2884 149.401 16.1584 149.526 17.0285L145.548 18.2714C145.175 17.2771 144.678 16.6556 144.181 16.2827C143.684 15.9098 142.938 15.7855 141.944 15.7855C141.447 15.7855 140.949 15.9098 140.576 16.1584C140.204 16.407 139.831 16.6556 139.706 16.9042C139.458 17.2771 139.334 17.5256 139.334 17.8985C139.334 18.3957 139.458 18.8929 139.831 19.2658C140.204 19.6386 140.701 19.8872 141.322 20.0115L144.181 20.633C146.045 21.0059 147.537 21.7516 148.531 22.8703C149.526 23.9889 150.023 25.3562 150.023 26.8477C150.023 27.9663 149.774 28.9607 149.153 29.955C148.531 30.9494 147.661 31.6951 146.543 32.3166C145.424 32.9381 144.057 33.1867 142.565 33.1867C140.701 33.0624 139.209 32.6895 137.966 32.068Z" fill="#1A1E2A"/>
<path d="M155.988 32.068C154.745 31.3222 153.751 30.4521 153.005 29.2092C152.259 27.9663 151.886 26.599 151.886 25.1075C151.886 23.616 152.259 22.2488 153.005 21.0058C153.751 19.7629 154.745 18.8928 155.988 18.1471C157.231 17.4013 158.598 17.1527 160.09 17.1527C161.581 17.1527 162.949 17.5256 164.192 18.1471C165.435 18.8928 166.429 19.7629 167.175 21.0058C167.92 22.2488 168.293 23.616 168.293 25.1075C168.293 26.599 167.92 27.9663 167.175 29.2092C166.429 30.4521 165.435 31.3222 164.192 32.068C162.949 32.8137 161.581 33.0623 160.09 33.0623C158.598 33.0623 157.231 32.6894 155.988 32.068ZM157.231 28.0906C157.977 28.8363 158.847 29.2092 159.966 29.2092C161.084 29.2092 161.954 28.8363 162.7 28.0906C163.446 27.3448 163.694 26.3505 163.694 25.1075C163.694 23.8646 163.322 22.8702 162.576 22.1245C161.83 21.3787 160.96 21.0058 159.841 21.0058C158.723 21.0058 157.853 21.3787 157.107 22.1245C156.361 22.8702 155.988 23.8646 155.988 25.1075C156.237 26.3505 156.61 27.3448 157.231 28.0906Z" fill="#1A1E2A"/>
<path d="M172.147 21.5028H169.661V17.8982H172.147V17.6497C172.147 15.661 172.644 14.1694 173.763 13.0508C174.757 11.9321 176.249 11.3107 178.113 11.3107C178.611 11.3107 179.108 11.3107 179.605 11.435V15.0395C179.232 15.0395 178.983 14.9152 178.735 14.9152C177.119 14.9152 176.373 15.7852 176.373 17.6497V17.8982H179.605V21.5028H176.373V32.6892H172.272V21.5028H172.147Z" fill="#1A1E2A"/>
<path d="M185.447 31.3222C184.452 30.3279 183.955 28.9607 183.955 27.2206V21.1302H181.469V17.5256H181.594C182.339 17.5256 182.961 17.277 183.334 16.9042C183.707 16.5313 183.955 15.9098 183.955 15.1641V14.0454H188.057V17.5256H191.537V21.1302H188.057V26.972C188.057 27.7177 188.306 28.3392 188.678 28.7121C189.051 29.085 189.797 29.3335 190.667 29.3335C190.916 29.3335 191.289 29.3335 191.661 29.2093V32.8138C191.04 32.9381 190.419 32.9381 189.673 32.9381C187.933 32.8138 186.441 32.3166 185.447 31.3222Z" fill="#1A1E2A"/>
</svg>
