<svg width="123" height="37" viewBox="0 0 123 37" fill="none" xmlns="http://www.w3.org/2000/svg">
<path fill-rule="evenodd" clip-rule="evenodd" d="M76.0379 28.8476C68.9154 34.0905 58.5917 36.8877 49.7031 36.8877C37.24 36.8877 26.02 32.2842 17.5316 24.6277C16.8647 24.0256 17.4623 23.2051 18.2626 23.674C27.4232 28.9968 38.7499 32.199 50.4501 32.199C58.3409 32.199 67.0213 30.5686 75.0029 27.1852C76.2086 26.6737 77.217 27.9738 76.0379 28.8476Z" fill="#74767C"/>
<path fill-rule="evenodd" clip-rule="evenodd" d="M78.9989 25.4623C78.0919 24.3008 72.9807 24.9135 70.6866 25.1853C69.9876 25.2705 69.8809 24.6631 70.5105 24.2262C74.5813 21.365 81.261 22.1909 82.04 23.1499C82.8189 24.1143 81.8372 30.8011 78.0118 33.9927C77.425 34.4829 76.8648 34.2218 77.1262 33.5717C77.9852 31.4298 79.9112 26.6292 78.9989 25.4623Z" fill="#74767C"/>
<path fill-rule="evenodd" clip-rule="evenodd" d="M70.8467 4.02757V1.24628C70.8467 0.825359 71.1668 0.542969 71.5509 0.542969H84.0194C84.4195 0.542969 84.7396 0.830688 84.7396 1.24628V3.62796C84.7343 4.02757 84.3982 4.54972 83.8006 5.37558L77.3397 14.5879C79.7405 14.5293 82.2748 14.8863 84.4515 16.1118C84.9424 16.3888 85.0758 16.7938 85.1131 17.1934V20.1612C85.1131 20.5661 84.6649 21.0403 84.1954 20.7952C80.3594 18.7865 75.2642 18.568 71.0227 20.8165C70.5906 21.0509 70.1371 20.5821 70.1371 20.1771V17.3586C70.1371 16.9057 70.1424 16.1331 70.5959 15.4458L78.0813 4.72555H71.5669C71.1668 4.72555 70.8467 4.44316 70.8467 4.02757Z" fill="#74767C"/>
<path fill-rule="evenodd" clip-rule="evenodd" d="M25.3638 21.3809H21.5704C21.2076 21.3542 20.9195 21.0825 20.8928 20.7361V1.2938C20.8928 0.904848 21.2183 0.595814 21.6238 0.595814H25.161C25.5292 0.611788 25.8226 0.894189 25.8493 1.24584V3.78737H25.9186C26.8416 1.3311 28.5756 0.185547 30.9124 0.185547C33.2866 0.185547 34.7698 1.3311 35.8368 3.78737C36.7545 1.3311 38.8406 0.185547 41.076 0.185547C42.6659 0.185547 44.4052 0.840907 45.4669 2.31147C46.6674 3.94721 46.422 6.32355 46.422 8.40686L46.4166 20.6775C46.4166 21.0665 46.0912 21.3809 45.6857 21.3809H41.8977C41.5189 21.3542 41.2148 21.0505 41.2148 20.6775V10.3729C41.2148 9.5524 41.2895 7.5064 41.1081 6.72849C40.8253 5.4231 39.977 5.05546 38.8779 5.05546C37.9603 5.05546 36.9999 5.66819 36.6104 6.64857C36.221 7.62895 36.2583 9.27001 36.2583 10.3729V20.6775C36.2583 21.0665 35.9329 21.3809 35.5274 21.3809H31.7394C31.3552 21.3542 31.0565 21.0505 31.0565 20.6775L31.0511 10.3729C31.0511 8.20439 31.4086 5.01283 28.7143 5.01283C25.988 5.01283 26.0947 8.12446 26.0947 10.3729V20.6775C26.0947 21.0665 25.7692 21.3809 25.3638 21.3809" fill="#74767C"/>
<path fill-rule="evenodd" clip-rule="evenodd" d="M95.4741 0.185547C101.103 0.185547 104.149 5.01284 104.149 11.1508C104.149 17.0811 100.783 21.7858 95.4741 21.7858C89.9468 21.7858 86.9377 16.9585 86.9377 10.943C86.9377 4.89029 89.9842 0.185547 95.4741 0.185547ZM95.5061 4.15501C92.7105 4.15501 92.5344 7.95929 92.5344 10.3303C92.5344 12.7067 92.4971 17.779 95.4741 17.779C98.4138 17.779 98.5526 13.687 98.5526 11.1935C98.5526 9.5524 98.4832 7.59165 97.987 6.03584C97.5602 4.68249 96.7119 4.15501 95.5061 4.15501Z" fill="#74767C"/>
<path fill-rule="evenodd" clip-rule="evenodd" d="M111.448 21.3809H107.671C107.292 21.3542 106.988 21.0505 106.988 20.6775L106.982 1.22986C107.014 0.872876 107.329 0.595814 107.713 0.595814H111.229C111.56 0.611788 111.832 0.83558 111.907 1.13928V4.11238H111.976C113.038 1.45364 114.526 0.185547 117.146 0.185547C118.848 0.185547 120.507 0.798283 121.574 2.47664C122.567 4.03246 122.567 6.64857 122.567 8.5294V20.7681C122.524 21.1091 122.209 21.3809 121.836 21.3809H118.032C117.685 21.3542 117.397 21.0985 117.359 20.7681V10.2078C117.359 8.08184 117.605 4.97021 114.985 4.97021C114.062 4.97021 113.214 5.58827 112.792 6.52602C112.259 7.7142 112.189 8.89704 112.189 10.2078V20.6775C112.184 21.0665 111.853 21.3809 111.448 21.3809" fill="#74767C"/>
<path fill-rule="evenodd" clip-rule="evenodd" d="M60.9071 12.0949C60.9071 13.5708 60.9444 14.8015 60.1975 16.1123C59.5946 17.1779 58.6343 17.8333 57.5725 17.8333C56.116 17.8333 55.2624 16.725 55.2624 15.0893C55.2624 11.8604 58.1594 11.2743 60.9071 11.2743V12.0949ZM64.7324 21.3285C64.4817 21.5523 64.1189 21.5683 63.8361 21.4191C62.577 20.3748 62.3476 19.8899 61.6593 18.8936C59.5786 21.0142 58.1007 21.6482 55.4064 21.6482C52.2106 21.6482 49.7297 19.6821 49.7297 15.7446C49.7297 12.6703 51.3943 10.5763 53.7739 9.55334C55.8333 8.64756 58.7089 8.48772 60.9071 8.23729V7.74711C60.9071 6.84665 60.9764 5.78102 60.4429 5.00312C59.9841 4.30513 59.0984 4.01741 58.3141 4.01741C56.8683 4.01741 55.5825 4.75802 55.2677 6.29252C55.2037 6.63353 54.9529 6.9692 54.6061 6.98518L50.9302 6.5909C50.6207 6.52164 50.2739 6.27121 50.3646 5.79701C51.2076 1.34269 55.241 0 58.8477 0C60.6937 0 63.1052 0.490189 64.5617 1.88616C66.4077 3.60714 66.2316 5.90357 66.2316 8.40247V14.306C66.2316 16.0803 66.9679 16.8582 67.6615 17.8173C67.9016 18.1583 67.9549 18.5685 67.6455 18.8243C66.8719 19.469 65.4954 20.6678 64.7378 21.3392L64.7324 21.3285" fill="#74767C"/>
<path fill-rule="evenodd" clip-rule="evenodd" d="M11.1773 12.0949C11.1773 13.5708 11.2147 14.8015 10.4677 16.1123C9.86486 17.1779 8.90985 17.8333 7.8428 17.8333C6.38628 17.8333 5.53798 16.725 5.53798 15.0893C5.53798 11.8604 8.43501 11.2743 11.1773 11.2743V12.0949ZM15.0027 21.3285C14.7519 21.5523 14.3891 21.5683 14.1064 21.4191C12.8473 20.3748 12.6232 19.8899 11.9296 18.8936C9.84885 21.0142 8.37633 21.6482 5.67669 21.6482C2.48622 21.6482 0 19.6821 0 15.7446C0 12.6703 1.66993 10.5763 4.04411 9.55334C6.10351 8.64756 8.97921 8.48772 11.1773 8.23729V7.74711C11.1773 6.84665 11.2467 5.78102 10.7185 5.00312C10.2543 4.30513 9.36868 4.01741 8.58974 4.01741C7.14389 4.01741 5.85276 4.75802 5.53798 6.29252C5.47396 6.63353 5.2232 6.9692 4.88175 6.98518L1.20043 6.5909C0.890985 6.52164 0.549529 6.27121 0.634893 5.79701C1.4832 1.34269 5.5113 0 9.11793 0C10.9639 0 13.3754 0.490189 14.832 1.88616C16.678 3.60714 16.5019 5.90357 16.5019 8.40247V14.306C16.5019 16.0803 17.2382 16.8582 17.9317 17.8173C18.1772 18.1583 18.2305 18.5685 17.9211 18.8243C17.1475 19.469 15.771 20.6678 15.0134 21.3392L15.0027 21.3285" fill="#74767C"/>
</svg>
