<svg width="140" height="48" viewBox="0 0 140 48" fill="none" xmlns="http://www.w3.org/2000/svg">
<path d="M59.3194 24.2221C59.3194 30.7782 54.1998 35.6093 47.9168 35.6093C41.6338 35.6093 36.5142 30.7782 36.5142 24.2221C36.5142 17.6198 41.6338 12.8349 47.9168 12.8349C54.1998 12.8349 59.3194 17.6198 59.3194 24.2221ZM54.3279 24.2221C54.3279 20.1252 51.3606 17.322 47.9168 17.322C44.4729 17.322 41.5057 20.1252 41.5057 24.2221C41.5057 28.278 44.4729 31.1222 47.9168 31.1222C51.3606 31.1222 54.3279 28.2728 54.3279 24.2221Z" fill="#DDDDDD"/>
<path d="M83.9181 24.2221C83.9181 30.7782 78.7984 35.6093 72.5154 35.6093C66.2324 35.6093 61.1128 30.7782 61.1128 24.2221C61.1128 17.6249 66.2324 12.8349 72.5154 12.8349C78.7984 12.8349 83.9181 17.6198 83.9181 24.2221ZM78.9265 24.2221C78.9265 20.1252 75.9593 17.322 72.5154 17.322C69.0716 17.322 66.1043 20.1252 66.1043 24.2221C66.1043 28.278 69.0716 31.1222 72.5154 31.1222C75.9593 31.1222 78.9265 28.2728 78.9265 24.2221Z" fill="#DDDDDD"/>
<path d="M107.492 13.5229V33.9664C107.492 42.3759 102.542 45.8105 96.6892 45.8105C91.18 45.8105 87.8643 42.1192 86.6139 39.1004L90.9597 37.2881C91.7335 39.1415 93.6297 41.3285 96.6841 41.3285C100.43 41.3285 102.752 39.0131 102.752 34.6544V33.0166H102.578C101.46 34.3977 99.3079 35.6042 96.5918 35.6042C90.9084 35.6042 85.7017 30.6447 85.7017 24.2632C85.7017 17.8354 90.9084 12.8349 96.5918 12.8349C99.3028 12.8349 101.455 14.0414 102.578 15.3814H102.752V13.528H107.492V13.5229ZM103.105 24.2632C103.105 20.2535 100.435 17.322 97.0377 17.322C93.5938 17.322 90.7086 20.2535 90.7086 24.2632C90.7086 28.2317 93.5938 31.1222 97.0377 31.1222C100.435 31.1222 103.105 28.2317 103.105 24.2632Z" fill="#DDDDDD"/>
<path d="M115.308 1.54013V34.911H110.439V1.54013H115.308Z" fill="#DDDDDD"/>
<path d="M134.279 27.9699L138.154 30.5574C136.903 32.4108 133.89 35.6041 128.683 35.6041C122.226 35.6041 117.403 30.6036 117.403 24.2169C117.403 17.4452 122.267 12.8297 128.124 12.8297C134.023 12.8297 136.908 17.5325 137.851 20.0738L138.369 21.3676L123.174 27.6721C124.337 29.9567 126.146 31.1221 128.683 31.1221C131.225 31.1221 132.988 29.8694 134.279 27.9699ZM122.354 23.8729L132.511 19.6477C131.953 18.2256 130.272 17.2347 128.293 17.2347C125.757 17.2347 122.226 19.4783 122.354 23.8729Z" fill="#DDDDDD"/>
<path d="M18.0854 21.2598V16.4287H34.3361C34.495 17.2707 34.577 18.2667 34.577 19.3448C34.577 22.9694 33.5879 27.4514 30.4003 30.6447C27.2998 33.8791 23.3383 35.6041 18.0905 35.6041C8.36371 35.6041 0.18457 27.667 0.18457 17.9227C0.18457 8.17838 8.36371 0.241241 18.0905 0.241241C23.4716 0.241241 27.3049 2.35644 30.185 5.11339L26.7822 8.52236C24.7169 6.58171 21.9187 5.07232 18.0854 5.07232C10.9825 5.07232 5.42722 10.807 5.42722 17.9227C5.42722 25.0384 10.9825 30.773 18.0854 30.773C22.6926 30.773 25.3165 28.9197 26.9974 27.2357C28.3606 25.8701 29.2574 23.9192 29.611 21.2546L18.0854 21.2598Z" fill="#DDDDDD"/>
</svg>
