<svg width="195" height="48" viewBox="0 0 195 48" fill="none" xmlns="http://www.w3.org/2000/svg">
<g clip-path="url(#clip0)">
<path fill-rule="evenodd" clip-rule="evenodd" d="M41.7985 7.23885e-06H5.97121C4.39023 -0.00245915 2.87301 0.625419 1.75323 1.74555C0.633445 2.86568 0.00280374 4.38634 0 5.97309L0 41.8116C0 45.1101 2.67415 47.7847 5.97121 47.7847H41.7985C43.3795 47.7871 44.8967 47.1593 46.0165 46.0391C47.1362 44.919 47.7669 43.3983 47.7697 41.8116V5.97309C47.7697 2.67462 45.0969 7.23885e-06 41.7985 7.23885e-06ZM30.2528 8.76053C30.2528 7.88182 30.967 7.16771 31.8465 7.16771C32.7259 7.16771 33.4388 7.88182 33.4388 8.76053V30.042C33.4388 30.9207 32.7246 31.6348 31.8465 31.6348C31.425 31.6351 31.0205 31.4676 30.722 31.169C30.4235 30.8703 30.2552 30.465 30.2541 30.042V8.76053H30.2528ZM22.2912 7.95482C22.2912 7.07479 23.0054 6.362 23.8848 6.362C24.7643 6.362 25.4785 7.07479 25.4785 7.95482V31.0507C25.4785 31.9308 24.7643 32.6436 23.8848 32.6436C23.4633 32.6439 23.0589 32.4764 22.7604 32.1777C22.4618 31.8791 22.2936 31.4738 22.2925 31.0507V7.95482H22.2912ZM14.3309 8.76053C14.3309 7.88182 15.0451 7.16771 15.9232 7.16771C16.8027 7.16771 17.5156 7.88182 17.5156 8.76053V30.042C17.5156 30.9207 16.8027 31.6348 15.9232 31.6348C15.5017 31.6351 15.0973 31.4676 14.7988 31.169C14.5002 30.8703 14.332 30.465 14.3309 30.042V8.76053ZM6.36929 11.9462C6.36929 11.0661 7.08214 10.3533 7.96162 10.3533C8.8411 10.3533 9.55394 11.0661 9.55394 11.9462V26.2723C9.55394 27.1523 8.83978 27.8651 7.96162 27.8651C7.75286 27.8654 7.54607 27.8245 7.35307 27.7447C7.16007 27.6648 6.98463 27.5476 6.83677 27.3997C6.68891 27.2518 6.57152 27.0761 6.49131 26.8826C6.4111 26.6892 6.36964 26.4818 6.36929 26.2723V11.9462ZM40.8449 36.242C40.6003 36.4544 34.7005 41.4041 23.8848 41.4041C13.0692 41.4041 7.17339 36.4531 6.92475 36.2407C6.76628 36.1049 6.63609 35.939 6.54165 35.7525C6.4472 35.5661 6.39036 35.3628 6.37439 35.1542C6.35841 34.9457 6.38362 34.7361 6.44856 34.5373C6.5135 34.3386 6.6169 34.1547 6.75283 33.9961C7.02765 33.6761 7.41738 33.4781 7.83704 33.4453C8.25671 33.4125 8.67229 33.5475 8.99319 33.8209C9.08576 33.8992 14.3534 38.2184 23.8835 38.2184C33.5327 38.2184 38.7196 33.8674 38.7699 33.8249C39.0904 33.5494 39.5066 33.4128 39.9273 33.4449C40.3481 33.477 40.7389 33.6752 41.0142 33.9961C41.151 34.1543 41.2552 34.3381 41.3208 34.5369C41.3863 34.7358 41.412 34.9457 41.3962 35.1545C41.3805 35.3633 41.3237 35.567 41.2291 35.7536C41.1344 35.9403 41.0039 36.1063 40.8449 36.242ZM41.4004 26.2736C41.4004 27.1523 40.6862 27.8664 39.8081 27.8664C39.5993 27.8668 39.3925 27.8259 39.1995 27.746C39.0065 27.6661 38.8311 27.5489 38.6832 27.401C38.5354 27.2531 38.418 27.0774 38.3378 26.884C38.2576 26.6905 38.2161 26.4831 38.2158 26.2736V11.9462C38.2158 11.0661 38.9286 10.3533 39.8068 10.3533C40.6862 10.3533 41.4004 11.0661 41.4004 11.9462V26.2723V26.2736ZM67.7068 30.91C67.7108 31.105 67.6754 31.2987 67.6029 31.4796C67.5304 31.6604 67.4222 31.8247 67.2849 31.9626C67.1475 32.1005 66.9838 32.209 66.8036 32.2818C66.6234 32.3546 66.4304 32.39 66.2362 32.3861C65.395 32.3861 64.7893 31.7184 64.7893 30.91V16.8375C64.7893 16.0278 65.3963 15.3614 66.26 15.3614C67.0998 15.3614 67.7068 16.0278 67.7068 16.8375V30.91ZM86.57 16.8375V29.6968C86.57 31.4357 85.6601 32.4113 84.2133 32.4113H84.0969C82.7201 32.4113 82.0655 31.6016 81.4823 30.411L78.5409 24.5759L75.9263 18.5524L75.9964 24.3874L76.0189 30.8875C76.0229 31.0824 75.9875 31.2761 75.915 31.457C75.8425 31.6379 75.7343 31.8022 75.597 31.94C75.4596 32.0779 75.2959 32.1865 75.1157 32.2592C74.9355 32.332 74.7425 32.3675 74.5482 32.3635C73.7084 32.3635 73.1014 31.6958 73.1014 30.8875V18.0281C73.1014 16.4313 74.0113 15.3123 75.601 15.3123H75.716C77.1867 15.3123 77.7937 16.122 78.3783 17.3127L81.2733 23.0999L83.7464 28.7212L83.6776 23.3388L83.6538 16.8388C83.6538 16.0291 84.2609 15.3628 85.1245 15.3628C85.9643 15.3614 86.57 16.0265 86.57 16.8361V16.8375ZM98.2678 30.8875C98.2717 31.0824 98.2364 31.2761 98.1639 31.457C98.0914 31.6379 97.9832 31.8022 97.8458 31.94C97.7085 32.0779 97.5448 32.1865 97.3646 32.2592C97.1843 32.332 96.9913 32.3675 96.7971 32.3635C95.9573 32.3635 95.3503 31.6958 95.3503 30.8875V18.1476H91.7305C90.9833 18.1476 90.3762 17.5768 90.3762 16.7432C90.3762 15.9335 90.9846 15.3628 91.7305 15.3628H101.885C102.632 15.3628 103.239 15.9335 103.239 16.7671C103.239 17.5768 102.632 18.1476 101.885 18.1476H98.2664V30.8875H98.2678ZM107.045 30.4096V17.1945C107.045 15.9574 107.723 15.2672 108.96 15.3137H117.365C118.112 15.3137 118.718 15.9083 118.718 16.718C118.718 17.5277 118.112 18.0984 117.365 18.0984H109.942V22.1947H116.501C117.226 22.1947 117.811 22.7428 117.811 23.5286C117.811 24.3144 117.226 24.8613 116.501 24.8613H109.942V29.5761H117.366C118.114 29.5761 118.719 30.1707 118.719 30.9817C118.719 31.7914 118.114 32.3622 117.366 32.3622H108.892C107.679 32.3622 107 31.6719 107.048 30.411L107.045 30.4096ZM134.619 32.4338C135.436 32.0051 135.693 31.1237 135.296 30.4335L132.378 25.148C134.783 24.6715 136.185 22.8623 136.185 20.4094C136.185 17.8383 134.598 15.3137 130.791 15.3137H125.257C124.02 15.2672 123.343 15.9574 123.343 17.1945V30.9114C123.343 31.7211 123.95 32.3874 124.79 32.3874C124.984 32.3914 125.177 32.3559 125.357 32.2831C125.537 32.2104 125.701 32.1018 125.838 31.9639C125.976 31.8261 126.084 31.6618 126.157 31.4809C126.229 31.3 126.264 31.1063 126.26 30.9114L126.237 25.7214H129.318L132.564 31.8405C132.96 32.5307 133.824 32.84 134.617 32.4338H134.619ZM130.859 23.0282H126.237V18.0971H130.836C132.377 18.0971 133.241 19.0966 133.241 20.5501C133.241 22.0035 132.425 23.0282 130.86 23.0282H130.859ZM142.206 31.0999C140.455 29.5057 139.662 27.005 139.662 23.8618C139.662 20.6947 140.431 18.2192 142.16 16.6477C143.234 15.6946 144.681 15.0508 146.782 15.0508C148.627 15.0508 150.051 15.4809 151.125 16.4087C152.059 17.1706 152.736 18.2431 153.133 19.743C153.343 20.5288 152.806 21.3146 151.92 21.4819C151.079 21.6239 150.403 21.077 150.145 20.2912C149.866 19.5293 149.491 18.9825 149.048 18.6002C148.441 18.052 147.695 17.8144 146.713 17.8144C145.663 17.8144 144.751 18.1237 144.075 18.8139C143.094 19.8134 142.673 21.6013 142.673 23.8618C142.673 26.101 143.07 27.8863 144.099 28.8858C144.774 29.5761 145.663 29.8853 146.689 29.8853C147.763 29.8853 148.579 29.6013 149.258 28.9575C149.607 28.6243 149.912 28.1956 150.121 27.6965C150.426 26.9572 151.055 26.409 151.872 26.6001C152.688 26.7913 153.203 27.5996 152.946 28.3854C152.524 29.6942 151.802 30.7428 150.822 31.4569C149.748 32.2427 148.417 32.6489 146.737 32.6489C144.589 32.6489 143.234 32.0051 142.206 31.1012V31.0999ZM163.64 15.0522C158.572 15.0522 156.425 18.5285 156.425 23.8618C156.425 29.3624 158.55 32.6728 163.64 32.6728C168.635 32.6728 170.831 29.3624 170.831 23.8618C170.831 18.4329 168.659 15.0508 163.64 15.0508V15.0522ZM163.617 17.8383C166.394 17.8383 167.842 19.8134 167.842 23.8618C167.842 27.9102 166.37 29.8853 163.617 29.8853C160.838 29.8853 159.436 27.9102 159.436 23.8618C159.436 19.8147 160.884 17.8383 163.617 17.8383ZM193.477 30.8875C193.48 31.0824 193.445 31.2761 193.373 31.457C193.3 31.6379 193.192 31.8022 193.055 31.94C192.917 32.0779 192.754 32.1865 192.573 32.2592C192.393 32.332 192.2 32.3675 192.006 32.3635C191.165 32.3635 190.559 31.6958 190.559 30.8875V24.5056L190.628 18.2896L188.596 24.6011L186.543 30.8158C186.193 31.9109 185.469 32.3409 184.559 32.3409C183.601 32.3409 182.9 31.8883 182.527 30.7932L180.426 24.6025L178.487 18.3878L178.557 24.5069V30.8888C178.561 31.0837 178.526 31.2774 178.453 31.4583C178.381 31.6392 178.273 31.8035 178.135 31.9414C177.998 32.0792 177.834 32.1878 177.654 32.2606C177.474 32.3333 177.281 32.3688 177.086 32.3648C176.247 32.3648 175.64 31.6972 175.64 30.8888V18.1489C175.64 16.3862 176.573 15.3614 178.208 15.3614C179.749 15.3614 180.612 16.195 181.102 17.7202L183.249 24.2202L184.557 28.6496L185.888 24.2202L188.036 17.7202C188.526 16.195 189.367 15.3628 190.908 15.3628C192.543 15.3628 193.453 16.3623 193.453 18.1502L193.477 30.8875Z" fill="#DDDDDD"/>
</g>
<defs>
<clipPath id="clip0">
<rect width="194.412" height="47.7847" fill="white"/>
</clipPath>
</defs>
</svg>
