<svg width="146" height="40" viewBox="0 0 146 40" fill="none" xmlns="http://www.w3.org/2000/svg">
<g clip-path="url(#clip0)">
<path d="M20.0019 36.8403C17.8137 37.2252 15.587 37.3406 13.2835 37.648L6.25772 17.0359V38.5326C4.06948 38.7633 2.07317 39.0709 0 39.3786V0H5.83567L13.8209 22.343V0H20.0019V36.8403ZM32.0953 14.4209C34.4758 14.4209 38.1229 14.3055 40.3111 14.3055V20.4582C37.5852 20.4582 34.3989 20.4582 32.0953 20.5736V29.7262C35.7043 29.4956 39.3131 29.1876 42.9601 29.0722V34.9941L25.9525 36.3403V0H42.9601V6.15291H32.0953V14.4209ZM65.803 6.15305H59.4301V34.4563C57.3569 34.4563 55.2837 34.4563 53.2877 34.533V6.15305H46.9148V0H65.8033L65.803 6.15305ZM75.7847 13.998H84.1926V20.1507H75.7847V34.1103H69.7568V0H86.9184V6.15291H75.7847V13.998ZM96.9001 28.7263C100.394 28.803 103.926 29.0727 107.343 29.2646V35.3407C101.853 34.9944 96.3627 34.6487 90.7576 34.533V0H96.9001V28.7263ZM112.525 35.7637C114.483 35.8793 116.557 35.9947 118.553 36.225V0H112.525V35.7637ZM145.466 0L137.672 18.7279L145.466 39.3786C143.162 39.0709 140.858 38.6479 138.555 38.2633L134.14 26.8806L129.649 37.3406C127.421 36.9557 125.272 36.8403 123.045 36.5327L130.954 18.497L123.813 0H130.416L134.447 10.3446L138.747 0H145.466V0Z" fill="#DDDDDD"/>
</g>
<defs>
<clipPath id="clip0">
<rect width="145.466" height="39.3786" fill="white"/>
</clipPath>
</defs>
</svg>
