<svg width="172" height="41" viewBox="0 0 172 41" fill="none" xmlns="http://www.w3.org/2000/svg">
<path fill-rule="evenodd" clip-rule="evenodd" d="M0 36.7593C0 38.9676 1.42847 40.3998 3.63051 40.3998L14.238 40.4C20.5659 40.4 25.7423 38.2529 29.2616 34.4943H0V36.7593ZM14.238 0.000201999L3.63051 0C1.42847 0 0 1.43237 0 3.64062V5.90564H29.2616C25.7423 2.14705 20.5659 0.000201999 14.238 0.000201999ZM23.4952 25.9564C23.4952 27.7429 24.6557 28.902 26.445 28.902H32.8011C33.5217 27.109 34.0058 25.1379 34.2308 23.0109H26.445C24.6557 23.0109 23.4952 24.1698 23.4952 25.9564ZM14.685 14.4581C14.685 16.2447 15.8456 17.4036 17.6348 17.4036H34.2308C34.0058 15.2766 33.5217 13.3055 32.8011 11.5125H17.6348C15.8456 11.5125 14.685 12.6714 14.685 14.4581ZM17.6328 25.9564C17.6328 24.1698 16.4723 23.0109 14.683 23.0109H0V28.902H14.683C16.4723 28.902 17.6328 27.7431 17.6328 25.9564ZM8.82265 14.4581C8.82265 12.6714 7.66211 11.5125 5.87284 11.5125H0V17.4036H5.87284C7.66211 17.4036 8.82265 16.2447 8.82265 14.4581Z" fill="#DDDDDD"/>
<path fill-rule="evenodd" clip-rule="evenodd" d="M74.6477 19.5916C75.1204 17.2861 76.6472 16.1139 78.654 16.1139C80.6436 16.1139 82.0984 17.3387 82.5625 19.5916H74.6477ZM78.7631 12.1199C73.6533 12.1199 70.4751 16.2241 70.4751 21.2443C70.4751 26.4436 73.8713 30.2999 78.919 30.2999C82.4002 30.2999 84.5118 28.6815 85.8187 26.6435L82.5691 24.5564C81.7521 25.6784 80.4448 26.2713 79.0436 26.2713C76.7514 26.2713 75.2164 25.1924 74.6933 23.0347H83.2706C83.2698 23.0375 83.2692 23.0403 83.2684 23.0433L86.3952 23.0618C86.5138 22.494 86.5837 21.9073 86.5837 21.2443C86.5837 16.8715 83.9041 12.1199 78.7631 12.1199Z" fill="#DDDDDD"/>
<path fill-rule="evenodd" clip-rule="evenodd" d="M57.3868 26.2599C54.2428 26.2599 52.3528 23.9988 52.3528 21.2098C52.3528 18.4208 54.2791 16.1599 57.3868 16.1599C60.4945 16.1599 62.4207 18.4208 62.4207 21.2098C62.4207 23.9988 60.5307 26.2599 57.3868 26.2599ZM62.0781 14.7891C60.8228 13.2765 59.0403 12.3493 56.8278 12.3493C51.8824 12.3493 48.3257 16.3678 48.3257 21.3246C48.3257 26.2816 51.8486 30.2999 56.8278 30.2999C59.0403 30.2999 60.8228 29.3727 62.0781 27.8601V29.8579H66.4479V6.05994H62.0781V14.7891Z" fill="#DDDDDD"/>
<path fill-rule="evenodd" clip-rule="evenodd" d="M99.9465 20.9115C101.133 21.7429 101.885 22.9896 101.885 24.6346C101.885 27.9593 99.6509 30.266 95.4744 30.266C91.544 30.266 89.4364 28.2457 88.5972 26.2052L92.2047 24.0919C92.2047 24.0919 92.6903 26.2969 95.4097 26.2969C97.0931 26.2969 97.6112 25.5505 97.6112 24.8914C97.6112 24.586 97.514 24.0241 96.3162 23.549C93.9103 22.5952 89.2585 22.1673 89.2585 17.8159C89.2585 14.2541 92.0415 12.3544 95.4744 12.3544C98.6844 12.3544 100.746 14.3581 101.529 15.9171L97.9997 17.9856C97.9997 17.9856 97.3198 16.2554 95.5069 16.2554C93.6939 16.2554 93.532 17.3072 93.532 17.6124C93.532 18.503 94.4369 18.8686 96.381 19.4445C97.532 19.7853 98.7142 20.0949 99.9502 20.9084C99.949 20.9094 99.9477 20.9105 99.9465 20.9115ZM171.154 17.0357H167.495V24.0917C167.495 26.297 169.632 25.8219 171.154 25.8219V29.791C171.154 29.791 170.352 29.9267 168.952 29.9267C165.844 29.9267 163.319 28.9769 163.319 24.0917V17.0357H160.502V12.8291H163.319V8.07983H167.495V12.8291H171.154V17.0357ZM112.267 25.9916C114 25.9916 115.333 25.1253 116.006 23.7043L119.627 25.8794C118.208 28.4862 115.565 30.2998 112.267 30.2998C107.266 30.2998 103.769 26.2902 103.769 21.3441C103.769 16.3979 107.298 12.3882 112.267 12.3882C115.517 12.3882 118.15 14.1723 119.584 16.7445L115.971 18.9692C115.285 17.5668 113.963 16.6965 112.267 16.6965C109.74 16.6965 107.945 18.7773 107.945 21.3441C107.945 23.9108 109.723 25.9916 112.267 25.9916Z" fill="#DDDDDD"/>
<path fill-rule="evenodd" clip-rule="evenodd" d="M150.659 25.9453C147.939 25.9453 146.303 23.8175 146.303 21.1929C146.303 18.5684 147.97 16.4408 150.659 16.4408C153.348 16.4408 155.015 18.5684 155.015 21.1929C155.015 23.8175 153.38 25.9453 150.659 25.9453ZM151.178 12.295C155.77 12.295 159.072 16.2789 159.072 21.1929C159.072 26.1072 155.802 30.0908 151.178 30.0908C149.124 30.0908 147.469 29.1716 146.303 27.672V36.3598H142.246V12.767H146.303V14.7138C147.469 13.2142 149.124 12.295 151.178 12.295ZM134.446 29.6526V12.8006H138.504V29.6526H134.446ZM126.885 15.6792C127.668 13.6371 129.263 12.469 131.666 12.4638V17.3171C128.849 17.0316 126.814 18.5324 126.889 22.0777C126.887 22.0752 126.886 22.0724 126.885 22.0697V29.6526H122.828V12.8008H126.885V15.6792ZM134.446 10.5516V6.05981H138.637V10.5516H134.446Z" fill="#DDDDDD"/>
</svg>
