<svg width="199" height="50" viewBox="0 0 199 50" fill="none" xmlns="http://www.w3.org/2000/svg">
<path fill-rule="evenodd" clip-rule="evenodd" d="M14.3558 5.98478L25.6117 13.1301L36.8684 5.98474L48.1329 13.1355L36.947 20.2362L48.133 27.3372L36.8682 34.4881L25.6119 27.3426L14.3556 34.4881L3.09082 27.3372L14.2767 20.2363L3.09084 13.1356L14.3558 5.98478ZM25.6118 13.1409L36.7893 20.2363L25.6119 27.3317L14.4344 20.2362L25.6118 13.1409ZM25.6928 44.0088L14.428 36.8578L25.6928 29.7077L36.9578 36.8578L25.6928 44.0088Z" fill="#DDDDDD"/>
<path fill-rule="evenodd" clip-rule="evenodd" d="M178.137 37.0659L185.562 27.0826L178.713 17.6498H184.579L188.546 23.5353L192.546 17.6498H198.378L191.428 27.0488L198.751 37.0659H192.987L188.478 30.7313L184.104 37.0659H178.137Z" fill="#DDDDDD"/>
<path fill-rule="evenodd" clip-rule="evenodd" d="M159.15 27.7415C159.15 34.1604 162.71 37.5726 169.016 37.5726C174.916 37.5726 178.917 34.1604 178.917 27.7415V27.2009C178.917 20.7144 174.848 17.1333 169.016 17.1333C163.32 17.1333 159.15 20.6468 159.15 27.2009V27.7415ZM173.763 27.6738C173.763 31.2211 171.966 33.1468 169.016 33.1468C166.101 33.1468 164.304 31.1873 164.304 27.6738V27.2008C164.304 23.417 166.202 21.4238 169.05 21.4238C171.932 21.4238 173.763 23.5521 173.763 27.2008V27.6738Z" fill="#DDDDDD"/>
<path fill-rule="evenodd" clip-rule="evenodd" d="M142.303 33.5186C143.354 36.0186 145.456 37.5727 148.677 37.5727C153.661 37.5727 156.916 33.924 156.916 27.4375V26.8632C156.916 20.3766 153.458 17.1672 148.813 17.1334C145.727 17.1334 143.557 18.5185 142.472 21.0523V11.0522H137.488V37.0659H141.896L142.303 33.5186ZM151.796 27.4376C151.796 31.2889 149.999 33.1808 147.05 33.1808C144.235 33.1808 142.371 31.0862 142.371 27.4376V27.0321C142.371 23.6875 144.303 21.424 147.117 21.424C149.83 21.424 151.796 23.3835 151.796 26.9646V27.4376Z" fill="#DDDDDD"/>
<path fill-rule="evenodd" clip-rule="evenodd" d="M115.285 17.6498V43.6673H120.269V33.924C121.32 36.1875 123.389 37.5726 126.508 37.5726C131.119 37.5726 134.747 34.228 134.747 27.8091V27.2685C134.747 20.7144 131.492 17.1333 126.508 17.1333C123.287 17.1333 121.117 18.7887 120.066 21.2887L119.557 17.6498H115.285ZM129.593 27.7076C129.593 31.2887 127.728 33.2144 124.813 33.2144C121.998 33.2144 120.168 31.0522 120.168 27.6062V27.2346C120.168 23.6197 122.066 21.4575 124.914 21.4575C127.593 21.4575 129.593 23.3832 129.593 27.2684V27.7076Z" fill="#DDDDDD"/>
<path fill-rule="evenodd" clip-rule="evenodd" d="M92.8647 27.7415C92.8647 34.1604 96.4587 37.5726 102.765 37.5726C108.665 37.5726 112.632 34.1604 112.632 27.7415V27.2009C112.632 20.7144 108.597 17.1333 102.765 17.1333C97.069 17.1333 92.8647 20.6468 92.8647 27.2009V27.7415ZM107.478 27.6738C107.478 31.2211 105.647 33.1468 102.731 33.1468C99.8154 33.1468 98.0184 31.1873 98.0184 27.6738V27.2008C98.0184 23.417 99.9171 21.4238 102.765 21.4238C105.647 21.4238 107.478 23.5521 107.478 27.2008V27.6738Z" fill="#DDDDDD"/>
<path fill-rule="evenodd" clip-rule="evenodd" d="M79.3706 37.0659H84.4564V28.1469C84.4564 24.0252 85.4736 22.5725 89.6778 22.5725H91.78V17.4036H90.5255C86.8976 17.4036 84.8972 18.9914 84.1174 22.0995L83.4732 17.6498H79.3706V37.0659Z" fill="#DDDDDD"/>
<path fill-rule="evenodd" clip-rule="evenodd" d="M56.7808 12.9967V37.0659H66.0456C72.0808 37.0659 76.6241 33.5524 76.6241 25.7821V24.1267C76.6241 16.3901 71.8095 12.9967 65.91 12.9967H56.7808ZM61.8471 17.3361H65.6388C69.0632 17.3361 71.4027 19.532 71.4027 24.3632V25.6132C71.4027 30.4443 69.131 32.6402 65.8083 32.6402H61.8471V17.3361Z" fill="#DDDDDD"/>
</svg>
