<svg width="180" height="46" viewBox="0 0 180 46" fill="none" xmlns="http://www.w3.org/2000/svg">
<path d="M57.9074 17.6385C57.9074 14.4214 54.779 11.0046 49.3655 11.0046C43.2863 11.0046 36.6081 15.4642 35.5875 24.361C34.5447 33.3467 40.1358 37.3403 45.7712 37.3403C51.4067 37.3403 54.3575 35.1438 57.3749 32.2151C54.779 28.9537 51.4288 30.4624 50.7854 30.7952C50.0754 31.1502 49.1658 31.6383 47.3021 31.6383C45.1278 31.6383 42.9091 30.6621 42.9091 26.6019C56.8424 25.2263 57.9074 20.8555 57.9074 17.6385ZM51.0073 18.1709C50.9185 19.1693 50.5192 20.8777 43.4638 21.8317C44.9503 16.5513 47.7902 16.1519 49.0992 16.1519C50.3195 16.1519 51.096 17.106 51.0073 18.1709ZM27.4006 19.0362C27.4006 19.0362 24.4054 28.4434 24.1613 29.2199C24.0726 28.4212 21.8761 11.5371 21.8761 11.5371C16.7732 11.5371 14.0442 15.1757 12.6021 19.014C12.6021 19.014 8.96344 28.4434 8.65282 29.2421C8.63064 28.5099 8.09816 19.125 8.09816 19.125C7.78754 14.4214 3.48332 11.5593 0 11.5593L4.21548 37.1406C9.56248 37.1184 12.4468 33.502 13.9555 29.6637C13.9555 29.6637 17.1725 21.3436 17.3056 20.9665C17.3278 21.3214 19.6131 37.1406 19.6131 37.1406C24.9823 37.1406 27.8665 33.746 29.4196 30.0408L36.9409 11.5593C31.6383 11.5593 28.8427 15.1757 27.4006 19.0362ZM77.6092 10.9602C74.3034 10.9602 71.7741 12.7574 69.6441 15.3976V15.3754L71.5522 0C67.1592 0 63.5872 3.81612 62.8994 9.49592L59.5714 36.9409C62.1007 36.9409 64.7852 36.2087 66.2274 34.3451C67.5142 36.0091 69.4445 37.3403 72.3065 37.3403C79.7169 37.3403 84.7977 28.7318 84.7977 20.6558C84.7533 13.2899 81.1812 10.9602 77.6092 10.9602ZM76.9214 24.1613C76.1449 28.6653 73.6378 31.727 71.2194 31.727C68.7789 31.727 67.7361 30.6399 67.7361 30.6399C68.202 26.6906 68.4904 24.2723 69.3779 22.1867C70.2654 20.1012 72.3731 16.7732 74.5696 16.7732C76.7217 16.7732 77.6979 19.6353 76.9214 24.1613ZM103.301 11.5593H98.1319L98.1541 11.293C98.5091 7.92066 99.3078 6.14572 101.948 5.8573C103.745 5.6798 104.544 4.74796 104.744 3.72737C104.899 2.92865 105.387 0.155307 105.387 0.155307C95.0036 0.0887469 91.7421 4.57047 90.899 11.404L90.8768 11.5593H90.7659C89.0797 11.5593 87.216 13.4673 86.9054 15.8857L86.7945 16.7732H90.2556L87.3492 40.7792L86.4617 45.0834C86.5726 45.0834 86.7057 45.1056 86.8167 45.1056C91.6756 44.9281 94.7817 41.0898 95.4695 35.521L97.7325 16.7732H99.3522C100.95 16.7732 102.813 15.1757 103.146 12.5133L103.301 11.5593ZM130.192 11.1156C124.223 11.1156 118.588 15.5085 116.858 22.4086C115.127 29.3087 117.745 37.4734 126.531 37.4734C135.295 37.4734 140.353 28.9759 140.353 21.8983C140.353 14.8651 135.583 11.1156 130.192 11.1156ZM132.61 23.9395C132.299 27.0678 130.924 31.8158 127.152 31.8158C123.358 31.8158 123.891 26.2691 124.268 23.6289C124.667 20.8112 126.242 16.7954 129.637 16.7954C132.677 16.7954 132.965 20.4118 132.61 23.9395ZM169.839 19.0362C169.839 19.0362 166.844 28.4434 166.6 29.2199C166.511 28.4212 164.315 11.5371 164.315 11.5371C159.212 11.5371 156.483 15.1757 155.041 19.014C155.041 19.014 151.402 28.4434 151.092 29.2421C151.069 28.5099 150.537 19.125 150.537 19.125C150.226 14.4214 145.922 11.5593 142.439 11.5593L146.632 37.1406C151.979 37.1184 154.863 33.502 156.372 29.6637C156.372 29.6637 159.589 21.3436 159.7 20.9665C159.744 21.3214 162.008 37.1406 162.008 37.1406C167.377 37.1406 170.261 33.746 171.814 30.0408L179.335 11.5593C174.055 11.5593 171.259 15.1757 169.839 19.0362ZM108.182 0.155307L103.834 35.2325L102.946 39.5589C103.057 39.5589 103.19 39.5811 103.301 39.5811C107.983 39.5146 111.311 35.41 111.932 30.2405L114.439 10.1171C115.193 3.97142 111.533 0.155307 108.182 0.155307Z" fill="#DDDDDD"/>
</svg>
