<svg width="153" height="40" viewBox="0 0 153 40" fill="none" xmlns="http://www.w3.org/2000/svg">
<g clip-path="url(#clip0)">
<path d="M65.8185 26.5454L64.1758 31.6286C64.1543 31.711 64.1051 31.7835 64.0366 31.8339C63.9681 31.8842 63.8844 31.9093 63.7996 31.905H59.8121C59.5736 31.905 59.503 31.7668 59.54 31.5679L66.3896 11.7305C66.6177 11.0554 66.7313 10.3467 66.7255 9.63383C66.7226 9.57519 66.7423 9.51768 66.7804 9.47315C66.8185 9.42862 66.8722 9.40047 66.9304 9.3945H72.4094C72.5807 9.3945 72.6479 9.42821 72.6849 9.60012L80.4582 31.5949C80.5254 31.7668 80.4918 31.905 80.2869 31.905H75.8426C75.761 31.919 75.6772 31.9023 75.6072 31.8582C75.5371 31.814 75.4858 31.7455 75.463 31.6657L73.7161 26.5454H65.8185ZM72.4631 22.2475C71.7913 19.979 70.4073 15.8227 69.7589 13.3822H69.7253C69.1744 15.6845 67.9416 19.4497 67.0379 22.2475H72.4631Z" fill="#DDDDDD"/>
<path d="M81.0054 23.5184C81.0054 18.6037 84.6703 14.4811 90.9387 14.4811C91.2108 14.4811 91.5535 14.5148 92.0675 14.5485V7.77988C92.0637 7.74754 92.0673 7.71476 92.0779 7.684C92.0886 7.65325 92.106 7.62531 92.129 7.60228C92.1519 7.57925 92.1798 7.56174 92.2104 7.55105C92.2411 7.54036 92.2737 7.53677 92.306 7.54055H96.6226C96.794 7.54055 96.8276 7.60797 96.8276 7.74617V28.0555C96.8186 28.8936 96.8646 29.7314 96.9653 30.5634C96.9653 30.7353 96.9317 30.8061 96.7268 30.8735C94.5926 31.7837 92.297 32.2515 89.978 32.2489C84.9089 32.2489 81.0054 29.3634 81.0054 23.5184ZM92.0675 18.6408C91.6592 18.5068 91.2301 18.4485 90.801 18.4688C88.164 18.4688 85.9032 20.0835 85.9032 23.279C85.9032 26.6802 87.8549 28.16 90.4584 28.16C91.0025 28.183 91.5465 28.1135 92.0675 27.9544V18.6408Z" fill="#DDDDDD"/>
<path d="M116.443 23.279C116.443 28.6724 112.949 32.2488 108.018 32.2488C102.159 32.2488 99.5591 27.8162 99.5591 23.3835C99.5591 18.5025 102.811 14.4811 108.085 14.4811C113.601 14.4811 116.443 18.6407 116.443 23.279ZM104.386 23.3127C104.386 26.3465 105.791 28.2611 108.082 28.2611C110.07 28.2611 111.575 26.5454 111.575 23.3835C111.575 20.6868 110.48 18.4688 107.88 18.4688C105.895 18.4688 104.386 20.2554 104.386 23.3127Z" fill="#DDDDDD"/>
<path d="M123.642 7.54062C123.914 7.54062 123.977 7.57433 123.977 7.81366V14.8587C124.915 14.6068 125.882 14.4799 126.853 14.4812C131.892 14.4812 135.073 18.0543 135.073 22.6589C135.073 29.0871 130.004 32.2489 124.8 32.2489C122.979 32.2617 121.166 31.9946 119.426 31.4568C119.365 31.4233 119.314 31.3747 119.279 31.3155C119.243 31.2564 119.223 31.1889 119.221 31.1197V7.77995C119.221 7.60804 119.288 7.54062 119.459 7.54062H123.642ZM125.993 18.5363C125.311 18.5278 124.632 18.6209 123.977 18.8127V28.1432C124.393 28.238 124.818 28.2833 125.244 28.2781C127.847 28.2781 130.209 26.6971 130.209 23.124C130.216 19.979 128.402 18.5363 126.003 18.5363H125.993Z" fill="#DDDDDD"/>
<path d="M141.775 24.6206C141.946 26.5791 143.317 28.1937 146.673 28.1937C148.116 28.2216 149.55 27.952 150.885 27.4015C150.989 27.3341 151.09 27.3678 151.09 27.5735V30.8398C151.09 31.0791 151.023 31.1769 150.852 31.251C149.481 31.905 147.976 32.2623 145.611 32.2623C139.171 32.2623 136.914 27.8296 136.914 23.5689C136.914 18.8261 139.823 14.4946 145.201 14.4946C150.371 14.4946 152.427 18.516 152.427 21.9104C152.451 22.6818 152.394 23.4535 152.256 24.2127C152.251 24.2845 152.221 24.352 152.17 24.4029C152.119 24.4537 152.052 24.4844 151.98 24.4891C150.808 24.6003 149.631 24.6464 148.453 24.6273L141.775 24.6206ZM146.229 21.2868C146.8 21.3078 147.372 21.2841 147.939 21.216V20.9767C147.929 20.6056 147.846 20.2401 147.694 19.9017C147.541 19.5634 147.323 19.2588 147.053 19.0059C146.782 18.7529 146.463 18.5567 146.116 18.4286C145.769 18.3005 145.4 18.2431 145.03 18.2598C142.873 18.2598 141.946 19.8778 141.741 21.2936L146.229 21.2868Z" fill="#DDDDDD"/>
<path d="M28.2617 0H44.833V39.8131L28.2617 0Z" fill="#DDDDDD"/>
<path d="M16.5847 0H0V39.8131L16.5847 0Z" fill="#DDDDDD"/>
<path d="M22.4232 14.6733L32.9814 39.8131H26.0613L22.9036 31.8073H15.1772L22.4232 14.6733Z" fill="#DDDDDD"/>
</g>
<defs>
<clipPath id="clip0">
<rect width="152.427" height="39.8131" fill="white"/>
</clipPath>
</defs>
</svg>
