<svg width="191" height="40" viewBox="0 0 191 40" fill="none" xmlns="http://www.w3.org/2000/svg">
<g clip-path="url(#clip0)">
<path d="M67.1734 23.0388L66.0391 26.2016H65.9446C65.7556 25.4884 65.409 24.4031 64.8419 23.1008L58.761 8.06206H52.8062V32.0311H56.7445V17.2404C56.7445 16.3101 56.7445 15.2559 56.713 13.9535C56.6815 13.3024 56.6185 12.8062 56.587 12.4342H56.6815C56.8706 13.3644 57.0911 14.0466 57.2487 14.4807L64.5583 31.969H67.3309L74.5776 14.3256C74.7351 13.9225 74.8926 13.1163 75.0502 12.4342H75.1447C75.0502 14.2016 74.9872 15.783 74.9557 16.7442V31.938H79.1461V8.00005H73.4118L67.1734 23.0388ZM83.116 14.7597H87.2119V31.938H83.116V14.7597ZM85.1955 7.50392C84.5023 7.50392 83.9352 7.75198 83.4626 8.18609C82.99 8.6202 82.7379 9.17834 82.7379 9.86051C82.7379 10.5117 82.99 11.0698 83.4626 11.5039C83.9352 11.938 84.5023 12.1551 85.1955 12.1551C85.8886 12.1551 86.4873 11.907 86.9284 11.5039C87.401 11.0698 87.653 10.5117 87.653 9.86051C87.653 9.20935 87.401 8.65121 86.9284 8.18609C86.5188 7.75198 85.9201 7.50392 85.1955 7.50392ZM101.737 14.6047C100.981 14.4497 100.193 14.3566 99.4367 14.3566C97.5778 14.3566 95.8764 14.7597 94.4586 15.5659C93.0407 16.3721 91.9065 17.4884 91.1818 18.8838C90.4257 20.3101 90.0476 21.9535 90.0476 23.845C90.0476 25.4884 90.4257 26.9458 91.1503 28.2791C91.875 29.5814 92.8832 30.6357 94.238 31.3489C95.5298 32.0621 97.0422 32.4342 98.7435 32.4342C100.697 32.4342 102.367 32.0311 103.69 31.2869L103.722 31.2559V27.5349L103.564 27.659C102.966 28.0931 102.272 28.4652 101.579 28.6822C100.855 28.9303 100.193 29.0543 99.6257 29.0543C97.9874 29.0543 96.6956 28.5892 95.7819 27.5659C94.8367 26.5737 94.3641 25.2094 94.3641 23.5039C94.3641 21.7365 94.8367 20.3411 95.8134 19.3179C96.7901 18.2946 98.0819 17.7675 99.6572 17.7675C100.981 17.7675 102.335 18.2016 103.564 19.0698L103.722 19.1938V15.2559L103.69 15.2249C103.155 15.0078 102.556 14.7597 101.737 14.6047ZM115.253 14.4807C114.245 14.4807 113.3 14.7907 112.481 15.4419C111.787 16 111.315 16.8062 110.905 17.7675H110.874V14.7597H106.778V31.938H110.874V23.1628C110.874 21.6745 111.189 20.4342 111.882 19.5349C112.575 18.6047 113.457 18.1396 114.529 18.1396C114.907 18.1396 115.285 18.2326 115.757 18.2946C116.198 18.4187 116.514 18.5427 116.734 18.6977L116.892 18.8218V14.7907L116.797 14.7597C116.514 14.5737 115.946 14.4807 115.253 14.4807ZM126.407 14.3876C123.54 14.3876 121.24 15.2249 119.633 16.8683C117.994 18.5117 117.207 20.7752 117.207 23.628C117.207 26.2946 118.026 28.4652 119.601 30.0466C121.177 31.5969 123.319 32.4031 125.997 32.4031C128.801 32.4031 131.038 31.5659 132.645 29.8915C134.284 28.2171 135.071 25.9845 135.071 23.2249C135.071 20.4962 134.315 18.3256 132.771 16.7442C131.29 15.1628 129.116 14.3876 126.407 14.3876ZM129.684 27.5969C128.927 28.5582 127.73 29.0233 126.249 29.0233C124.768 29.0233 123.571 28.5582 122.72 27.5349C121.87 26.5737 121.46 25.1783 121.46 23.4109C121.46 21.5814 121.901 20.1861 122.72 19.1938C123.571 18.2016 124.737 17.7055 126.218 17.7055C127.667 17.7055 128.801 18.1706 129.621 19.1318C130.44 20.0931 130.881 21.4884 130.881 23.3179C130.818 25.1783 130.471 26.6357 129.684 27.5969ZM144.208 21.8915C142.917 21.3644 142.097 20.9613 141.719 20.6202C141.404 20.3101 141.247 19.876 141.247 19.3179C141.247 18.8528 141.436 18.3876 141.908 18.0776C142.381 17.7675 142.917 17.6124 143.704 17.6124C144.397 17.6124 145.122 17.7365 145.815 17.9225C146.508 18.1086 147.138 18.3876 147.643 18.7597L147.8 18.8838V15.1008L147.706 15.0698C147.233 14.8838 146.603 14.6977 145.847 14.5427C145.091 14.4187 144.397 14.3566 143.83 14.3566C141.877 14.3566 140.27 14.8218 139.01 15.845C137.749 16.8062 137.151 18.1086 137.151 19.628C137.151 20.4342 137.277 21.1473 137.56 21.7365C137.844 22.3256 138.253 22.8838 138.821 23.3489C139.388 23.783 140.207 24.2791 141.341 24.7442C142.286 25.1473 143.011 25.4574 143.452 25.7055C143.893 25.9535 144.177 26.2326 144.397 26.4497C144.555 26.6977 144.649 27.0078 144.649 27.4109C144.649 28.5582 143.767 29.1163 141.971 29.1163C141.278 29.1163 140.554 28.9923 139.703 28.7132C138.852 28.4342 138.064 28.0311 137.403 27.5659L137.245 27.4419V31.3799L137.34 31.4109C137.938 31.69 138.663 31.876 139.545 32.0931C140.427 32.2481 141.215 32.3721 141.908 32.3721C144.019 32.3721 145.752 31.907 146.981 30.8838C148.241 29.8915 148.903 28.6202 148.903 26.9768C148.903 25.8295 148.588 24.8062 147.895 24.0311C146.981 23.2869 145.847 22.5117 144.208 21.8915ZM159.71 14.3876C156.843 14.3876 154.543 15.2249 152.936 16.8683C151.329 18.5117 150.51 20.7752 150.51 23.628C150.51 26.2946 151.329 28.4652 152.904 30.0466C154.48 31.5969 156.622 32.4031 159.3 32.4031C162.104 32.4031 164.341 31.5659 165.948 29.8915C167.587 28.2171 168.374 25.9845 168.374 23.2249C168.374 20.4962 167.618 18.3256 166.074 16.7442C164.593 15.1628 162.419 14.3876 159.71 14.3876ZM162.955 27.5969C162.199 28.5582 161.002 29.0233 159.521 29.0233C158.008 29.0233 156.843 28.5582 155.992 27.5349C155.141 26.5737 154.732 25.1783 154.732 23.4109C154.732 21.5814 155.173 20.1861 155.992 19.1938C156.843 18.2016 158.008 17.7055 159.489 17.7055C160.907 17.7055 162.073 18.1706 162.892 19.1318C163.711 20.0931 164.152 21.4884 164.152 23.3179C164.152 25.1783 163.743 26.6357 162.955 27.5969ZM190.272 18.0776V14.7597H186.144V9.67447L186.018 9.70547L182.111 10.8528L182.017 10.8838V14.7597H175.841V12.5892C175.841 11.5969 176.094 10.8218 176.535 10.3256C176.976 9.8295 177.637 9.58144 178.457 9.58144C179.024 9.58144 179.622 9.70547 180.284 9.98454L180.442 10.0776V6.57369L180.347 6.54268C179.78 6.35664 179.024 6.2326 178.047 6.2326C176.818 6.2326 175.747 6.51167 174.77 6.97679C173.794 7.50392 173.069 8.2171 172.533 9.17834C171.998 10.1086 171.714 11.1628 171.714 12.3721V14.7597H168.847V18.0466H171.714V31.938H175.841V18.0776H182.017V26.9148C182.017 30.5427 183.75 32.3721 187.216 32.3721C187.783 32.3721 188.381 32.2791 188.948 32.1861C189.547 32.0621 189.988 31.907 190.24 31.783L190.272 31.752V28.4342L190.114 28.5582C189.862 28.7132 189.642 28.8373 189.264 28.9303C188.948 29.0233 188.665 29.0543 188.444 29.0543C187.625 29.0543 187.058 28.8683 186.648 28.4031C186.27 27.969 186.081 27.2559 186.081 26.2016V18.0776H190.272Z" fill="#DDDDDD"/>
<path d="M0 0H19.3139V19.0078H0V0Z" fill="#DDDDDD"/>
<path d="M21.3306 0H40.6444V19.0078H21.3306V0Z" fill="#DDDDDD"/>
<path d="M0 20.9923H19.3139V40.0001H0V20.9923Z" fill="#DDDDDD"/>
<path d="M21.3306 20.9923H40.6444V40.0001H21.3306V20.9923Z" fill="#DDDDDD"/>
</g>
<defs>
<clipPath id="clip0">
<rect width="190.303" height="40" fill="white"/>
</clipPath>
</defs>
</svg>
