<svg width="14" height="14" viewBox="0 0 14 14" fill="none" xmlns="http://www.w3.org/2000/svg">
<path d="M0.13415 6.80747L2.27642 6.01742C4.01082 5.37783 5.37802 4.01073 6.01749 2.27644L6.80765 0.134029C6.83736 0.0534909 6.91415 0 7 0C7.08585 0 7.16265 0.0534909 7.19235 0.134029L7.98251 2.27632C8.6221 4.01073 9.98931 5.37783 11.7236 6.01742L13.866 6.80747C13.9465 6.83717 14 6.91397 14 6.99982C14 7.08567 13.9465 7.16247 13.866 7.19217L11.7235 7.98246C9.98918 8.62205 8.6221 9.98915 7.98251 11.7234L7.19235 13.866C7.16265 13.9465 7.08585 14 7 14C6.91415 14 6.83736 13.9465 6.80765 13.866L6.01749 11.7234C5.3779 9.98915 4.01082 8.62193 2.27654 7.98246L0.134027 7.19217C0.0534906 7.16247 0 7.08567 0 6.99982C0 6.91397 0.0536118 6.83717 0.13415 6.80747Z" fill="#1565FF"/>
</svg>
